<svg width="41" height="41" viewBox="0 0 41 41" fill="none" xmlns="http://www.w3.org/2000/svg">
<circle cx="20.5" cy="20.5" r="20.5" fill="#071321"/>
<path d="M10.9393 27.9393C10.3536 28.5251 10.3536 29.4749 10.9393 30.0607C11.5251 30.6464 12.4749 30.6464 13.0607 30.0607L10.9393 27.9393ZM30.5 12C30.5 11.1716 29.8284 10.5 29 10.5H15.5C14.6716 10.5 14 11.1716 14 12C14 12.8284 14.6716 13.5 15.5 13.5H27.5V25.5C27.5 26.3284 28.1716 27 29 27C29.8284 27 30.5 26.3284 30.5 25.5V12ZM13.0607 30.0607L30.0607 13.0607L27.9393 10.9393L10.9393 27.9393L13.0607 30.0607Z" fill="#FFFBFE"/>
</svg>
