<svg width="80" height="21" viewBox="0 0 80 21" fill="none" xmlns="http://www.w3.org/2000/svg">
<path fill-rule="evenodd" clip-rule="evenodd" d="M23.6468 0.0786055C23.4229 0.142582 22.6871 0.190561 21.9994 0.174567C21.3116 0.158573 20.7358 0.190561 20.6879 0.254538C20.6559 0.318515 20.4 0.302525 20.1121 0.238548C19.8402 0.158577 19.5363 0.142594 19.4403 0.190577C19.3444 0.254554 19.0564 0.286542 18.7845 0.270548C18.5286 0.23856 18.0648 0.302525 17.7609 0.39849C17.3771 0.494455 17.1531 0.494459 17.0092 0.3825C16.8652 0.27054 16.7053 0.270536 16.4494 0.39849C16.1775 0.558432 16.1295 0.542442 16.2255 0.3825C16.3214 0.238552 16.2095 0.206567 15.7456 0.286538C15.4098 0.334521 15.0739 0.462463 15.0259 0.574423C14.9619 0.670388 14.866 0.686394 14.818 0.606423C14.754 0.510457 12.5468 0.446473 12.5468 0.558432C12.5468 0.606415 11.907 0.734369 11.7151 0.718375C11.0593 0.670392 10.6595 0.68639 9.57188 0.782355C8.4043 0.894315 7.74854 0.990276 7.74854 1.03826C7.74854 1.07025 6.469 1.2142 5.82923 1.24619C5.57332 1.26219 5.25343 1.34216 5.15747 1.40613C5.04551 1.48611 4.88557 1.4861 4.7896 1.43811C4.70963 1.39013 4.32577 1.42212 3.9579 1.53408C3.57404 1.63004 3.11021 1.71003 2.90228 1.71003C2.71035 1.71003 2.50243 1.77399 2.45445 1.85396C2.40646 1.93393 2.11857 1.99791 1.81468 1.99791C1.51079 1.99791 1.27087 2.06189 1.27087 2.14186C1.27087 2.23783 1.14292 2.26981 0.96698 2.23783C0.791043 2.20584 0.519141 2.34978 0.327211 2.5737C-0.0406566 2.98955 -0.104634 3.27745 0.167268 3.27745C0.247239 3.27745 0.295222 3.21347 0.247239 3.1335C0.103291 2.92557 0.471161 2.82962 1.15891 2.92559C1.49479 2.95757 1.7507 3.08552 1.7507 3.19748C1.7507 3.32543 1.99061 3.38941 2.45445 3.37341C3.1422 3.35742 3.35012 3.11751 2.67836 3.11751C2.10257 3.11751 2.50243 2.92558 3.19018 2.86161C3.79796 2.81362 3.82995 2.82962 3.82995 3.24547V3.67731L4.14983 3.14951C4.32577 2.86161 4.54969 2.66967 4.62966 2.71765C4.72563 2.76564 4.7896 2.70166 4.7896 2.55771C4.7896 2.41376 4.86958 2.34979 4.94955 2.39777C5.04551 2.46175 5.0775 2.5737 5.02952 2.65367C4.96554 2.73364 5.15747 2.79762 5.41338 2.79762C5.70127 2.79762 5.9092 2.71766 5.9092 2.58971C5.9092 2.46176 5.97318 2.47774 6.06914 2.63768C6.14911 2.76564 6.22908 2.79763 6.22908 2.70166C6.22908 2.6057 6.34104 2.52573 6.469 2.52573C6.59695 2.52573 6.70891 2.58971 6.70891 2.66968C6.70891 2.74965 6.83686 2.74965 6.99681 2.66968C7.14075 2.58971 7.5726 2.55772 7.95646 2.58971C8.34032 2.6217 8.75617 2.5737 8.86813 2.47774C9.02807 2.34979 9.09205 2.3498 9.14003 2.50974C9.20401 2.66968 9.33196 2.66968 9.79579 2.52573C10.3076 2.36579 10.3876 2.38178 10.3876 2.6057C10.4036 2.84561 10.4196 2.84562 10.6115 2.58971C10.7395 2.42977 10.8834 2.36579 10.9314 2.44576C11.0593 2.65368 10.8834 3.11751 10.6915 3.11751C10.6115 3.11751 10.5475 3.18149 10.5475 3.24547C10.5475 3.30945 10.7874 3.34144 11.0913 3.30945C11.5712 3.24547 11.6351 3.19748 11.6191 2.81361C11.5871 2.44575 11.6511 2.39778 12.1949 2.3498C12.5628 2.31781 12.7867 2.36578 12.7867 2.47774C12.7867 2.5897 12.6907 2.63769 12.5628 2.58971C12.4029 2.52573 12.3709 2.6057 12.4188 2.84561C12.4828 3.11752 12.4668 3.1495 12.3229 2.95757C12.1469 2.70166 11.891 2.82962 12.067 3.10152C12.1949 3.32544 12.6268 3.32543 12.6268 3.11751C12.6268 3.02154 12.7067 2.95757 12.7867 2.95757C12.8827 2.95757 12.9307 3.05354 12.9147 3.14951C12.8827 3.26147 12.9786 3.32543 13.1066 3.29344C13.2346 3.26145 13.6664 3.21348 14.0663 3.18149C14.4661 3.13351 14.9619 3.08553 15.1859 3.06954C15.4897 3.03755 15.5697 2.95757 15.5377 2.71765C15.5057 2.52572 15.5377 2.46174 15.6177 2.5737C15.9216 3.00555 17.1052 3.27746 17.1052 2.92559C17.1052 2.78164 16.8972 2.74964 16.3534 2.79762C16.1135 2.81362 15.9856 2.73366 15.9856 2.58971C15.9856 2.44576 15.9376 2.31781 15.8736 2.26983C15.7936 2.23784 15.8576 2.23784 15.9856 2.26983C16.9132 2.52573 17.1531 2.52573 17.0572 2.26983C16.9932 2.09389 17.0252 2.04591 17.2011 2.10988C17.3131 2.15787 17.425 2.25382 17.425 2.33379C17.425 2.41376 17.633 2.47774 17.8889 2.47774C18.1448 2.47774 18.4327 2.5897 18.5446 2.71765C18.6566 2.8616 18.8485 2.94157 18.9765 2.89359C19.0884 2.8456 19.1844 2.8776 19.1844 2.94158C19.1844 3.13351 19.7122 3.05354 19.7762 2.84561C19.8082 2.76564 19.5843 2.71765 19.2484 2.73364C18.7686 2.78163 18.7046 2.74964 18.8645 2.55771C18.9605 2.44575 19.2164 2.36578 19.4243 2.41376C19.6322 2.44575 19.8562 2.41376 19.9041 2.3178C19.9681 2.22183 20.0961 2.20585 20.192 2.26983C20.304 2.3498 20.5119 2.39777 20.6879 2.39777C21.1037 2.39777 21.4236 2.90959 21.1197 3.10152C20.9758 3.19748 21.0557 3.26147 21.3916 3.30945L21.8714 3.37341L21.4876 2.8776C21.0237 2.25382 21.0078 2.15786 21.4396 2.15786C21.7115 2.15786 21.7595 2.23783 21.6955 2.55771C21.6475 2.89359 21.7115 3.02154 22.0794 3.19748C22.4152 3.37342 22.5272 3.38942 22.5912 3.22948C22.6392 3.08553 22.7511 3.08552 23.087 3.27745C23.4389 3.45339 23.5508 3.46938 23.6468 3.29344C23.7268 3.18148 23.8387 3.10152 23.9187 3.10152C24.1586 3.13351 24.0786 2.74965 23.8227 2.66968C23.6948 2.6217 23.6308 2.65368 23.6948 2.71765C23.8387 2.8616 23.5508 3.27745 23.3109 3.27745C23.2149 3.27745 23.183 3.16549 23.2469 3.03754C23.3109 2.8616 23.2309 2.79762 22.943 2.79762C22.4152 2.79762 22.4312 2.5737 22.959 2.33379C23.3269 2.17385 23.3749 2.18984 23.2789 2.39777C23.215 2.5897 23.2789 2.62169 23.5828 2.54172C23.8227 2.47774 24.0946 2.52572 24.2546 2.65367C24.4465 2.81361 24.4945 2.81363 24.3985 2.66968C24.1586 2.28582 24.5265 2.49375 24.9423 2.98957C25.2622 3.37343 25.4062 3.43739 25.5021 3.27745C25.5821 3.1495 25.5661 3.10152 25.4701 3.1655C25.3742 3.22948 25.2622 3.1335 25.2142 2.95757C25.1503 2.71765 25.2302 2.6057 25.5181 2.54172C25.982 2.42976 26.2379 2.5897 25.902 2.79762C25.774 2.8776 25.7101 2.98955 25.758 3.03754C25.918 3.18149 26.3818 2.94158 26.3818 2.70166C26.3818 2.42976 26.7337 2.41377 26.9896 2.66968C27.1175 2.79764 27.1815 2.79763 27.1815 2.68567C27.1815 2.6057 27.3734 2.54171 27.6294 2.5737C28.1732 2.63768 28.653 2.49374 28.541 2.30181C28.477 2.22184 28.557 2.15786 28.685 2.15786C28.8449 2.15786 28.9409 2.3018 28.9409 2.49373C28.9409 2.74964 28.8609 2.81363 28.637 2.74965C28.4451 2.70167 28.2851 2.76565 28.2371 2.9096C28.1092 3.24547 28.0932 3.24547 28.557 3.14951C28.8609 3.10153 28.9569 3.13351 28.8769 3.26146C28.8129 3.35743 28.8449 3.43739 28.9249 3.43739C29.0209 3.43739 29.1008 3.35743 29.1008 3.26146C29.1008 3.1495 29.2608 3.11752 29.5007 3.14951C29.7246 3.19749 29.9485 3.1655 29.9965 3.10152C30.0445 3.02155 29.8526 2.95757 29.5967 2.95757C29.3247 2.95757 29.1008 2.8776 29.1008 2.79762C29.1008 2.70166 29.2128 2.63768 29.3407 2.63768C29.4687 2.63768 29.5807 2.54173 29.5807 2.42977C29.5966 2.30181 29.6446 2.3178 29.7886 2.47774C29.9965 2.73365 31.34 2.8616 31.34 2.63768C31.34 2.49373 32.2837 2.55771 32.4276 2.71765C32.4756 2.76564 32.2517 2.79762 31.9318 2.79762C31.404 2.79762 31.34 2.84561 31.372 3.19748C31.404 3.53336 31.436 3.54935 31.6599 3.37341C31.7879 3.24546 32.0758 3.10151 32.2997 3.03754C32.6675 2.92558 32.6835 2.92558 32.4596 3.19748C32.2357 3.46938 32.2517 3.48538 32.5876 3.40541C32.7795 3.34144 32.9394 3.35742 32.9394 3.43739C32.9394 3.66131 33.4513 3.77327 33.6752 3.59734C33.7871 3.50137 34.123 3.40541 34.4109 3.40541C35.0667 3.38942 35.2746 3.27745 35.0027 3.10152C34.8268 2.98956 34.8428 2.95757 35.0667 2.95757C35.2266 2.95757 35.3226 2.89359 35.2746 2.81361C35.2266 2.73364 35.4185 2.63768 35.6904 2.5737C36.0103 2.50972 36.2343 2.54171 36.3142 2.65367C36.3782 2.76563 36.5381 2.79764 36.6821 2.74965C36.826 2.68568 36.938 2.71765 36.938 2.81361C36.938 2.90958 37.05 2.94157 37.1779 2.89359C37.3059 2.8456 37.5298 2.74965 37.6897 2.68567C37.8497 2.6217 37.9136 2.65369 37.8497 2.74965C37.7857 2.84562 37.8497 2.97356 37.9936 3.02155C38.1216 3.06953 38.1855 3.05353 38.1376 2.97356C38.0896 2.89359 38.2975 2.82962 38.6014 2.84561C38.9053 2.86161 39.1132 2.92559 39.0652 2.98957C39.0332 3.06954 39.1452 3.11751 39.3371 3.11751C39.5451 3.11751 39.641 3.05354 39.5611 2.94158C39.4971 2.82962 39.609 2.8456 39.833 2.97356C40.2648 3.19748 40.7606 3.24547 41.0645 3.06954C41.1605 2.98957 41.4004 3.02154 41.5763 3.11751C41.7842 3.22947 41.8962 3.22947 41.8962 3.11751C41.8962 3.03754 42.0881 2.95757 42.344 2.95757C42.584 2.95757 42.6959 3.02155 42.6 3.08553C42.456 3.1655 42.472 3.26146 42.6319 3.40541C42.8239 3.56535 42.8559 3.56535 42.8559 3.35742C42.8559 3.08552 43.1118 3.02154 43.2077 3.27745C43.2717 3.46938 44.4553 3.62932 44.4553 3.45338C44.4553 3.26145 45.111 3.35743 45.255 3.58135C45.335 3.7093 45.5109 3.75728 45.7348 3.67731C45.9268 3.61333 46.3106 3.54935 46.5665 3.53335C46.9984 3.50137 47.0144 3.51738 46.7585 3.70931C46.4226 3.96521 46.4546 3.9652 47.1583 3.75728C47.6061 3.62932 47.7501 3.66132 47.926 3.88524C48.086 4.10916 48.118 4.10915 48.054 3.90123C47.99 3.74129 48.054 3.64533 48.1979 3.64533C48.3259 3.64533 48.4059 3.70931 48.3579 3.78928C48.3099 3.85326 48.3899 3.91722 48.5178 3.91722C48.6618 3.91722 48.7737 3.96521 48.7737 4.02919C48.7737 4.22112 49.6054 4.22112 49.9733 4.04518C50.1492 3.94922 50.2452 3.93321 50.1812 3.99719C50.1172 4.06117 50.2292 4.2531 50.4211 4.41304L50.773 4.70094L50.4211 4.60498C50.2132 4.557 49.9253 4.57299 49.7814 4.62097C49.5414 4.71694 49.5414 4.74892 49.7334 4.87687C49.8613 4.95684 50.1012 4.98884 50.2772 4.94085C50.4691 4.87688 50.5331 4.90887 50.4691 5.02083C50.3412 5.21276 50.5811 5.24474 51.1409 5.1008C51.5727 4.97284 51.6047 4.71693 51.1729 4.7969C50.9969 4.82889 50.885 4.7969 50.9329 4.71693C50.9809 4.63696 51.2048 4.573 51.4128 4.58899C51.6207 4.60498 51.7487 4.68495 51.7167 4.74893C51.6687 4.81291 51.7646 4.87687 51.9086 4.87687C52.0685 4.87687 52.1485 4.92485 52.0845 4.97284C51.9726 5.10079 52.4844 5.67659 52.6283 5.58062C52.7083 5.54864 52.7243 5.3887 52.6763 5.22876C52.5963 5.00484 52.6123 5.00483 52.7403 5.19676C52.8363 5.32471 52.8842 5.46866 52.8363 5.53263C52.7403 5.70857 54.1158 5.80455 54.3397 5.62861C54.4677 5.51665 54.5316 5.54864 54.5316 5.74057C54.5316 5.9325 54.6916 5.99647 55.2194 6.01246C55.8432 6.02845 55.8592 6.02846 55.4433 6.15641C55.1874 6.23638 54.8835 6.25238 54.7716 6.22039C54.6596 6.17241 54.4037 6.22039 54.2278 6.31635C54.0358 6.41232 53.7959 6.44431 53.6999 6.38033C53.3641 6.17241 52.0685 6.14041 51.6047 6.33234C51.2848 6.47629 51.1249 6.47629 50.9489 6.33234C50.821 6.22039 50.677 6.2044 50.6291 6.28437C50.5331 6.44432 50.0533 6.42831 49.7654 6.25237C49.6534 6.1884 49.5734 6.22039 49.5734 6.31635C49.5734 6.42831 49.2535 6.46031 48.5818 6.38033C48.022 6.31636 47.4302 6.28437 47.2543 6.28437C45.3829 6.38034 44.7752 6.38033 44.7752 6.30036C44.7752 6.25238 44.4553 6.25238 44.0554 6.31635C43.6716 6.38033 43.3197 6.36434 43.3037 6.28437C43.2717 6.2044 43.0478 6.20439 42.7919 6.31635C42.504 6.41232 42.2641 6.42831 42.1521 6.33234C42.0562 6.25237 41.6883 6.23639 41.3364 6.30036C40.9845 6.36434 39.0812 6.41232 37.0979 6.39633C35.1147 6.38033 33.3073 6.41232 33.0834 6.49229C32.8275 6.55626 32.5876 6.54029 32.4756 6.42833C32.3637 6.31637 32.2517 6.31637 32.1077 6.42833C31.9958 6.5083 31.5479 6.55627 31.1161 6.54028C30.6843 6.50829 30.2364 6.55626 30.1245 6.65223C29.9805 6.76419 29.8206 6.76419 29.5967 6.63624C29.3567 6.52428 28.3011 6.49229 26.1739 6.55627C21.4556 6.70022 17.6809 6.89216 17.473 6.98812C17.409 7.02011 16.9932 7.03609 16.5454 7.03609C16.0975 7.03609 15.6977 7.10007 15.6337 7.19604C15.5537 7.292 15.5057 7.29201 15.5057 7.16406C15.5057 7.0361 15.2338 7.0041 14.674 7.05208C12.5788 7.21203 10.8514 7.308 9.79579 7.324C9.17202 7.33999 8.61222 7.40397 8.54825 7.46795C8.48427 7.53193 8.35631 7.54791 8.24435 7.49993C8.13239 7.45195 7.90848 7.5639 7.74854 7.75583C7.58859 7.93177 7.38067 8.07572 7.26871 8.07572C7.0128 8.07572 6.38903 8.61953 6.38903 8.84345C6.38903 8.93941 6.51698 9.09935 6.67692 9.17933C6.83686 9.29128 6.88485 9.40325 6.78888 9.46723C6.59695 9.62717 6.53297 10.187 6.7249 10.059C6.80487 10.011 6.86885 10.043 6.86885 10.139C6.86885 10.2189 6.78888 10.3149 6.69292 10.3469C6.54897 10.3949 6.54897 10.5068 6.69292 10.7628C6.83686 11.0507 7.0128 11.1146 7.5566 11.0986C7.92447 11.0986 8.48427 11.1626 8.78816 11.2586C9.5079 11.4825 10.2436 11.4985 9.90776 11.2746C9.69983 11.1466 9.71582 11.1146 9.95574 11.1146C10.0997 11.1146 10.2276 11.1946 10.2276 11.2906C10.2276 11.3865 10.3716 11.4185 10.5475 11.3545C10.7395 11.2906 10.8674 11.3225 10.8674 11.4505C10.8674 11.5785 10.9474 11.5625 11.1393 11.4185C11.3472 11.2426 11.4112 11.2426 11.4752 11.4025C11.5232 11.5625 11.5871 11.5625 11.7791 11.4185C11.907 11.3066 11.987 11.2906 11.971 11.3705C11.907 11.7064 12.003 11.7864 12.2269 11.5944C12.4189 11.4345 12.4668 11.4345 12.4668 11.6104C12.4668 11.7384 12.5628 11.6904 12.7067 11.4985C12.856 11.2959 12.936 11.2959 12.9467 11.4985C12.9467 11.6744 12.9946 11.7544 13.0586 11.7064C13.1066 11.6424 13.2346 11.6584 13.3465 11.7544C13.4425 11.8344 13.7944 11.9143 14.1142 11.9463C14.4501 11.9623 14.706 12.0583 14.706 12.1702C14.706 12.2822 14.5781 12.3302 14.3701 12.2822C14.0663 12.2022 14.0503 12.2502 14.0982 13.2419C14.1302 13.8177 14.2102 14.2495 14.2742 14.2015C14.3382 14.1695 14.3542 14.3135 14.2902 14.5214C14.1462 15.1612 14.3382 15.593 14.754 15.4811C15.7297 15.2411 15.9216 15.2571 16.2575 15.577C16.7373 16.0249 16.9612 15.9929 16.8812 15.513C16.8173 15.1612 16.8652 15.1132 17.2651 15.1132C17.521 15.1132 17.8409 15.0652 17.9848 15.0012C18.2248 14.9213 18.2407 14.9532 18.0648 15.2891C17.9049 15.561 17.9049 15.673 18.0488 15.721C18.1448 15.753 18.1928 15.8329 18.1608 15.8969C18.1128 15.9609 18.1608 16.0249 18.2727 16.0249C18.3847 16.0249 18.6886 16.0888 18.9765 16.1368C19.2644 16.1848 19.5363 16.1688 19.5843 16.0728C19.6322 15.9929 19.8082 15.9129 19.9521 15.9129C20.192 15.9129 20.192 15.9449 19.9841 16.0888C19.7922 16.2328 19.7922 16.2488 20.0321 16.1688C20.192 16.1208 20.4 16.0728 20.4799 16.0728C20.5759 16.0728 20.5919 15.9929 20.5439 15.9129C20.4959 15.8169 20.5119 15.7529 20.5759 15.7529C20.6559 15.7529 20.7838 15.8809 20.8958 16.0409C21.0077 16.2328 21.2797 16.3447 21.5675 16.3607C21.8394 16.3607 22.0314 16.3127 21.9834 16.2328C21.9354 16.1528 21.9674 16.0568 22.0634 15.9929C22.1433 15.9449 22.2233 16.0089 22.2233 16.1368C22.2233 16.2808 22.3353 16.3927 22.4632 16.3927C22.6072 16.3927 22.6551 16.2968 22.5912 16.1208C22.5112 15.9129 22.5592 15.8809 22.7671 15.9609C22.9271 16.0249 23.071 16.0728 23.119 16.0728C23.151 16.0728 23.135 16.1848 23.087 16.3127C23.023 16.4407 23.071 16.5527 23.167 16.5527C23.2629 16.5527 23.3429 16.4727 23.3429 16.3927C23.3429 16.2968 23.5508 16.2328 23.8067 16.2328C24.0786 16.2328 24.3345 16.1528 24.3825 16.0728C24.5265 15.8329 24.7824 16.0408 24.6704 16.3127C24.6224 16.4887 24.7024 16.5527 24.9583 16.5527C25.2622 16.5527 25.2942 16.5207 25.1023 16.3927C24.9743 16.3127 24.9263 16.2008 24.9743 16.1368C25.0383 16.0728 24.9103 15.8969 24.7024 15.721C24.1586 15.3051 24.2066 15.1612 24.8624 15.1772C25.2462 15.1932 25.4062 15.2571 25.3422 15.3851C25.3102 15.4971 25.3422 15.593 25.4222 15.593C25.5021 15.593 25.5981 15.4651 25.6301 15.3051C25.6941 15.0492 25.7101 15.0492 25.726 15.3051C25.742 15.4971 25.886 15.593 26.1899 15.609C26.6057 15.609 26.6057 15.625 26.2698 15.7529C26.0299 15.8489 25.934 15.9929 25.9979 16.1528C26.0779 16.3287 26.0299 16.3767 25.838 16.2968C25.6781 16.2328 25.5981 16.0888 25.6461 15.9769C25.6941 15.8489 25.6301 15.7529 25.5181 15.7529C25.3902 15.7529 25.3262 15.8809 25.3742 16.1208C25.4381 16.4087 25.5661 16.4887 26.0299 16.5207C26.3498 16.5527 26.8616 16.6006 27.1495 16.6326C27.5334 16.6806 27.7093 16.6326 27.7733 16.4407C27.8693 16.2168 27.9013 16.2168 28.0932 16.4727C28.2691 16.7286 28.589 16.7766 30.6203 16.8086C32.4276 16.8246 32.9714 16.7926 33.1154 16.6166C33.2593 16.4407 33.2433 16.3927 33.0354 16.3927C32.8915 16.3927 32.7795 16.3127 32.7795 16.2328C32.7795 16.0089 32.9874 16.0408 33.3553 16.3127C33.7871 16.6326 34.187 16.6006 34.2989 16.2488C34.3629 16.0408 34.4909 15.9609 34.6348 16.0249C34.7788 16.0728 34.8587 16.0249 34.8268 15.8969C34.7948 15.7689 34.9387 15.673 35.1786 15.641L35.5785 15.609L35.1786 15.721C34.9067 15.8009 34.8428 15.8809 34.9867 15.9769C35.0827 16.0408 35.2586 16.0408 35.3706 15.9769C35.4825 15.9129 35.4985 15.9289 35.4345 16.0409C35.3706 16.1528 35.0987 16.2328 34.8108 16.2328C34.3789 16.2328 34.3469 16.2648 34.5389 16.4567C34.6668 16.5847 35.0507 16.7926 35.3866 16.9365C35.9144 17.1444 36.0103 17.1444 36.0903 16.9525C36.1383 16.8246 36.2662 16.7126 36.3942 16.7126C36.5062 16.7126 36.5701 16.8086 36.5221 16.9205C36.4742 17.0645 36.6341 17.1445 37.034 17.1604C37.5778 17.2084 37.6098 17.1764 37.4018 16.9365C37.1939 16.6806 37.2099 16.6646 37.5458 16.7446C37.7377 16.8086 37.8976 16.7766 37.8976 16.6646C37.8976 16.5687 37.9456 16.5527 38.0096 16.6007C38.1536 16.7606 38.5534 16.3927 38.4415 16.2008C38.3775 16.1048 38.4734 16.0728 38.6814 16.1528C38.8733 16.2168 39.0172 16.1848 39.0172 16.0888C39.0172 15.9929 39.1292 15.9129 39.2572 15.9129C39.3851 15.9129 39.4971 15.9769 39.4971 16.0409C39.4971 16.1048 39.689 16.1528 39.9449 16.1368C40.2008 16.1368 40.4887 16.2488 40.6646 16.4407C40.9685 16.7926 41.0165 17.0325 40.7766 17.0325C40.6966 17.0325 40.6327 16.9365 40.6646 16.8246C40.6806 16.7286 40.5847 16.6326 40.4567 16.6326C40.3288 16.6326 40.1368 16.5687 40.0409 16.5207C39.9449 16.4567 39.8649 16.5047 39.8649 16.6326C39.8649 16.7606 39.9929 16.8725 40.1528 16.8725C40.3128 16.8725 40.4887 16.9365 40.5367 17.0325C40.5847 17.1125 40.7926 17.1604 40.9845 17.1284C41.1765 17.0805 41.4164 17.0485 41.5283 17.0485C41.6403 17.0325 41.6883 16.9205 41.6403 16.7926C41.5763 16.6646 41.4804 16.5846 41.4164 16.6326C41.3524 16.6806 41.2564 16.6166 41.2085 16.5047C41.1605 16.3607 41.2724 16.3127 41.5923 16.3287C41.9282 16.3447 42.0562 16.2808 42.0721 16.1048C42.0721 15.9449 42.1201 15.9129 42.1521 16.0249C42.2001 16.1368 42.3281 16.1848 42.44 16.1368C42.568 16.0888 42.6959 16.1688 42.7599 16.3127C42.8079 16.4567 42.9198 16.5367 43.0158 16.4727C43.0958 16.4247 43.3037 16.4567 43.4796 16.5367C43.6876 16.6486 43.7995 16.6646 43.8475 16.5527C43.9435 16.2328 44.9191 16.5687 44.9831 16.9365C45.0311 17.2084 45.0631 17.1924 45.0791 16.8406C45.0951 16.5527 45.159 16.4247 45.303 16.4887C45.4469 16.5367 45.4949 16.7446 45.4469 17.0325C45.3829 17.4323 45.4309 17.5123 45.7188 17.5123C46.1347 17.5123 46.1347 17.4483 45.7828 17.0965C45.5109 16.8246 45.5109 16.8086 45.7988 16.9205C46.0227 17.0005 46.0707 16.9845 45.9907 16.7926C45.9268 16.6166 46.0067 16.5527 46.2946 16.5527C46.5185 16.5527 46.6945 16.6326 46.6945 16.7286C46.6945 16.8246 46.5825 16.8565 46.4386 16.8086C46.2946 16.7446 46.2146 16.7926 46.2466 16.8885C46.3266 17.1444 47.1423 17.2244 47.2703 17.0005C47.3342 16.8885 47.3023 16.8725 47.2063 16.9365C47.0783 17.0165 47.0144 16.9205 47.0144 16.7126C47.0144 16.4727 47.0943 16.3927 47.2383 16.4407C47.3662 16.4887 47.5102 16.4567 47.5422 16.3447C47.5901 16.2008 47.6701 16.2168 47.8781 16.3767C48.118 16.5847 48.1819 16.5847 48.3099 16.3767C48.4379 16.1848 48.4698 16.1848 48.6138 16.3927C48.6938 16.5207 48.7737 16.5527 48.7737 16.4727C48.7737 16.3767 48.8857 16.4407 48.9976 16.6007C49.1256 16.7606 49.1896 17.0325 49.1416 17.1924C49.0936 17.3684 49.1416 17.5123 49.2376 17.5123C49.3335 17.5123 49.4135 17.4483 49.4135 17.3684C49.4135 17.2724 49.5574 17.2244 49.7174 17.2404C49.8933 17.2404 49.9893 17.3364 49.9413 17.4643C49.8933 17.5763 49.9413 17.6723 50.0373 17.6723C50.1332 17.6723 50.2132 17.5923 50.2132 17.5123C50.2132 17.4163 50.3572 17.3524 50.5491 17.3524C50.725 17.3524 50.821 17.4163 50.773 17.5123C50.725 17.5923 50.741 17.6723 50.837 17.6723C50.917 17.6723 51.0129 17.5763 51.0609 17.4643C51.1249 17.3044 51.1729 17.3044 51.3488 17.4643C51.6047 17.7202 51.8766 17.7362 51.7167 17.4803C51.6367 17.3524 51.6847 17.3364 51.9086 17.4323C52.5324 17.6882 52.9642 17.7202 53.1082 17.4963C53.2201 17.3364 53.2841 17.3204 53.3801 17.4483C53.444 17.5763 53.9239 17.6243 54.6596 17.6083C55.2834 17.5923 55.8112 17.6403 55.8112 17.7202C55.8112 17.7842 55.8912 17.8002 55.9711 17.7522C56.0671 17.6882 56.0991 17.5763 56.0511 17.4963C55.9231 17.2884 56.195 17.3204 56.403 17.5283C56.6429 17.7682 56.9628 17.6563 56.7868 17.3844C56.7229 17.2724 56.451 17.1444 56.195 17.1125C55.9391 17.0805 55.6992 17.0485 55.6512 17.0485C55.6033 17.0325 55.6672 16.9685 55.7952 16.8885C55.9391 16.7926 56.179 16.8086 56.419 16.8885C56.6429 16.9685 56.9468 17.0005 57.1067 16.9525C57.3306 16.8725 57.4586 16.9525 57.5705 17.2244C57.6772 17.459 57.7145 17.4377 57.6825 17.1604C57.6505 16.9205 57.6825 16.7606 57.7465 16.8086C57.8265 16.8565 57.8904 16.7606 57.8904 16.6166C57.8904 16.3607 57.9064 16.3607 58.1943 16.6166C58.4023 16.7926 58.7701 16.9045 59.234 16.9045C59.8737 16.9045 59.9697 16.9525 59.9697 17.2244C59.9697 17.4483 60.0497 17.5123 60.2256 17.4483C60.3695 17.4003 60.4975 17.3524 60.5455 17.3524C60.5775 17.3524 60.5615 17.2564 60.5135 17.1284C60.4175 16.8725 60.8814 16.6486 61.0253 16.8885C61.0733 16.9845 61.3132 17.0165 61.5531 16.9525C61.825 16.8885 61.921 16.9045 61.809 17.0165C61.729 17.0965 61.4412 17.1924 61.1693 17.2404C60.8973 17.2724 61.0733 17.3204 61.6011 17.3364C62.1449 17.3364 62.5608 17.2724 62.6247 17.1604C62.7047 17.0485 62.6247 17.0165 62.4008 17.0645C62.1929 17.1285 62.0969 17.0965 62.1449 16.9685C62.1769 16.8725 62.4488 16.7766 62.7367 16.7606C63.8563 16.7126 64.3041 16.6166 64.4641 16.3927C64.592 16.1848 64.64 16.1848 64.8319 16.4247C65.0558 16.7286 65.6476 16.8086 65.8076 16.5527C65.8556 16.4727 65.9995 16.4407 66.1275 16.5047C66.2874 16.5527 66.3674 16.4727 66.3674 16.2488C66.3674 15.9929 66.2874 15.9289 66.0155 15.9769C65.8076 16.0089 65.5837 15.9769 65.4877 15.9129C65.3437 15.8009 64.704 15.689 63.3285 15.513C63.1045 15.481 62.6087 15.4171 62.2089 15.3531C59.4899 14.9692 56.6589 14.6813 55.2194 14.6493C54.9955 14.6333 54.8515 14.5374 54.8515 14.3934C54.8515 14.2655 54.7876 14.1535 54.7076 14.1535C54.6276 14.1535 54.5157 14.0416 54.4677 13.8976C54.4197 13.7697 54.4357 13.7057 54.5316 13.7537C54.6116 13.8017 54.7236 13.6577 54.7876 13.4338C54.8355 13.2259 54.9475 13.0819 55.0275 13.1139C55.0914 13.1619 55.2514 13.0659 55.3633 12.874C55.4753 12.6981 55.6193 12.5541 55.6992 12.5541C55.9551 12.5541 57.7305 11.6904 57.7305 11.5625C57.7305 11.4985 57.6665 11.4345 57.5865 11.4345C57.5066 11.4345 57.4106 11.2906 57.3626 11.1306C57.3146 10.9547 57.0108 10.6988 56.6749 10.5548C56.1471 10.3309 56.0991 10.2669 56.323 10.139C56.4669 10.059 57.1067 10.027 57.7465 10.075C58.5142 10.123 58.994 10.075 59.138 9.96305C59.3139 9.8191 59.3939 9.81909 59.4899 10.011C59.6018 10.2029 60.0337 10.2509 61.4571 10.2989C62.4488 10.3149 63.5364 10.3629 63.8563 10.3949C64.2881 10.4269 64.4481 10.3789 64.496 10.171C64.56 9.94704 64.576 9.94706 64.592 10.187C64.608 10.4109 64.768 10.4429 65.4877 10.4269C65.9675 10.4109 66.3674 10.4429 66.3674 10.5069C66.3674 10.6668 67.8229 10.6668 68.0788 10.5069C68.2067 10.4269 68.2227 10.2989 68.1267 10.155C67.8868 9.7871 67.9348 9.67514 68.2867 9.67514C68.4626 9.67514 68.6066 9.75511 68.6066 9.85107C68.6066 9.93105 68.5426 9.96304 68.4466 9.91506C68.2547 9.7871 68.2387 9.99503 68.4306 10.2989C68.6066 10.5868 69.4543 10.6988 69.3103 10.4269C69.2623 10.3149 69.3103 10.3469 69.4383 10.4749C69.6782 10.7627 70.6858 10.8907 70.6858 10.6348C70.6858 10.5548 70.8777 10.4748 71.1337 10.4908C71.5015 10.4908 71.5175 10.5228 71.2616 10.6188C70.9737 10.7308 70.9737 10.7468 71.2296 10.8427C71.3896 10.9067 71.6455 10.8747 71.8054 10.7947C71.9654 10.7148 72.2213 10.6828 72.3492 10.7308C72.5092 10.7947 72.6051 10.7468 72.6051 10.6188C72.6051 10.4429 72.6371 10.4269 72.7491 10.6028C72.813 10.7148 72.941 10.7947 73.021 10.7787C73.101 10.7628 73.1969 10.7787 73.2449 10.7947C73.2929 10.8107 73.6288 10.8427 74.0126 10.8747C74.5404 10.9067 74.6844 10.8747 74.7004 10.6668C74.7004 10.4429 74.7164 10.4269 74.8123 10.6348C74.9403 10.9227 75.5161 10.9547 75.612 10.6668C75.644 10.5708 75.788 10.4749 75.9159 10.4749C76.1079 10.4749 76.1239 10.5228 75.9799 10.6828C75.836 10.8587 75.8999 10.9067 76.2998 10.9227C76.7636 10.9387 76.7796 10.9067 76.6677 10.4269C76.6197 10.139 76.5077 9.89907 76.4277 9.86708C76.2198 9.78711 76.6996 9.35526 76.9715 9.35526C77.0995 9.35526 77.2434 9.2593 77.2914 9.14734C77.3714 8.93942 78.0272 8.57154 79.0508 8.17168C79.3707 8.04373 79.6426 7.86779 79.6426 7.77182C79.6426 7.51592 78.9068 6.79618 78.6509 6.79618C78.523 6.79618 78.363 6.7322 78.2831 6.65223C78.1871 6.55626 77.9152 6.4603 77.6753 6.41232C77.2754 6.34834 75.1002 5.75655 73.8047 5.37269C73.3409 5.22874 72.0613 4.97284 71.7254 4.95684C71.6455 4.95684 71.5015 4.90887 71.4056 4.86088C71.3256 4.79691 70.9577 4.70094 70.6058 4.63696C70.254 4.55699 69.9021 4.49301 69.8061 4.47702C69.3743 4.38105 66.9112 3.86923 66.7672 3.85324C66.6873 3.83724 66.5433 3.78927 66.4473 3.74129C66.3674 3.67731 66.1435 3.66131 65.9835 3.6933C65.8076 3.70929 65.5517 3.67731 65.4237 3.59734C65.2798 3.53336 64.9599 3.4214 64.688 3.37341C64.4321 3.32543 63.8563 3.21347 63.4084 3.11751C62.9766 3.03754 62.2089 2.94157 61.729 2.89359C61.2492 2.8616 60.4975 2.74964 60.0497 2.65367C57.9864 2.22183 55.1234 1.80599 53.572 1.74201C52.9962 1.72601 52.5324 1.69402 52.5324 1.67803C52.5324 1.63005 51.8766 1.51809 50.9809 1.42212C50.2612 1.34215 50.0533 1.37413 50.0533 1.53408C50.0533 1.71001 50.0213 1.71003 49.9253 1.55009C49.7494 1.29418 49.3175 1.1982 47.8141 1.11823C47.1583 1.08624 46.4386 1.00627 46.2146 0.974278C45.9907 0.926296 45.127 0.846328 44.2953 0.798346C43.4636 0.750363 42.424 0.670404 41.9762 0.590433C41.5443 0.526456 40.7286 0.478461 40.1848 0.478461C39.641 0.478461 39.1772 0.414496 39.1772 0.350519C39.1772 0.286542 39.0332 0.302525 38.8733 0.39849C38.4894 0.590421 38.3295 0.606427 38.4415 0.43049C38.4894 0.350519 38.2175 0.286538 37.8497 0.286538C37.4818 0.286538 36.6341 0.23856 35.9783 0.190577C34.4589 0.062623 33.2113 0.046621 32.3317 0.142586C31.9638 0.190569 31.6759 0.174583 31.7239 0.110606C31.8198 -0.0493366 30.8122 -0.0333502 30.5563 0.142586C30.4124 0.238552 30.3004 0.238552 30.2684 0.142586C30.2364 0.0626152 29.5167 0.0146403 28.669 0.0306346C27.8053 0.0466288 26.4778 0.0626113 25.71 0.0786055C24.9423 0.0945998 24.2546 0.0786172 24.1906 0.0306346C24.1266 -0.00135389 23.8707 0.0146286 23.6468 0.0786055ZM8.22836 2.15786C8.27635 2.25382 8.21236 2.26982 8.08441 2.22184C7.79651 2.10988 7.74853 1.99791 7.97245 1.99791C8.06842 1.99791 8.18038 2.06189 8.22836 2.15786ZM13.4265 2.65367C13.4265 2.73364 13.2985 2.79763 13.1546 2.78163C12.9786 2.78163 12.9467 2.73366 13.0746 2.68567C13.1706 2.65368 13.2186 2.52573 13.1706 2.44576C13.1066 2.3338 13.1386 2.3178 13.2346 2.38178C13.3465 2.44576 13.4265 2.55771 13.4265 2.65367ZM14.5621 2.63768C14.5621 2.79762 14.6101 2.76564 14.706 2.55771C14.834 2.25382 14.85 2.25382 14.85 2.5737C14.866 2.79762 14.738 2.95757 14.5141 3.02155C13.9863 3.1495 13.7144 3.1335 13.8103 2.97356C13.8743 2.89359 13.8263 2.79763 13.7144 2.76564C13.3945 2.65368 13.7304 2.34979 14.1462 2.38178C14.3861 2.38178 14.5461 2.49373 14.5621 2.63768ZM15.2658 2.47774C15.3138 2.55771 15.2818 2.63768 15.2018 2.63768C15.1059 2.63768 15.0259 2.55771 15.0259 2.47774C15.0259 2.38177 15.0579 2.3178 15.0899 2.3178C15.1379 2.3178 15.2178 2.38177 15.2658 2.47774ZM33.1314 2.46175C32.9554 2.55771 33.0034 2.66968 33.3233 2.92559C33.6592 3.18149 33.6912 3.26146 33.4832 3.34143C33.3553 3.38941 33.2913 3.37341 33.3393 3.29344C33.3873 3.21347 33.2753 3.10151 33.0994 3.03754C32.6355 2.89359 32.6995 2.3178 33.1634 2.3178C33.2593 2.3178 33.2433 2.38178 33.1314 2.46175ZM33.9791 2.79762C34.027 2.8776 34.0111 2.95757 33.9151 2.95757C33.8351 2.95757 33.7072 2.8776 33.6592 2.79762C33.6112 2.70166 33.6272 2.63768 33.7232 2.63768C33.8031 2.63768 33.9311 2.70166 33.9791 2.79762ZM34.5549 3.00556C34.3949 3.14951 34.3789 3.13351 34.4749 2.9096C34.5229 2.74965 34.6188 2.66967 34.6668 2.71765C34.7148 2.76564 34.6668 2.8936 34.5549 3.00556ZM22.4632 2.95757C22.5112 3.03754 22.4952 3.11751 22.3992 3.11751C22.3193 3.11751 22.1913 3.03754 22.1433 2.95757C22.0954 2.8616 22.1114 2.79762 22.2073 2.79762C22.2873 2.79762 22.4152 2.8616 22.4632 2.95757ZM53.652 4.65295C53.8599 4.73292 53.8759 4.7809 53.6999 4.89286C53.3801 5.10079 53.0922 5.0688 53.0922 4.7969C53.0922 4.541 53.2361 4.49301 53.652 4.65295ZM55.9231 5.08481C55.8432 5.34071 54.9635 5.30871 54.8835 5.05281C54.8355 4.92485 54.8835 4.87688 54.9795 4.94085C55.0754 4.98884 55.1874 4.97284 55.2354 4.89286C55.3633 4.70093 56.0031 4.87688 55.9231 5.08481ZM57.5226 5.06882C57.4746 5.19677 57.4266 5.14877 57.4266 4.97284C57.4106 4.7969 57.4586 4.70094 57.5066 4.76492C57.5546 4.8129 57.5705 4.95686 57.5226 5.06882ZM56.9308 5.26074C57.3306 5.38869 57.5865 5.51664 57.4906 5.53263C56.9628 5.6286 56.5949 5.61262 56.5149 5.48466C56.4669 5.42069 56.355 5.38869 56.275 5.43667C56.195 5.50065 56.1311 5.42067 56.1311 5.29272C56.1311 5.14877 56.1471 5.03682 56.179 5.03682C56.195 5.03682 56.5309 5.14878 56.9308 5.26074ZM39.3371 8.55555C39.3371 8.37961 39.3851 8.37962 39.5291 8.52357C39.833 8.82746 39.4811 9.08335 39.0013 8.89142C38.7933 8.81145 38.6974 8.73148 38.8093 8.73148C38.9213 8.71548 38.9693 8.60354 38.9053 8.4276C38.8253 8.20368 38.8573 8.21967 39.0652 8.47557C39.2572 8.69949 39.3211 8.73148 39.3371 8.55555ZM36.2183 8.55555C36.2662 8.63552 36.2343 8.71549 36.1543 8.71549C36.0583 8.71549 35.9783 8.63552 35.9783 8.55555C35.9783 8.45958 36.0103 8.3956 36.0423 8.3956C36.0903 8.3956 36.1703 8.45958 36.2183 8.55555ZM43.7355 8.74749C43.9595 8.84345 44.1354 8.98739 44.1354 9.05136C44.1354 9.19531 42.2641 9.13135 42.1041 8.9874C42.0082 8.89144 42.2801 8.81146 42.584 8.85944C42.6479 8.85944 42.6959 8.79546 42.6959 8.71549C42.6959 8.50756 43.2237 8.50758 43.7355 8.74749ZM45.9427 8.85944C46.4706 9.19532 46.2626 9.48322 45.7188 9.17933C45.4949 9.06736 45.4149 9.06736 45.4789 9.17933C45.5429 9.27529 45.3829 9.32327 44.9831 9.29128C44.6632 9.25929 44.3593 9.14733 44.3273 9.05136C44.2793 8.89142 44.5992 8.79546 45.0631 8.85944C45.159 8.87543 45.255 8.81145 45.255 8.71549C45.255 8.47557 45.4309 8.52356 45.9427 8.85944ZM41.0165 9.03537C40.9685 9.11534 40.7926 9.13135 40.6007 9.08336C40.3608 9.01939 40.3288 8.9554 40.4727 8.87543C40.7126 8.71549 41.1285 8.85944 41.0165 9.03537ZM47.3342 8.89142C47.3342 8.98739 47.4622 9.01938 47.6381 8.9554C47.8781 8.87543 47.942 8.93941 47.926 9.17933C47.91 9.40324 47.8461 9.45123 47.7181 9.33927C47.6061 9.2593 47.3342 9.2273 47.0943 9.29128C46.6945 9.38724 46.6785 9.37125 46.8384 9.05136C47.0304 8.69949 47.3342 8.58753 47.3342 8.89142ZM51.0769 8.93941C51.0129 9.11535 51.0929 9.14733 51.5247 9.05136C51.8126 8.98739 52.2285 8.98739 52.4524 9.05136L52.8523 9.16333L52.4204 9.17933C52.1645 9.19532 51.9726 9.27528 51.9726 9.37125C51.9726 9.4992 51.8926 9.49921 51.7327 9.35526C51.5407 9.19532 51.4448 9.19532 51.2688 9.33927C51.1089 9.48322 51.0129 9.48321 50.9329 9.35526C50.821 9.17932 50.9329 8.71549 51.0769 8.71549C51.1249 8.71549 51.1249 8.81146 51.0769 8.93941ZM41.8962 9.03537C41.8962 9.11534 41.8642 9.19532 41.8322 9.19532C41.7843 9.19532 41.7043 9.11534 41.6563 9.03537C41.6083 8.93941 41.6403 8.87543 41.7203 8.87543C41.8162 8.87543 41.8962 8.93941 41.8962 9.03537ZM49.6214 9.06737C49.8133 9.17933 50.1492 9.24331 50.3731 9.22731C50.757 9.17933 50.757 9.19532 50.4691 9.43523C50.0693 9.73912 49.9573 9.73912 49.8293 9.43523C49.7814 9.30727 49.5574 9.19532 49.3335 9.19532C49.0456 9.19532 48.9497 9.2593 49.0296 9.38726C49.1096 9.51521 49.0616 9.53121 48.8697 9.46723C48.7098 9.40325 48.5498 9.35526 48.5178 9.35526C48.3259 9.35526 48.5018 9.05138 48.7417 8.9874C49.2056 8.85945 49.2695 8.87544 49.6214 9.06737ZM53.2521 9.19532C53.2521 9.27529 53.1721 9.35526 53.0762 9.35526C52.9962 9.35526 52.9642 9.27529 53.0122 9.19532C53.0602 9.09935 53.1402 9.03537 53.1881 9.03537C53.2201 9.03537 53.2521 9.09935 53.2521 9.19532ZM54.2917 9.19532C54.2437 9.27529 54.1318 9.35526 54.0358 9.35526C53.9559 9.35526 53.8919 9.27529 53.8919 9.19532C53.8919 9.09935 54.0038 9.03537 54.1478 9.03537C54.2757 9.03537 54.3397 9.09935 54.2917 9.19532ZM55.3314 9.45122C55.3314 9.48321 55.1874 9.45122 55.0115 9.35526C54.8355 9.25929 54.6916 9.14734 54.6916 9.09935C54.6916 9.06736 54.8355 9.09935 55.0115 9.19532C55.1874 9.29128 55.3314 9.40324 55.3314 9.45122ZM56.0511 9.19532C56.0991 9.27529 56.0351 9.35526 55.9072 9.35526C55.7632 9.35526 55.6512 9.27529 55.6512 9.19532C55.6512 9.09935 55.7152 9.03537 55.7952 9.03537C55.8912 9.03537 56.0031 9.09935 56.0511 9.19532ZM57.0107 9.19532C56.9628 9.27529 56.8188 9.30728 56.6909 9.24331C56.355 9.13135 56.387 9.03537 56.7868 9.03537C56.9628 9.03537 57.0747 9.09935 57.0107 9.19532ZM51.5727 9.5152C51.6207 9.59517 51.5887 9.67514 51.5087 9.67514C51.4128 9.67514 51.3328 9.59517 51.3328 9.5152C51.3328 9.41923 51.3648 9.35526 51.3968 9.35526C51.4448 9.35526 51.5247 9.41923 51.5727 9.5152ZM63.5684 9.5152C63.5204 9.59517 63.3765 9.67514 63.2805 9.67514C63.1685 9.67514 63.1845 9.61117 63.3285 9.5152C63.6324 9.32327 63.6963 9.32327 63.5684 9.5152ZM64.4481 9.59517C64.4481 9.72312 64.3361 9.83508 64.2082 9.83508C63.7923 9.83508 63.9203 9.5152 64.4161 9.37125C64.4321 9.35525 64.4481 9.46722 64.4481 9.59517ZM54.6116 9.67514C54.5636 9.75511 54.4197 9.83508 54.3237 9.83508C54.2118 9.83508 54.2278 9.77111 54.3717 9.67514C54.6756 9.48321 54.7396 9.48321 54.6116 9.67514ZM55.7312 10.011C55.7312 10.123 55.5873 10.2509 55.4113 10.2989C55.1554 10.3469 55.1394 10.3149 55.2994 10.123C55.3953 9.99503 55.4273 9.83508 55.3633 9.75511C55.2994 9.69114 55.3633 9.65916 55.4913 9.70714C55.6193 9.75513 55.7312 9.88306 55.7312 10.011ZM71.6455 9.86708C71.6455 9.99504 71.3896 10.091 71.0057 10.107C70.6378 10.139 70.3659 10.075 70.3659 9.97904C70.3659 9.88307 70.4299 9.86707 70.5259 9.91506C70.6058 9.96304 70.8138 9.93105 70.9577 9.85107C71.3576 9.62716 71.6455 9.64316 71.6455 9.86708ZM69.0864 9.99503C69.0864 10.075 69.0544 10.155 69.0224 10.155C68.9744 10.155 68.8945 10.075 68.8465 9.99503C68.7985 9.89906 68.8305 9.83508 68.9105 9.83508C69.0064 9.83508 69.0864 9.89906 69.0864 9.99503ZM70.126 10.3149C70.174 10.3949 70.11 10.4749 69.9661 10.4749C69.8221 10.4749 69.7581 10.3949 69.8061 10.3149C69.8541 10.2189 69.9341 10.155 69.9661 10.155C69.9981 10.155 70.078 10.2189 70.126 10.3149ZM11.5072 10.7308C11.5072 10.8587 11.4272 10.9227 11.3472 10.8747C11.2513 10.8107 11.2193 10.6988 11.2673 10.6188C11.4112 10.3949 11.5072 10.4429 11.5072 10.7308ZM10.9154 10.7468C10.8034 10.7788 10.6115 10.7788 10.5155 10.7468C10.4036 10.6988 10.4835 10.6668 10.7075 10.6668C10.9314 10.6668 11.0114 10.6988 10.9154 10.7468ZM12.2269 10.8107C12.4189 11.1146 12.1469 11.1786 11.875 10.9067C11.6191 10.6508 11.6191 10.6348 11.859 10.6348C12.003 10.6348 12.1789 10.7148 12.2269 10.8107ZM13.1546 10.9707C13.2186 11.2266 13.2026 11.2586 13.0106 11.0986C12.7547 10.8907 12.7067 10.6348 12.9307 10.6348C13.0106 10.6348 13.1066 10.7787 13.1546 10.9707ZM9.58787 10.9547C9.58787 11.0347 9.55588 11.1146 9.52389 11.1146C9.47591 11.1146 9.39594 11.0347 9.34796 10.9547C9.29998 10.8587 9.33196 10.7947 9.41193 10.7947C9.5079 10.7947 9.58787 10.8587 9.58787 10.9547ZM14.4661 10.9547C14.69 11.0666 14.5941 11.0826 14.1462 11.0027C13.7944 10.9547 13.4745 10.8907 13.4425 10.8587C13.2985 10.7308 14.1622 10.8267 14.4661 10.9547ZM15.4258 11.1146C15.4737 11.1946 15.4418 11.2746 15.3618 11.2746C15.2658 11.2746 15.1859 11.1946 15.1859 11.1146C15.1859 11.0187 15.2178 10.9547 15.2498 10.9547C15.2978 10.9547 15.3778 11.0187 15.4258 11.1146ZM49.8133 13.9936C49.8613 14.0736 49.7974 14.1535 49.6694 14.1535C49.5255 14.1535 49.4135 14.0736 49.4135 13.9936C49.4135 13.8976 49.4775 13.8336 49.5574 13.8336C49.6534 13.8336 49.7654 13.8976 49.8133 13.9936ZM20.8318 15.0012C20.8798 15.1292 20.8158 15.2252 20.7039 15.2252C20.5919 15.2252 20.5279 15.1292 20.5759 15.0012C20.6239 14.8893 20.6719 14.7933 20.7039 14.7933C20.7358 14.7933 20.7838 14.8893 20.8318 15.0012ZM19.3443 15.1932C19.3443 15.4651 18.8965 15.513 18.5446 15.2571C18.3527 15.1292 18.4007 15.0972 18.7526 15.1612C18.9925 15.1932 19.1844 15.1612 19.1844 15.0972C19.1844 15.0172 19.2164 14.9532 19.2644 14.9532C19.3124 14.9532 19.3443 15.0652 19.3443 15.1932ZM22.0314 15.2571C22.4632 15.625 22.4792 15.753 22.0634 15.641C21.8714 15.593 21.7755 15.513 21.8235 15.4651C21.8554 15.4171 21.8235 15.2891 21.7275 15.1612C21.4716 14.8573 21.6315 14.9053 22.0314 15.2571ZM21.5036 15.4011C21.4556 15.4491 21.3276 15.4011 21.2157 15.2891C21.0717 15.1292 21.0877 15.1132 21.3116 15.2091C21.4716 15.2571 21.5515 15.3531 21.5036 15.4011ZM33.3393 15.737C33.2433 15.8169 32.9394 15.577 32.9394 15.4171C32.9394 15.3371 33.0354 15.3531 33.1634 15.4651C33.2913 15.577 33.3553 15.705 33.3393 15.737ZM23.2629 15.593C22.8311 15.7849 22.5752 15.7849 22.8631 15.593C22.991 15.513 23.2149 15.4491 23.3429 15.4491C23.5028 15.4491 23.4709 15.497 23.2629 15.593ZM29.3887 15.737C29.5806 15.753 29.7406 15.8169 29.7406 15.8969C29.7406 15.9769 29.5487 16.0248 29.3087 16.0089C29.0528 15.9769 28.8129 16.0249 28.7649 16.1208C28.605 16.3447 28.3011 16.1048 28.3971 15.8489C28.4451 15.721 28.605 15.641 28.7489 15.673C28.8929 15.705 29.1808 15.737 29.3887 15.737ZM32.2037 15.689C32.6196 15.8489 32.4916 16.0728 31.9958 16.0728C31.452 16.0728 31.1961 15.8169 31.6119 15.705C31.7719 15.657 31.9158 15.625 31.9318 15.609C31.9478 15.609 32.0598 15.641 32.2037 15.689ZM34.139 15.7529C34.091 15.8329 33.9151 15.9129 33.7711 15.8969C33.5472 15.8969 33.5632 15.8649 33.8191 15.7529C34.107 15.6357 34.2136 15.6357 34.139 15.7529ZM30.9562 15.9449C31.0361 16.0569 30.9562 16.0888 30.7322 16.0409C30.5403 15.9929 30.3644 16.0249 30.3324 16.1208C30.2684 16.3128 29.9005 16.1368 29.9005 15.8969C29.9005 15.689 30.8122 15.721 30.9562 15.9449ZM37.3059 16.1528C37.5458 16.1848 37.8497 16.2008 37.9776 16.2168C38.1056 16.2168 38.2175 16.2968 38.2175 16.3607C38.2175 16.5047 37.002 16.5047 36.842 16.3607C36.7941 16.2968 36.6181 16.3288 36.4582 16.4247C36.2342 16.5687 36.1063 16.5687 35.8824 16.3927C35.6425 16.1688 35.6425 16.1528 35.9943 16.0568C36.2023 15.9929 36.4902 15.9929 36.6181 16.0409C36.7461 16.0888 37.05 16.1368 37.3059 16.1528ZM47.7021 16.0249C47.5901 16.0569 47.3982 16.0569 47.3023 16.0249C47.1903 15.9769 47.2703 15.9449 47.4942 15.9449C47.7181 15.9449 47.7981 15.9769 47.7021 16.0249ZM52.2925 16.8086C53.0122 16.8565 53.1881 16.8885 52.9802 16.9685C52.8682 17.0165 52.8043 17.1445 52.8363 17.2404C52.8523 17.3524 52.8522 17.3844 52.8203 17.3044C52.7723 17.2404 52.6443 17.1924 52.5164 17.1924C52.3884 17.1924 52.2925 17.1285 52.2925 17.0645C52.2925 16.9845 51.6687 16.9365 50.917 16.9685C50.1652 16.9845 49.5894 16.9525 49.6374 16.9045C49.6854 16.8566 49.9253 16.8086 50.1652 16.7926C50.4211 16.7606 50.757 16.6966 50.917 16.6326C51.1409 16.5367 51.1889 16.5527 51.1089 16.6806C51.0449 16.7926 51.0609 16.8725 51.1409 16.8725C51.2368 16.8725 51.3488 16.7446 51.4128 16.5847C51.5087 16.3447 51.5407 16.3447 51.7007 16.5527C51.8126 16.6806 52.0685 16.8086 52.2925 16.8086ZM53.7319 16.7126C53.7319 16.8086 53.8279 16.8726 53.9399 16.8406C54.0518 16.8086 54.1478 16.8566 54.1638 16.9525C54.1798 17.0325 53.9719 17.1285 53.7159 17.1445C53.2201 17.1924 53.2041 17.1764 53.3481 16.8086C53.46 16.5207 53.7319 16.4567 53.7319 16.7126ZM35.9783 16.8725C35.9783 16.9525 35.9464 17.0325 35.9144 17.0325C35.8664 17.0325 35.7864 16.9525 35.7384 16.8725C35.6904 16.7766 35.7224 16.7126 35.8024 16.7126C35.8984 16.7126 35.9783 16.7766 35.9783 16.8725ZM55.0115 16.9365C55.0115 16.9845 54.9475 17.0645 54.8515 17.1125C54.7716 17.1604 54.6916 17.1284 54.6916 17.0485C54.6916 16.9525 54.7716 16.8725 54.8515 16.8725C54.9475 16.8725 55.0115 16.9045 55.0115 16.9365ZM55.4913 17.1924C55.4913 17.2724 55.4273 17.3524 55.3314 17.3524C55.2514 17.3524 55.1714 17.2724 55.1714 17.1924C55.1714 17.0965 55.2514 17.0325 55.3314 17.0325C55.4273 17.0325 55.4913 17.0965 55.4913 17.1924Z" fill="#071321"/>
<path fill-rule="evenodd" clip-rule="evenodd" d="M20.47 5.85434C20.47 5.93431 20.5499 6.01428 20.6459 6.01428C20.7259 6.01428 20.7579 5.93431 20.7099 5.85434C20.6619 5.75837 20.5819 5.6944 20.534 5.6944C20.502 5.6944 20.47 5.75837 20.47 5.85434Z" fill="#071321"/>
<path fill-rule="evenodd" clip-rule="evenodd" d="M20.9497 5.85432C20.9497 6.06225 21.1416 6.15822 21.3656 6.06226C21.7014 5.9343 21.6375 5.75836 21.2696 5.75836C21.0937 5.75836 20.9497 5.80634 20.9497 5.85432Z" fill="#071321"/>
<path fill-rule="evenodd" clip-rule="evenodd" d="M9.514 6.01425C9.46602 6.09422 9.498 6.17419 9.57798 6.17419C9.67394 6.17419 9.75391 6.09422 9.75391 6.01425C9.75391 5.91829 9.72192 5.85431 9.68993 5.85431C9.64195 5.85431 9.56198 5.91829 9.514 6.01425Z" fill="#071321"/>
<path fill-rule="evenodd" clip-rule="evenodd" d="M12.089 6.09422C12.1529 6.22218 12.3289 6.33414 12.4888 6.33414C12.6488 6.33414 12.7927 6.22218 12.7927 6.09422C12.7927 5.95027 12.6488 5.85431 12.3929 5.85431C12.105 5.85431 12.025 5.91829 12.089 6.09422Z" fill="#071321"/>
<path fill-rule="evenodd" clip-rule="evenodd" d="M23.4448 6.06225C23.4928 6.2222 23.5888 6.30216 23.6367 6.25418C23.6847 6.20619 23.6367 6.07825 23.5248 5.96629C23.3648 5.82234 23.3489 5.83834 23.4448 6.06225Z" fill="#071321"/>
<path fill-rule="evenodd" clip-rule="evenodd" d="M29.7466 6.03024C29.7466 6.11021 29.8266 6.14221 29.9066 6.09422C30.0026 6.04624 30.0665 5.96627 30.0665 5.91829C30.0665 5.8863 30.0026 5.85431 29.9066 5.85431C29.8266 5.85431 29.7466 5.93428 29.7466 6.03024Z" fill="#071321"/>
<path fill-rule="evenodd" clip-rule="evenodd" d="M8.95416 6.19021C8.95416 6.27019 9.03413 6.30218 9.1141 6.2542C9.21007 6.20621 9.27405 6.12625 9.27405 6.07826C9.27405 6.04627 9.21007 6.01428 9.1141 6.01428C9.03413 6.01428 8.95416 6.09425 8.95416 6.19021Z" fill="#071321"/>
<path fill-rule="evenodd" clip-rule="evenodd" d="M9.97776 6.20625C9.81782 6.44616 9.97776 6.49413 10.4896 6.35018C10.7455 6.27021 10.8894 6.19024 10.7935 6.17425C10.7135 6.15826 10.5056 6.12627 10.3616 6.09428C10.2017 6.06229 10.0257 6.11029 9.97776 6.20625Z" fill="#071321"/>
<path fill-rule="evenodd" clip-rule="evenodd" d="M13.0486 6.28615C12.9526 6.51007 12.9686 6.52606 13.1285 6.38212C13.2405 6.27016 13.2885 6.14219 13.2405 6.09421C13.1925 6.04623 13.0966 6.12621 13.0486 6.28615Z" fill="#071321"/>
<path fill-rule="evenodd" clip-rule="evenodd" d="M34.033 6.12625C33.8731 6.15824 33.7451 6.2542 33.7451 6.33417C33.7451 6.39814 33.8891 6.43014 34.065 6.38216C34.2409 6.33418 34.3849 6.23821 34.3849 6.15824C34.3849 6.07826 34.3689 6.03027 34.3529 6.03027C34.3209 6.04627 34.177 6.07827 34.033 6.12625Z" fill="#071321"/>
<path fill-rule="evenodd" clip-rule="evenodd" d="M30.0665 6.33414C30.0665 6.43011 30.1784 6.49409 30.3064 6.49409C30.4343 6.49409 30.5463 6.46209 30.5463 6.43011C30.5463 6.39812 30.4343 6.33414 30.3064 6.27016C30.1784 6.22218 30.0665 6.25417 30.0665 6.33414Z" fill="#071321"/>
<path fill-rule="evenodd" clip-rule="evenodd" d="M39.7431 6.3342C39.3112 6.43017 39.2952 6.44617 39.5991 6.54214C39.791 6.60611 40.0469 6.6221 40.1749 6.57412C40.3188 6.51014 40.4628 6.59011 40.5108 6.71807C40.6547 7.06994 41.0546 7.03794 41.1505 6.67008C41.1985 6.46215 41.1665 6.3822 41.0226 6.44617C40.8946 6.47816 40.6707 6.44617 40.5108 6.38219C40.3508 6.30222 40.015 6.27023 39.7431 6.3342Z" fill="#071321"/>
<path fill-rule="evenodd" clip-rule="evenodd" d="M41.6623 6.49411C41.6143 6.57408 41.6783 6.65405 41.8222 6.65405C41.9662 6.65405 42.0302 6.57408 41.9822 6.49411C41.9342 6.39814 41.8542 6.33417 41.8222 6.33417C41.7903 6.33417 41.7103 6.39814 41.6623 6.49411Z" fill="#071321"/>
<path fill-rule="evenodd" clip-rule="evenodd" d="M38.0636 6.65402C37.9357 6.73399 37.9037 6.81396 37.9837 6.81396C38.0796 6.81396 38.2556 6.73399 38.3835 6.65402C38.5115 6.57405 38.5595 6.49408 38.4635 6.49408C38.3835 6.49408 38.1916 6.57405 38.0636 6.65402Z" fill="#071321"/>
<path fill-rule="evenodd" clip-rule="evenodd" d="M42.542 6.62204C42.542 6.70201 42.654 6.76599 42.7819 6.76599C42.9099 6.76599 43.0218 6.70201 43.0218 6.62204C43.0218 6.55806 42.9099 6.49408 42.7819 6.49408C42.654 6.49408 42.542 6.55806 42.542 6.62204Z" fill="#071321"/>
<path fill-rule="evenodd" clip-rule="evenodd" d="M43.4696 6.82996C43.2297 7.08586 43.2297 7.11786 43.6135 7.21382C44.0294 7.30979 44.3813 7.14985 44.0134 7.0219C43.9174 6.97392 43.8535 6.87794 43.9014 6.81397C44.0774 6.54206 43.7415 6.55805 43.4696 6.82996Z" fill="#071321"/>
<path fill-rule="evenodd" clip-rule="evenodd" d="M41.8223 6.97391C41.7743 7.05388 41.8383 7.13385 41.9822 7.13385C42.1262 7.13385 42.1901 7.05388 42.1422 6.97391C42.0942 6.87794 42.0142 6.81396 41.9822 6.81396C41.9502 6.81396 41.8703 6.87794 41.8223 6.97391Z" fill="#071321"/>
<path fill-rule="evenodd" clip-rule="evenodd" d="M45.5809 7.11786C45.5809 7.21382 45.6448 7.32578 45.7408 7.37376C45.8368 7.42174 45.8528 7.35776 45.8048 7.22981C45.6928 6.94191 45.5809 6.89394 45.5809 7.11786Z" fill="#071321"/>
<path fill-rule="evenodd" clip-rule="evenodd" d="M46.4926 7.2618C46.5406 7.50172 46.7325 7.59769 47.1964 7.64567C48.14 7.72564 47.9161 7.27779 46.9085 7.06986C46.4606 6.9739 46.4126 6.9899 46.4926 7.2618Z" fill="#071321"/>
<path fill-rule="evenodd" clip-rule="evenodd" d="M48.3958 7.30978C48.4438 7.40575 48.3958 7.5497 48.2839 7.62967C48.1239 7.72563 48.1559 7.77362 48.4278 7.77362C48.6677 7.77362 48.7797 7.67765 48.7797 7.45373C48.7797 7.2778 48.6677 7.13385 48.5238 7.13385C48.3958 7.13385 48.3319 7.21382 48.3958 7.30978Z" fill="#071321"/>
<path fill-rule="evenodd" clip-rule="evenodd" d="M48.9397 7.27783C48.9397 7.46976 49.4035 7.64569 49.6115 7.51774C49.7074 7.45376 49.6914 7.3578 49.5635 7.27783C49.2756 7.10189 48.9397 7.10189 48.9397 7.27783Z" fill="#071321"/>
<path fill-rule="evenodd" clip-rule="evenodd" d="M49.9953 7.46974C49.8193 7.64567 49.7394 7.82163 49.7873 7.8856C49.8513 7.93358 49.8993 7.9016 49.8993 7.80563C49.8993 7.69367 49.9793 7.61369 50.0592 7.61369C50.1552 7.61369 50.2032 7.70967 50.1872 7.80563C50.1552 7.91759 50.3151 8.02955 50.5231 8.06153C50.779 8.10952 50.8589 8.06153 50.779 7.91758C50.683 7.77363 50.763 7.75764 51.0669 7.83761C51.2908 7.88559 51.5307 7.8696 51.5787 7.77363C51.6267 7.69366 51.7546 7.61369 51.8346 7.61369C51.9306 7.61369 51.9626 7.67767 51.9146 7.74165C51.8026 7.91759 52.5863 8.34943 52.7303 8.20549C52.7783 8.14151 52.7143 8.09352 52.5703 8.09352C52.4264 8.09352 52.2345 7.96557 52.1545 7.80563C52.0425 7.58171 51.7866 7.50173 51.2428 7.46974C50.811 7.45374 50.4431 7.38977 50.3791 7.30979C50.3311 7.24582 50.1552 7.30979 49.9953 7.46974Z" fill="#071321"/>
<path fill-rule="evenodd" clip-rule="evenodd" d="M20.31 18.5058C20.31 18.5857 20.39 18.6177 20.4859 18.5538C20.5819 18.5058 20.7259 18.5537 20.8058 18.6657C20.9178 18.8416 20.9498 18.8257 20.9498 18.6017C20.9498 18.4418 20.8218 18.3298 20.6299 18.3298C20.4539 18.3298 20.31 18.4098 20.31 18.5058Z" fill="#071321"/>
<path fill-rule="evenodd" clip-rule="evenodd" d="M69.8922 19.3535C70.0361 19.5294 70.1481 19.5774 70.1801 19.4654C70.2121 19.3694 70.308 19.3215 70.388 19.3854C70.468 19.4334 70.8358 19.4974 71.2037 19.5294C72.2273 19.6254 71.6995 19.3215 70.6119 19.1935C69.7002 19.0816 69.6683 19.0975 69.8922 19.3535Z" fill="#071321"/>
<path fill-rule="evenodd" clip-rule="evenodd" d="M37.5039 19.7534C37.5519 19.8493 37.376 19.8813 37.0401 19.8173C36.7522 19.7693 36.4643 19.8013 36.4003 19.8973C36.3523 19.9933 36.6082 20.0572 37.104 20.0413C37.7598 20.0413 37.8718 19.9933 37.7278 19.8173C37.5199 19.5774 37.36 19.5294 37.5039 19.7534Z" fill="#071321"/>
<path fill-rule="evenodd" clip-rule="evenodd" d="M45.5809 19.9132C45.5809 20.0092 45.7248 20.0892 45.9168 20.0892C46.0927 20.0892 46.1887 20.1532 46.1407 20.2491C46.0927 20.3291 46.1087 20.4091 46.2047 20.4091C46.2846 20.4091 46.4126 20.3291 46.4606 20.2491C46.5085 20.1532 46.6365 20.0892 46.7165 20.0892C46.8124 20.0892 46.8284 20.1532 46.7804 20.2491C46.6365 20.489 46.8444 20.4411 47.1003 20.2011C47.2763 20.0092 47.2123 19.9772 46.7484 19.9612C46.4286 19.9452 46.0447 19.8972 45.8848 19.8493C45.7088 19.7853 45.5809 19.8173 45.5809 19.9132Z" fill="#071321"/>
<path fill-rule="evenodd" clip-rule="evenodd" d="M51.1788 20.2491C51.1788 20.441 51.2908 20.569 51.4667 20.569C51.7066 20.569 51.7066 20.537 51.4987 20.3931C51.3068 20.2651 51.3388 20.2491 51.6427 20.2811C51.8826 20.3131 52.0585 20.2331 52.0905 20.0892C52.1545 19.8972 52.1385 19.8972 52.0105 20.0732C51.8986 20.2171 51.8186 20.2331 51.7546 20.1052C51.5627 19.8173 51.1788 19.9132 51.1788 20.2491Z" fill="#071321"/>
<path fill-rule="evenodd" clip-rule="evenodd" d="M42.9418 20.2491C42.9898 20.3291 43.1497 20.4091 43.2777 20.4091C43.4057 20.4091 43.5016 20.3291 43.5016 20.2491C43.5016 20.1531 43.3577 20.0892 43.1657 20.0892C42.9898 20.0892 42.8938 20.1531 42.9418 20.2491Z" fill="#071321"/>
<path fill-rule="evenodd" clip-rule="evenodd" d="M61.3032 20.2331C60.9993 20.457 61.1592 20.649 61.671 20.681C62.0389 20.713 62.2148 20.665 62.2148 20.505C62.2148 20.2811 61.5271 20.0732 61.3032 20.2331Z" fill="#071321"/>
<path fill-rule="evenodd" clip-rule="evenodd" d="M47.4202 20.4091C47.4682 20.489 47.6442 20.569 47.7881 20.569C48.028 20.569 48.028 20.537 47.8201 20.4091C47.5002 20.2011 47.2923 20.2011 47.4202 20.4091Z" fill="#071321"/>
<path fill-rule="evenodd" clip-rule="evenodd" d="M60.3756 20.4091C60.3276 20.4891 60.3596 20.569 60.4396 20.569C60.5356 20.569 60.6155 20.4891 60.6155 20.4091C60.6155 20.3131 60.5836 20.2491 60.5516 20.2491C60.5036 20.2491 60.4236 20.3131 60.3756 20.4091Z" fill="#071321"/>
</svg>
