<svg width="106" height="78" viewBox="0 0 106 78" fill="none" xmlns="http://www.w3.org/2000/svg">
<path fill-rule="evenodd" clip-rule="evenodd" d="M101.522 30.5358C100.99 30.6313 100.497 30.2912 100.543 30.022C100.587 29.7211 100.81 29.5853 100.467 29.4104C100.035 29.1828 100.128 28.7742 99.6508 28.3987C99.3424 28.154 99.4403 27.9632 99.4501 27.5093C99.4501 27.2964 98.903 27.4408 98.6313 27.4188C97.9643 27.3637 98.5909 26.4511 98.9385 26.122C99.3852 25.7012 99.816 25.9703 100.392 25.7024C100.969 25.4345 99.8687 25.3929 100.443 24.8791C100.587 24.7507 101.079 24.4766 101.022 24.3225C100.812 23.7634 101.446 23.2496 100.673 23.0404C100.474 22.9878 100.386 22.8227 100.189 22.7627C99.5272 22.5584 99.34 22.534 99.2408 22.9707C99.0658 23.739 99.8466 23.6435 99.608 24.2307C99.4746 24.5623 98.6546 24.6296 98.1944 24.4607C97.5739 24.232 97.547 24.0326 96.7808 23.8491C96.4381 23.7671 96.4761 23.5396 96.4516 23.2533C96.9656 23.1114 97.2667 23.1652 97.3242 22.797C97.4038 22.2856 97.4295 22.2477 97.1627 22.2171C96.6731 22.1584 96.6021 22.2318 96.4626 22.3664C96.3231 22.5009 96.2717 22.5988 96.3329 22.7334C96.4553 23.0184 96.1322 23.0441 96.0086 23.2582C95.3795 23.8527 95.6708 23.6374 95.1335 23.772C95.0295 23.7977 94.9829 23.8515 95.0111 23.9151C94.934 23.9849 94.1005 24.7959 93.8606 24.4938C93.1887 23.6448 93.0737 23.5946 93.1006 23.2704C93.1067 23.2019 93.1557 22.5902 93.0823 22.4997C93.0137 22.5156 92.884 22.5328 92.8852 22.5487C92.8913 22.8117 92.5107 22.9768 92.3124 23.186C92.2574 23.2435 91.7299 23.3157 91.3958 23.2117C90.7593 23.016 90.7447 22.9976 90.6492 23.0392C90.3604 23.1689 89.7411 23.1615 89.8414 23.3989C89.9288 23.3629 90.0244 23.3517 90.1177 23.3666C90.211 23.3815 90.2984 23.4219 90.3702 23.4833C90.2283 23.5419 90.069 23.5419 89.9271 23.4833C89.817 23.4392 89.8782 23.3769 89.7937 23.4282C89.3458 23.6998 89.0594 23.6362 88.3251 23.6081C88.1916 23.5053 88.1011 23.3952 88.1451 23.2655C88.3826 23.2337 88.3899 23.1089 88.4939 23.0209C88.7803 22.7884 88.6163 22.9866 90.0116 22.682C90.2784 22.6245 90.6712 22.8875 90.8683 22.5242C90.9539 22.37 91.129 22.3554 91.8559 22.1902C92.5327 22.2086 92.835 22.2489 92.7469 22.085C92.7836 21.8697 92.6857 21.6483 92.8803 21.4428C93.4103 21.3755 93.9304 21.3437 94.409 21.5321C94.4665 21.5541 94.6611 21.4611 94.6537 21.4097C94.6267 21.2831 94.6151 21.1537 94.6195 21.0244C94.721 20.3944 94.196 20.6574 94.2719 20.2463C94.3943 19.5637 94.5644 19.5123 94.256 19.4671C94.1835 19.4561 94.1096 19.4611 94.0393 19.4817C93.8521 19.7619 93.5681 20.0322 93.7713 20.3491C93.9047 20.5595 93.0786 20.9791 92.3687 20.8531C92.2684 20.7699 92.3381 20.814 91.1106 20.6341C91.101 20.5785 91.0766 20.5264 91.04 20.4834C91.0034 20.4403 90.9559 20.4079 90.9025 20.3895C90.9564 19.9711 90.5819 20.332 90.2759 20.3528C89.7864 20.3858 88.8415 20.3968 90.0764 20.6867C90.0483 20.8568 90.364 20.9424 90.4301 21.0929C90.4852 21.2152 90.3775 21.3718 90.1584 21.4207C89.7325 21.5162 88.2541 21.6789 88.1256 21.6263C87.9971 21.5737 87.7792 21.5418 87.7914 21.2482C87.8612 19.642 88.4389 19.7497 87.8208 19.4903C87.1734 19.2224 86.7108 19.4903 86.4745 19.1294C86.2653 18.8089 85.4269 18.256 86.2959 17.1953C86.5406 16.9005 87.0877 16.7561 87.3386 16.476C87.4273 16.4201 87.5244 16.3788 87.6262 16.3537C88.1329 16.1653 88.1158 16.7549 88.549 16.5445C89.194 16.2301 89.298 16.3219 89.8427 16.5922C90.1878 16.7647 90.3922 16.4833 90.6994 16.191C91.0066 15.8986 90.1645 15.8766 90.2979 15.5034C90.3812 15.2698 89.5893 15.8863 89.2748 15.3481C89.1922 15.2374 89.1414 15.1063 89.1279 14.9688C89.1463 14.6385 88.9333 14.3303 88.8403 14.0122C88.8219 13.9547 88.5233 13.9204 88.4376 14.0036C88.0436 14.3865 87.3362 13.9253 87.0057 13.8434C86.5798 13.7369 86.3705 13.8005 85.9764 13.6513C85.5823 13.5021 85.5848 13.8348 84.8529 13.7528C84.6816 13.7333 84.5249 13.688 84.4968 13.5975C84.4142 13.3912 84.3642 13.1732 84.3487 12.9515C84.3487 10.9734 84.7428 11.3612 84.438 10.889C84.2055 10.5318 83.4149 10.889 82.7748 10.6333C82.7395 10.6169 82.701 10.6086 82.6622 10.6089C82.3048 10.6492 82.306 10.8841 81.5607 10.681C81.2498 10.5966 81.1605 10.292 80.5669 10.4364C79.9966 10.5734 80.048 10.681 79.7102 11.3221C79.5878 11.5667 79.0982 11.5887 78.9685 11.5251C77.386 10.7508 78.2342 11.4664 77.0801 11.694C76.6933 11.771 76.7545 11.9142 76.0606 11.8383C75.5796 11.7845 75.7265 12.2396 75.8329 12.4916C75.8807 12.6029 76.1401 12.6775 76.823 12.8427C77.2906 12.9552 77.7899 12.7778 78.4802 13.0127C78.7702 13.1118 79.4409 12.8414 79.6612 13.2941C79.8815 13.7467 78.6099 13.2941 79.0285 13.8054C79.2035 14.0183 79.1864 14.0403 79.3846 14.0122C79.6098 13.9804 79.6759 13.8666 79.8252 13.7969C80.0773 13.6745 80.5338 13.7161 80.666 13.8764C80.8655 14.1211 81.0577 14.3535 81.5129 14.5015C81.5485 14.5158 81.5798 14.5391 81.6036 14.5691C81.6275 14.5992 81.643 14.6349 81.6488 14.6728C81.7712 15.3933 80.644 15.1352 81.0222 15.4765C81.0613 15.5108 81.1029 15.5805 81.0736 15.5989C80.8288 15.7212 80.7884 15.9096 80.6171 16.0564C80.4457 16.2032 79.9635 16.2289 79.775 16.0857C79.6808 16.016 79.6355 15.9194 79.5168 15.8668C79.1729 15.7163 79.3369 15.4202 79.4262 15.3261C79.5792 15.1658 79.5058 15.1413 78.4471 14.7719C77.9894 14.6116 78.1412 14.4257 78.0959 13.8593C78.0885 13.7687 77.8144 13.7174 77.7287 13.77C76.9467 14.2666 76.6187 13.5681 76.7215 14.9603C76.7398 15.1939 77.4644 15.216 77.5929 15.2049C78.0408 15.1829 78.8632 15.3628 78.6625 15.5719C78.5401 15.7041 78.2807 15.9181 78.1975 16.027C78.1142 16.1359 79.086 16.9286 80.0553 16.6962C81.1005 16.4454 81.8593 16.5372 82.2583 16.6962C83.0159 17.0045 83.4822 16.8883 83.6657 17.1855C84.5298 18.5312 82.4321 18.4199 82.5006 19.2175C82.5202 19.4475 82.4296 20.2219 82.3672 20.3185C82.262 20.491 81.7553 20.5962 81.3098 20.4922C81.0209 20.4298 81.1433 20.2109 81.1433 19.9601C81.1727 19.1918 82.0404 19.2762 81.606 18.6584C81.0736 17.9024 81.7589 17.8559 81.5509 17.5171C80.9867 16.5922 80.4494 17.3886 79.5462 17.106C79.31 17.1403 79.064 17.1623 78.8437 17.2149C78.5169 17.2944 78.4533 17.555 77.807 17.5012C77.397 17.4657 76.976 17.3042 76.8084 17.4779C76.6407 17.6516 76.3861 17.8009 76.3286 18.0015C76.2246 18.0015 76.1034 18.0492 76.0239 17.9624C75.7105 17.6247 75.4119 18.5606 74.363 17.9305C74.5099 17.7556 74.5258 17.4804 74.2003 17.2418C73.8649 17.1109 73.6128 17.0583 73.6691 16.8552C73.86 16.1665 74.0167 16.6681 74.4965 16.6106C74.9579 16.558 75.3703 16.4882 75.5 16.2044C75.5319 16.1335 75.7987 16.0001 75.702 15.9181C75.5221 15.7677 75.3666 16.0784 74.707 16.0466C74.4286 16.0124 74.1465 16.0219 73.8711 16.0747C73.8037 16.0931 73.6348 15.994 73.6459 15.9426C73.6569 15.8912 73.7523 15.8019 73.7107 15.7542C73.5883 15.6184 73.4525 15.4924 73.5149 15.3322C73.5418 15.2649 72.9715 15.271 73.0829 15.3958C73.1943 15.5206 73.3277 15.616 73.1074 15.7481C72.9752 15.8264 72.9164 15.9389 72.7953 16.0258C72.5884 16.1751 71.9067 16.1065 71.8541 15.8423C71.7121 15.1144 71.6497 14.975 72.0181 14.8526C72.2739 14.7682 72.5077 14.7499 72.5077 14.5982C72.5077 14.3694 72.7989 14.2825 72.821 14.1822C72.8393 14.1052 72.5138 13.825 72.3645 13.8311C72.1341 13.832 71.9055 13.7905 71.6901 13.7088C71.3229 13.6036 70.5409 13.9155 70.5519 13.2831C70.5519 12.9723 70.5898 12.9026 70.7526 12.8781C71.0096 12.8378 71.0268 12.9919 71.1332 13.0763C71.4111 13.2978 71.6571 13.0042 71.9018 12.8402C72.1907 12.6494 72.0989 12.5956 72.056 12.0903C72.0279 11.7735 71.4686 12.0206 71.2471 11.6781C69.9865 9.72071 69.1493 11.1581 68.8825 10.029C68.7932 9.66199 68.109 9.81246 67.7664 9.61427C67.4016 9.41034 66.9825 9.32483 66.567 9.36961C66.4077 9.36222 66.2495 9.3397 66.0945 9.30232C65.452 9.22158 65.9391 9.66933 64.4558 9.99718C64.0225 10.0938 64.129 10.2003 64.3542 11.0223C64.3738 11.0921 64.7213 11.3661 64.938 11.1447C64.9735 11.1055 64.9661 11.0444 65.02 11.0223C65.0339 11.0161 65.049 11.0127 65.0643 11.0123C65.0796 11.0119 65.0948 11.0146 65.1091 11.0202C65.1233 11.0258 65.1363 11.0341 65.1473 11.0448C65.1582 11.0555 65.167 11.0682 65.173 11.0823C65.2953 11.5092 66.0909 11.2205 66.4311 11.4591C66.6893 11.6377 66.4911 11.9374 66.2304 11.9582C64.4227 12.1001 65.2513 11.2805 64.375 12.1356C64.2526 12.2579 64.4031 12.22 64.9147 12.4133C65.4691 12.62 65.6968 13.8593 64.9147 13.7467C63.8903 13.5987 63.8695 13.5522 63.5048 13.6244C62.8011 13.7638 62.7998 13.3296 61.7706 13.2439C61.3226 13.2072 61.4132 12.9051 61.3887 12.8158C61.2773 12.4231 60.5381 12.4377 60.4096 12.4206C60.193 12.3937 60.2077 12.4121 59.9201 11.8689C59.8797 11.793 60.3203 11.7698 60.3044 11.8212C60.2297 12.0658 60.7437 12.1148 60.8784 12.2946C61.1329 12.6396 61.6127 12.1258 62.6713 12.2799C62.8011 12.2983 63.0764 12.2151 62.8011 12.0805C62.6212 11.9937 62.3947 11.9313 62.3201 11.793C62.1414 11.4652 61.0277 11.7221 60.9041 11.2266C60.8233 10.9061 61.1268 10.637 61.2639 10.3483C61.3667 10.1293 61.7167 9.99229 62.0386 9.85894C62.068 9.84671 62.1341 9.75496 62.1071 9.73661C61.7106 9.55555 61.5209 9.46258 61.4597 9.53109C61.1231 9.91032 60.3264 9.89075 60.2566 10.2945C60.2566 10.3165 60.1342 10.336 60.0571 10.3483C59.9519 10.3666 59.723 9.90665 59.6667 9.81246C59.6349 9.76108 59.4513 9.75496 59.4513 9.85772C59.4513 10.0351 59.5933 10.6296 58.717 10.4694C58.5885 10.4449 57.4368 10.1538 57.4111 9.68033C57.3964 9.40019 57.181 9.13106 57.252 8.84235C57.2716 8.76161 57.1602 8.59768 57.0954 8.5304C56.2717 8.80442 57.0954 9.93112 56.1848 9.77331C55.4333 9.64363 54.8557 9.58736 54.9352 9.19712C54.9511 9.12127 55.2461 8.92309 54.7112 8.84969C54.1091 8.7665 54.0283 8.7665 53.8974 8.83378C53.5559 9.01239 54.2902 9.06622 53.928 9.42833C53.7383 9.61794 53.6403 9.72927 53.7982 9.85283C53.9561 9.97638 54.0577 10.1183 54.3355 10.2003C54.5795 10.2565 54.7971 10.3941 54.9523 10.5905C55.169 10.9159 56.4014 11.152 55.1616 11.5692C54.7945 11.6915 54.2364 11.5361 53.7468 11.7111C53.6183 11.7576 52.9072 11.8334 52.66 11.5887C52.5854 11.5129 52.097 11.4077 52.1007 11.2695C52.1007 11.0554 51.9489 10.9025 51.6222 10.7728C51.4924 10.7214 50.8132 10.2969 51.6136 9.9299C51.8902 9.80756 51.3407 9.50907 51.0274 9.6314C50.7086 9.76303 50.3675 9.83238 50.0226 9.8357C49.5685 9.84549 49.2784 10.1207 49.3751 10.363C49.6138 10.9746 49.3139 10.9502 49.6101 11.4481C49.7129 11.623 49.0275 11.5704 49.1879 11.793C49.418 12.1148 49.3372 12.6738 48.6836 12.6653C48.2027 12.6592 47.7119 12.7448 47.2346 12.6384C47.1731 12.6428 47.1135 12.6616 47.0608 12.6934C47.4512 13.2439 47.2737 13.6611 47.5626 13.8911C47.8514 14.1211 48.3605 14.3266 48.046 14.7107C47.7315 15.0948 47.3484 15.4447 46.6177 15.545C45.4245 15.7016 45.5346 15.2661 44.5371 15.2649C43.7392 15.2649 44.2532 14.7755 43.6706 14.8379C43.3243 14.8722 42.7148 14.9126 42.8139 15.0899C42.8531 15.1572 43.6462 15.7616 42.6254 15.7958C42.1946 15.8093 41.7687 15.8142 41.5925 15.5573C41.5044 15.4288 40.8582 14.7352 40.431 14.9456C40.1863 15.0679 41.0613 15.0569 40.8153 15.3958C40.5865 15.709 39.3638 15.5695 39.9109 15.0777C39.1766 14.9554 39.2989 14.537 39.4923 14.4122C39.7249 14.263 40.1618 14.389 40.4163 14.4122C40.7713 14.4477 40.8472 14.3046 41.1201 14.1052C41.3196 13.9608 41.5668 13.9571 41.6182 14.0171C42.0294 14.4942 43.7257 14.3841 43.3133 14.0978C43.1211 13.9645 41.8446 13.3332 43.104 12.9589C43.3585 12.8818 43.7857 12.8366 43.9142 12.8109C44.1222 12.7656 44.2532 12.5589 44.1039 12.4781C42.9534 11.8567 43.9399 11.4309 42.1628 11.2866C41.8385 11.2597 41.8238 11.1116 41.5949 10.752C41.5433 10.7301 41.4877 10.7188 41.4316 10.7188C41.3754 10.7188 41.3198 10.7301 41.2682 10.752C40.8643 11.1116 41.0234 11.3025 40.5999 11.4982C40.5069 11.541 40.5485 11.6291 40.6379 11.6744C41.1776 11.9435 41.0638 11.7392 41.9474 11.9668C42.4443 12.0891 42.3391 12.5699 41.8042 12.6457C41.3661 12.7069 41.4052 12.3668 40.7615 12.4683C39.3479 12.6934 39.704 11.9178 39.0346 10.9795C38.8351 10.6994 38.1473 10.8719 38.3003 11.0113C38.8583 11.5251 39.0689 11.6475 39.1423 11.9423C39.1888 12.1295 39.4727 12.4696 39.4923 12.6298C39.5682 13.2415 39.0175 13.0922 38.758 13.2904C38.6466 13.3736 39.1043 13.5473 38.0237 13.7797C38.2121 13.9143 38.5512 13.8874 38.7849 13.9792C38.9673 14.0501 39.1704 14.2165 39.1141 14.3082C38.9489 14.5725 38.9697 14.6508 38.0408 14.7474C37.6462 14.7923 37.2465 14.7398 36.8769 14.5945C36.6407 14.4979 36.8769 14.3498 36.8084 14.2275C36.7166 14.0636 36.9026 13.8605 36.5795 13.8385C36.4326 13.8311 36.2393 13.8018 35.784 13.6354C35.7901 13.6452 35.784 13.6611 35.7411 13.6807C35.7306 13.6861 35.722 13.6947 35.7165 13.7052C35.7111 13.7157 35.709 13.7276 35.7105 13.7394C35.7105 13.8213 35.8501 13.8336 35.9455 13.8617C36.3604 14.0134 36.4547 14.2446 36.4852 14.4893C36.5293 14.8563 34.6274 14.745 34.352 14.0281C34.2199 13.6819 33.6997 13.792 33.5443 13.5779C33.1661 13.0555 33.1906 13.0139 33.2995 12.8317C33.3448 12.7546 33.7095 12.5735 33.5516 12.4182C33.3289 12.198 33.439 11.8848 33.1845 11.9044C32.8528 11.9288 32.5799 11.7441 32.2384 11.8297C32.1442 11.8542 32.083 11.8518 32.0316 11.8016C31.7733 11.5472 31.2764 11.4211 30.7049 11.2511C30.5861 11.2266 30.4625 11.2487 30.3597 11.313C30.2569 11.3773 30.1828 11.4786 30.1529 11.5961C30.1235 11.7294 30.7404 11.7918 30.4466 11.8713C30.3096 11.908 30.1199 11.9093 30.0636 12.0059C29.9326 12.2298 29.623 12.302 29.213 12.3056C29.0796 12.3056 28.8984 12.5075 29.1799 12.5405C30.1333 12.6628 30.0183 13.0298 30.7587 13.2292C32.1821 13.5962 31.5665 13.7479 31.7525 14.0856C31.7978 14.1688 31.6485 14.3755 32.0536 14.4722C32.7133 14.63 32.8124 14.904 32.794 15.2942C32.794 15.3615 32.8136 15.4007 32.1564 15.7554C32.034 15.824 31.2458 15.857 31.0035 15.4569C30.7404 15.0239 30.4234 14.9676 30.1786 14.7486C30.2117 14.6838 30.1639 14.6606 30.044 14.6752C30.0293 14.6214 29.9718 14.5982 29.8702 14.6031C29.7418 14.4863 29.6006 14.3845 29.4492 14.2997C29.2228 14.1969 29.0098 14.3559 28.776 14.3523C28.2229 14.3437 28.1568 14.4159 28.1029 14.5223C28.0846 14.559 27.912 14.5749 27.8104 14.5994C27.7859 14.2532 27.0443 14.0697 27.245 13.8177C27.267 13.7895 27.3514 13.6782 27.3037 13.6599C26.633 13.3883 26.5486 13.6415 26.7114 13.7235C26.7042 13.7495 26.7053 13.7772 26.7145 13.8026C26.7237 13.828 26.7406 13.8499 26.7628 13.8654C25.4679 14.181 25.0249 13.6978 24.2587 13.9779C24.0201 14.0648 23.5562 13.9473 23.4277 13.9535C22.9859 13.973 21.6837 14.0281 21.8489 14.1419C22.2234 14.4037 22.2161 14.7645 22.6469 15.0092C22.7056 15.5181 22.3372 15.3909 22.2161 15.8007C22.1377 16.0674 21.3496 15.7689 20.5418 15.7065C20.4194 15.6955 19.8858 15.5169 20.1012 15.3224C20.1759 15.2539 20.5308 15.0398 20.1991 15.0288C19.2433 14.9957 18.8945 14.937 18.9202 15.2294C18.9336 15.3762 19.1551 15.4533 19.253 15.5695C19.4122 15.7567 19.2665 15.9915 18.9263 16.0588C18.3315 16.1885 18.5836 15.9597 17.5592 16.2962C17.3242 16.3732 17.3866 16.6314 17.6339 16.7561C17.8811 16.8809 18.1968 16.6937 18.4539 16.5885C19.2114 16.279 19.3326 16.7109 20.0106 16.7109C21.0399 16.6974 20.7352 17.0656 21.7473 17.1219C22.4327 17.1611 21.9321 16.7769 22.0251 16.4956C22.1475 16.1139 21.9701 15.8423 22.4229 16.016C22.768 16.1469 22.6775 16.1237 23.5892 16.1383L24.4129 16.7182C24.3811 17.199 23.7361 16.9629 23.577 17.2186C23.4191 17.2296 23.3127 17.265 23.3396 17.3629C23.0715 17.4779 23.331 17.5721 23.1352 17.7948C22.6787 18.0101 22.5318 18.048 22.9271 18.4138C22.7852 18.6584 23.3065 18.8701 23.1168 19.0744C22.8488 19.105 22.9944 19.1722 22.8623 19.2053C21.729 19.2689 21.8048 18.5385 21.7094 18.4713C21.587 18.3856 21.4083 18.4713 21.259 18.4578C20.647 18.4064 20.5969 18.2352 20.3521 18.4395C20.1807 18.5814 19.8234 18.5544 19.6679 18.6964C19.2898 19.0389 18.1148 18.574 17.8688 19.0169C17.7587 19.2102 16.9901 19.1209 16.9424 18.9007C16.8836 18.6242 17.4025 18.6266 17.5274 18.5581C17.5935 18.5226 17.5947 18.3966 17.4894 18.4076C17.1278 18.4259 16.7656 18.3845 16.4173 18.2853C15.65 17.232 14.9279 17.681 14.4677 17.3715C14.0406 17.084 13.7199 16.3781 14.1874 16.2705C14.2609 16.2521 14.2094 16.2705 14.0907 16.2497C13.4506 16.1151 13.4017 16.4332 12.4862 16.4503C12.3455 16.4503 12.2415 16.5726 12.2892 16.6546C12.3476 16.7357 12.4127 16.8118 12.4838 16.8821C12.4226 16.9629 12.4385 17.0387 12.5303 17.1085V17.1158C12.2133 17.1366 11.9771 17.2724 11.6479 17.2846C11.5708 17.2846 11.561 17.3592 11.6258 17.3911C12.0163 17.5819 12.2953 17.6198 12.2598 17.8975C12.2341 18.1104 12.2598 18.0859 12.1582 18.1043L12.2121 18.1116C12.0199 18.1936 11.9795 18.3061 11.9881 18.4284C11.3909 18.585 10.6908 18.3306 10.9184 18.7428C10.8548 18.7771 10.8878 18.7869 10.9319 18.8175C10.6112 19.0071 10.1046 19.1062 9.9528 19.379C9.83041 19.609 8.88191 19.401 9.26131 19.0352C9.34453 18.9545 9.57952 18.8945 9.56606 18.771C9.55259 18.6474 9.24295 18.4541 9.04591 18.4333C6.44761 18.1593 8.08516 18.2449 6.32523 18.4138C6.20284 18.426 5.76836 18.5569 5.95806 18.6584C6.68505 19.0597 6.78663 19.2358 7.36919 19.2077C8.1537 19.1698 7.84651 20.0922 9.18053 19.916C8.48537 19.8108 9.40206 19.3472 9.79247 19.7068C10.0128 19.905 9.61501 20.0922 9.89161 20.1191C11.8168 20.3038 11.6748 20.4151 12.2733 20.3931C12.4434 20.3931 12.6184 20.6378 12.518 20.7773C12.3566 20.9816 12.2323 21.2126 12.1509 21.4599C12.0652 21.7584 11.3248 21.8734 10.9038 21.6617C9.57952 20.9975 9.47549 20.8996 9.44489 20.6525C9.42041 20.4629 9.19277 20.7944 8.60042 20.8152C7.82692 20.8409 8.01663 20.6537 7.59439 21.2605C7.11029 21.2991 6.62338 21.2831 6.14287 21.2128C5.80753 21.1553 4.70726 21.1076 4.92633 21.4366C5.18824 21.8306 5.40609 21.9627 5.00711 21.9688C4.54326 21.9749 4.63016 22.0911 4.28257 22.1768C3.89828 22.2734 2.51529 22.1768 3.40016 21.1247C3.61311 20.8715 2.37822 21.2054 1.62921 21.0855C1.61553 21.1556 1.62938 21.2283 1.6679 21.2884C1.70642 21.3486 1.76664 21.3916 1.83604 21.4085C1.80667 21.5308 1.91192 21.6201 2.08938 21.6923C2.06368 21.8147 2.08938 21.9162 2.33416 21.97C2.33416 22.0703 2.42106 22.1498 2.56303 22.2147C2.51162 22.3847 2.72213 22.3908 2.80046 22.4765C2.82983 22.6942 3.06726 22.8728 3.21046 23.0698C3.22025 23.082 3.28634 23.082 3.32673 23.0881L3.37079 23.131C3.87013 23.1102 4.0635 24.1647 2.51407 23.8833C2.08327 23.805 2.39168 23.394 1.5827 23.3548C1.48968 23.3548 1.31589 23.3989 1.36485 23.46C2.49449 24.8803 2.44064 23.9433 3.54947 24.4387C3.52622 24.5818 3.4944 24.725 3.48461 24.8669C3.47849 24.9537 3.66452 25.0186 3.78568 24.9452C3.96437 24.8363 4.12714 24.7213 4.29604 24.6088C4.53628 24.5935 4.77747 24.6132 5.01201 24.6675C5.59668 24.8873 6.1593 25.1617 6.69239 25.4871C6.7719 25.549 6.86506 25.5909 6.96409 25.6095C7.58949 25.6829 7.22478 25.9765 7.50749 26.1122C7.71678 26.2138 8.1488 26.4046 8.43886 26.3948C9.59788 26.3557 9.44979 26.352 9.41797 26.0841C9.36779 25.7171 9.34086 25.7599 10.4803 25.7673C10.7752 25.9349 10.7251 26.1624 10.8315 26.3606C10.8548 26.4022 10.7422 26.4425 10.6492 26.4315C9.98217 26.3471 10.0764 26.3435 9.85244 26.3912C9.71782 26.4193 9.88059 26.6358 9.99319 26.6738C10.6945 26.9111 10.7275 27.2854 11.2513 27.3282C11.6711 27.3601 11.7091 27.5362 11.7568 27.7075C10.6431 28.132 10.2306 27.4286 9.36656 27.7846C9.1634 27.8677 8.89659 27.8372 8.65304 27.8408C8.29689 27.8408 8.37889 27.924 8.24916 27.9632C7.14767 27.9889 6.51003 27.9314 6.07311 28.3106C5.63618 28.6898 5.00833 28.5553 5.00956 28.7583C4.83087 28.8684 4.83087 28.8684 4.98875 29.0116C4.95516 29.0721 4.93676 29.1399 4.93512 29.2091C4.93348 29.2783 4.94865 29.3469 4.97933 29.4089C5.01002 29.471 5.0553 29.5247 5.11129 29.5654C5.16729 29.6061 5.23233 29.6327 5.30084 29.6428L5.36693 30.334C5.13195 30.4991 5.15275 30.6667 5.34 30.838C5.30329 30.9347 5.33389 31.0252 5.4526 31.1035C5.42142 31.1677 5.40967 31.2397 5.4188 31.3105C5.42793 31.3814 5.45754 31.448 5.504 31.5023C5.35469 31.6307 5.35224 31.7592 5.504 31.8889C5.47469 31.9278 5.45342 31.9721 5.44142 32.0193C5.42942 32.0665 5.42694 32.1156 5.43411 32.1637C5.44129 32.2119 5.45798 32.2582 5.48322 32.2998C5.50846 32.3415 5.54173 32.3777 5.58111 32.4063C5.49054 32.6791 5.46729 32.947 5.7598 33.1954C5.61171 33.4682 5.63741 33.6615 5.19926 33.719C5.13317 34.1117 5.78794 34.1851 5.34 35.1686C5.11481 35.1894 4.72807 35.2482 4.6326 35.1796C4.16141 34.8481 3.05992 34.3686 3.12723 33.9551C3.13335 33.9184 3.01341 33.8205 2.91061 33.8327C1.96577 33.9318 2.66583 34.1692 2.03798 34.4946C1.60351 34.7184 2.3415 34.727 2.295 34.9839C2.24849 35.2408 2.79189 35.6457 2.9204 35.6445C3.53234 35.636 2.77231 35.0475 4.43923 35.1711C4.58487 35.1821 4.79171 35.2347 4.83821 35.2934C4.99609 35.5051 5.35102 35.6262 5.59335 35.7974C5.53705 35.8953 5.5138 35.9895 5.68269 36.0666C5.68269 36.3663 5.76102 36.6672 5.57377 36.9621C5.53338 37.0257 5.68881 37.0636 5.80263 37.0844C5.99967 37.4049 6.38397 36.8984 6.26158 38.1377C5.98744 38.1952 6.0009 38.3065 5.89442 38.6735C5.72797 38.8582 5.8675 39.0283 5.98744 39.1995C5.93114 40.4094 6.23221 40.6553 6.15388 41.3685C6.15388 41.3857 6.19427 41.404 6.21385 41.4224C6.22487 42.2628 6.15388 41.8725 6.09147 42.056C5.76959 43.0555 6.03884 42.998 4.97651 42.9882C4.34132 42.9821 4.34377 42.5331 3.96681 42.6212C3.82974 42.6506 3.65595 43.1619 4.49308 43.2561C5.20538 43.3369 4.77824 43.1558 5.78672 43.2207C6.26036 43.7259 5.72063 44.1198 6.04496 44.4611L5.97887 44.4978L6.0523 44.5296C5.91645 45.0887 5.71574 45.534 6.03272 46.0062C5.57377 46.4564 6.59081 46.4075 6.4929 46.8748C6.3803 47.4167 6.02905 47.2919 6.0829 47.5366C6.15021 47.8449 6.43538 48.0957 6.06576 48.3501C5.60436 48.6682 6.14654 48.8064 6.55532 49.6408C7.13911 50.8384 6.97143 50.8739 7.18684 50.8641C7.49281 50.8494 7.69964 50.6194 7.65191 50.4763C7.51484 50.0714 7.83304 49.9123 8.20877 49.5759C8.63591 49.1955 9.40817 49.8756 8.92841 48.9288C8.65304 48.3868 9.20256 48.2988 9.26865 47.7275C9.34209 47.0938 9.86713 47.2381 9.65417 46.8002C9.47182 46.4246 10.003 46.2778 10.2906 46.4099C10.8536 46.6668 10.6223 46.9886 10.7202 47.1916C10.9858 47.7421 11.0445 48.3098 11.2293 48.8652C11.4068 49.3961 10.7704 49.3117 11.0053 49.5355C11.2697 49.7863 11.1877 50.0909 11.4631 50.3405C11.7384 50.5901 11.512 50.8298 11.7176 51.2348C12.1925 52.1694 11.2917 51.9394 12.1643 52.8031C12.2525 52.8899 12.862 52.9915 13.0419 53.0208C13.7762 53.1432 14.0026 54.0986 14.6439 53.8087C15.9584 53.2141 13.9671 52.8899 15.158 52.2306C15.5092 52.0361 16.1689 51.8697 16.5666 52.1082C17.2691 52.5303 17.4454 52.129 18.0757 52.4508C18.2568 52.5437 18.4098 52.5058 18.6142 52.4508C19.1551 52.3064 19.8711 52.5181 19.8638 52.83C19.854 53.241 20.04 53.6496 19.9042 54.0631C19.887 54.1145 19.9935 54.1769 20.0437 54.2344C20.1514 54.3947 20.204 54.5769 20.3839 54.7103C20.592 54.8656 20.6813 55.01 20.6079 55.1898C20.5222 55.3953 20.7547 55.6143 20.4965 55.8198C20.4304 55.8725 20.767 56.9527 20.6727 57.0921C20.4561 57.4175 20.7682 57.7332 20.7229 58.0524C20.7229 58.0818 20.8514 58.0794 20.8833 58.0378C21.1011 57.7417 21.9076 57.6194 21.8917 57.2585C23.38 56.96 23.5954 57.7662 23.7116 57.8763C24.1461 58.2885 24.6002 57.4628 23.7484 56.9368C23.435 56.7435 23.462 56.2541 24.069 56.2737C24.2722 56.2798 24.4741 56.3031 24.6809 56.3177C24.7311 56.3924 24.8376 56.3814 24.9673 56.3716C24.9478 56.3716 24.9343 56.3557 24.9588 56.3263C25.6001 55.9887 25.1925 56.1342 26.2132 56.1196C27.0039 56.1086 25.9685 55.6522 27.0883 55.2143C27.874 55.207 27.6929 55.1911 28.0429 55.2852C28.2657 55.9703 28.1249 55.7244 29.022 55.7379C29.0979 55.7379 30.0721 55.7819 30.0844 55.7464C30.1076 55.6792 29.6756 55.3794 29.1163 55.4883C28.8164 55.5495 28.546 55.4088 28.2596 55.2877C28.3954 54.9965 28.2938 54.9317 28.5729 54.6931C29.1738 54.6834 29.6266 54.7347 29.2656 54.5121C29.1187 54.276 29.2876 54.2136 28.9621 54.1206C28.6047 53.4404 28.9682 53.7879 28.847 53.1004C28.7932 52.7921 29.2032 52.0532 29.6866 52.025C30.066 52.003 30.3744 52.1474 30.6596 51.8929C30.9913 51.5993 30.6743 51.3241 31.1088 51.2568C31.5102 51.1944 31.6424 51.3473 31.766 51.543C31.8468 51.6727 32.1613 51.6103 32.1013 51.4819C31.8908 51.0403 31.9973 50.2084 32.9385 50.2696C33.3876 50.2989 33.8331 50.3381 34.2774 50.3797C35.1439 50.4616 34.4842 51.2225 33.7511 51.2776C33.6487 51.2923 33.5522 51.3345 33.4721 51.3999C33.1986 51.5848 32.8769 51.6852 32.5468 51.6886C32.444 51.696 32.4024 51.8036 32.4844 51.8415C32.7989 51.9871 32.9495 52.0275 33.0621 52.4532C33.111 52.6416 33.8147 52.9756 34.0081 52.8263C34.3337 52.5755 34.8648 52.43 35.1524 52.1535C35.4401 51.877 36.5905 52.0581 36.6284 52.6355C36.659 53.071 36.0593 53.0783 35.4902 53.1615C34.975 53.2374 35.3862 53.5958 35.6126 53.6778C35.9627 53.8001 35.9174 54.0252 35.9333 54.3433C35.5367 54.6063 35.3654 54.6711 35.4927 54.7323C36.0153 54.977 35.9125 54.8436 35.9578 55.2914C35.3458 55.596 33.8453 55.6841 33.6263 55.1409C33.4659 54.7421 33.2909 54.5488 33.4561 54.1206C33.5002 54.0069 33.5173 53.8075 33.2787 53.7879C32.4159 53.7169 32.1772 53.6839 32.1025 53.7524C32.0949 53.7618 32.0895 53.7728 32.0867 53.7846C32.084 53.7964 32.084 53.8086 32.0867 53.8204C32.0894 53.8322 32.0948 53.8433 32.1024 53.8527C32.11 53.8621 32.1197 53.8696 32.1307 53.8747C32.5799 54.1329 32.6655 54.446 32.6202 54.7751C32.4979 55.6033 32.3914 55.5862 32.187 55.6902C31.6901 55.9422 32.9813 56.0572 33.4672 55.8712C34.1317 55.618 34.4622 55.952 35.2112 55.9446C35.9602 55.9373 35.8231 56.226 36.3494 56.2529C36.5085 56.2615 36.2907 56.2529 36.3984 56.1881C36.8879 55.9189 36.6064 55.355 37.0972 55.2008C37.4986 55.0785 37.9417 55.218 37.938 55.3966C37.9282 55.8321 38.1338 56.2529 38.1828 56.6799C38.2329 57.0836 38.6442 57.1692 39.2635 57.3943C39.6881 57.2267 40.0235 57.157 39.9917 56.905C39.9696 56.7312 40.2462 56.3752 40.6489 56.3349C41.8263 56.2199 41.8434 56.5795 41.3281 57.1545C41.0515 57.4616 41.1189 57.3747 41.1776 57.5105C41.1164 57.6255 41.2388 57.6867 41.4126 57.7332C41.4872 58.0121 41.3759 58.2066 42.6365 58.3228C42.6739 58.3597 42.7192 58.3877 42.7691 58.4044C42.8189 58.4212 42.8719 58.4263 42.9241 58.4194C42.94 58.4794 42.9889 58.5002 43.093 58.4635C43.3194 58.6054 43.4993 58.7767 43.8909 58.8146C44.3303 59.2611 43.8738 59.3993 43.6914 59.3822C43.0917 59.3259 42.448 59.3577 41.9303 59.1375C41.8845 59.1221 41.8347 59.1235 41.7899 59.1414C41.745 59.1593 41.708 59.1927 41.6855 59.2354C41.6378 59.4666 41.6757 59.4935 42.131 59.4801C42.6915 59.4642 42.5337 59.4727 43.4981 59.7247C43.7771 59.7981 43.4981 59.8275 44.3413 59.6746C44.3927 59.5523 44.5249 59.6306 44.673 59.4825C45.1797 59.474 45.1417 59.4825 45.1136 59.1155C45.2421 59.069 45.3168 59.0067 45.3376 58.9247C45.4599 58.9247 45.4942 58.899 45.4599 58.8293C45.6227 58.7595 45.6937 58.6727 45.6239 58.5626C45.9079 58.4672 45.471 58.4256 44.8468 58.3179C44.602 57.8628 44.9912 58.0206 45.0096 57.3392C45.0206 56.9576 45.0279 56.5759 45.0353 56.1942C45.4306 55.7049 45.6815 55.6938 45.3547 55.421C45.4073 55.2877 45.3779 55.1666 45.154 55.0761C45.2176 54.8522 44.7868 54.8926 44.9325 54.8926C44.4245 54.6895 44.1981 54.4301 44.3548 54.0925L45.3265 54.0668C45.8161 54.1524 45.7451 54.2307 46.3203 54.2026C46.6312 54.2674 47.0693 54.5696 47.2615 54.2405C47.6764 54.0228 47.3508 54.057 49.0594 54.1365C50.4436 54.7311 49.0447 54.3812 51.7801 54.3934C51.9109 54.5239 52.0797 54.6096 52.2623 54.6381C52.3026 54.6699 52.3357 54.7274 52.3846 54.7323C53.2597 54.8143 53.2609 54.7152 53.2928 54.4876C53.09 54.5512 52.8819 54.5963 52.671 54.6222C53.2291 54.5586 53.3809 54.4338 53.4923 54.3665C53.8888 54.3861 53.7175 54.0888 54.2731 54.2014C54.2082 54.1329 54.885 54.5537 54.2804 54.8045C53.8545 54.9819 54.4028 55.103 54.3037 55.4736C54.2339 55.733 54.1495 55.9887 53.7811 56.1893C53.48 56.3532 54.5081 56.5673 54.5852 56.467C55.2473 55.6009 54.83 55.733 55.0062 55.3953C55.3342 54.7506 54.2657 54.7029 55.4957 53.9359C55.5512 53.9525 55.61 53.9549 55.6666 53.9429C55.7233 53.931 55.7761 53.905 55.8201 53.8674C55.9535 53.8674 55.918 53.8784 55.9841 53.816C56.1199 53.8234 56.2288 53.816 56.2105 53.7194C56.2607 53.6912 56.3549 53.6643 56.3549 53.6362C56.3659 53.4233 56.5923 53.2521 56.7221 53.0637C57.6265 53.0404 57.4295 52.9805 57.755 53.3181C57.7122 53.4661 57.64 53.6178 57.8945 53.7377L57.8688 53.7879C58.0769 53.8221 57.9349 53.9836 58.2091 54.1096C58.5762 54.8094 58.2837 54.5525 58.624 55.0149C58.8871 55.3721 59.4305 54.9611 59.9017 55.3342L59.6998 55.6865C59.3179 55.6963 59.5774 55.9679 60.1893 56.0229L60.2162 56.0633C60.3386 56.0535 60.2297 56.0193 60.8845 56.3936C61.1293 56.7361 60.9787 56.4768 60.9151 57.2989C60.9028 57.4567 61.3385 57.5178 61.4046 57.1692C61.5172 56.5575 61.374 56.6126 61.8354 56.4095C62.3568 56.1795 62.8011 56.4095 63.1266 56.5539C63.3518 56.6493 63.4607 56.4474 63.3481 56.3789C62.8867 56.0975 62.6775 56.3924 62.2907 55.9887C62.1487 55.8419 62.0202 55.5079 62.5257 55.3525C62.9198 55.2302 62.8158 55.0614 62.9357 54.9036C63.0018 54.8167 63.3677 54.7898 63.4669 54.8693C63.6468 55.0124 63.8095 55.1617 63.9772 55.3097C64.1449 55.4577 64.8119 55.1935 65.1595 54.8081C65.3908 54.5512 65.3247 54.3995 65.7372 54.3555C66.3283 54.2919 66.7444 54.6724 66.3675 54.9134C65.9379 55.1874 65.6013 55.306 65.5401 55.4626C65.146 56.4731 66.6746 55.7342 66.2389 56.5844C66.0064 57.0383 65.4349 57.1007 65.3064 57.1459C65.2656 57.1526 65.2287 57.174 65.2028 57.2061C65.1768 57.2382 65.1636 57.2788 65.1658 57.32C65.1679 57.3612 65.1852 57.4002 65.2143 57.4295C65.2434 57.4588 65.2823 57.4763 65.3235 57.4787C66.6538 57.7466 66.4703 57.5937 66.9733 57.4114C67.4053 57.2536 67.5595 57.6916 67.9034 57.831C68.1005 57.9093 67.9989 58.1797 68.0368 58.2665C68.3195 58.9173 67.0846 59.14 68.1054 59.5865C68.9853 59.9731 69.4296 59.6734 69.7674 60.1664C70.0122 60.5163 70.9301 60.2765 70.7808 60.8722C70.7514 60.9946 71.0255 61.1059 71.1479 61.0839C71.3352 61.0533 71.5371 60.9823 71.531 60.8637C71.509 60.4037 72.3045 60.296 72.433 60.23C72.6031 60.1431 72.5419 60.1321 72.5236 59.6673C72.5028 59.1706 72.5064 59.1718 73.2248 58.8464C73.8368 58.565 74.871 58.877 75.0717 58.4928C75.3067 58.039 74.8416 57.8946 75.2675 57.6071C75.7289 57.2976 74.8489 57.3013 75.117 56.4915C75.6726 54.8167 75.2993 54.6222 75.6616 54.3788C76.2405 53.9897 76.5269 53.7805 76.8169 53.9053C77.4852 54.1928 78.0408 54.5525 78.8278 54.3665C79.9807 54.0937 79.8925 55.4088 79.0652 55.3452C78.8926 55.3305 78.1008 55.1495 77.785 55.5226C77.6235 55.7159 77.5084 55.673 77.0042 55.9202C76.9356 55.9532 76.9418 56.0633 77.0703 56.0425C77.8254 55.9569 78.0726 55.8639 78.2941 56.0657C78.6772 56.4009 79.157 56.1355 79.3675 56.1379C80.1544 56.1489 79.9794 56.4205 80.9585 56.3104C81.1715 56.2859 82.2913 56.6517 82.3586 55.5886C82.3721 55.3843 82.5239 55.2094 82.6769 55.032L84.1541 54.9941C84.8884 54.9757 85.0903 55.9838 84.9741 54.8889C85.5199 54.6087 85.5481 54.0546 84.9667 54.1549C84.121 54.298 83.5532 53.964 82.7026 53.975C82.1604 53.9812 81.9976 53.7854 81.6794 53.4857C81.4261 53.2484 81.6145 53.1297 81.6794 52.8557C81.8544 52.1731 82.9106 51.8697 83.0954 51.9027C84.3487 52.1266 83.8383 52.1327 84.2605 52.4055C84.3585 52.4703 84.5947 52.4985 84.6204 52.3896C84.7929 51.6776 85.4343 52.0006 85.6643 51.4109C85.8014 51.0586 86.3375 51.0684 86.5468 51.1663C86.655 51.2264 86.7592 51.2934 86.8588 51.3669C86.6815 51.5542 86.4507 51.6823 86.198 51.7339C86.0107 51.7718 85.8381 51.8391 86.0437 51.8929C86.3265 51.9663 86.3509 52.1376 86.5174 52.2538C86.6838 52.37 86.92 52.4654 87.0951 52.5817C87.3154 52.7285 86.8503 52.8814 87.4451 52.9707C87.4867 52.8055 87.4622 52.8667 87.4022 52.808C87.2897 52.6991 87.3178 52.6208 87.4842 52.6208C88.1354 52.6208 88.9443 52.4018 88.9125 52.2465C88.833 51.8721 88.3251 51.5125 88.0962 51.6556C87.931 51.7596 87.7841 51.9651 87.3521 51.8844C86.8699 51.7951 87.1305 51.4721 87.1881 51.3816C87.5552 51.3216 87.4157 51.0549 87.2945 50.9717C87.3337 50.8959 87.2872 50.8494 87.1465 50.8176C87.0657 50.6476 87.0657 50.6463 86.9102 50.6696C86.4831 50.7344 86.1845 50.7919 86.0597 50.5106C85.8859 50.1228 85.6851 50.3368 85.4771 49.9649C85.3388 49.7203 85.4037 49.1551 85.5995 49.0841C86.1294 48.8982 86.1282 48.563 86.3803 48.6853C87.5516 49.2554 86.6018 49.872 87.0559 50.0775C87.1979 50.3148 87.9456 50.0897 88.1721 50.179C88.5894 50.4751 88.6139 50.3099 88.8929 49.9503C89.2801 50.073 89.6884 50.1147 90.0923 50.0726C90.2237 50.1347 90.3668 50.1681 90.5121 50.1705C90.5977 50.2563 90.7139 50.3047 90.8352 50.305C90.8585 50.4274 90.9699 50.5265 91.2171 50.5644C91.3811 50.7503 91.5732 51.2984 90.9539 51.5088C90.5721 51.6434 90.528 51.8758 90.5696 52.0874C90.6015 52.2477 90.9711 52.1963 91.1693 52.2612C91.2721 52.2942 91.3664 52.337 91.4704 52.3713C91.5414 52.3933 91.7617 52.3333 91.7703 52.2893C92.0053 51.2849 91.6185 52.3419 91.8927 50.6855C91.9282 50.4653 92.1093 50.409 92.5107 49.916L93.0786 49.6273C92.004 50.1986 92.9721 49.5808 93.4201 49.9686C93.7456 50.2488 95.0282 49.9576 95.1408 50.4127C95.3856 51.3914 94.7186 51.4635 95.3207 51.7314C95.623 51.8672 95.612 52.1388 95.5215 52.3431C94.2621 55.1666 93.9781 54.8974 93.4935 54.8889C92.7592 54.8754 92.6307 54.6271 92.5144 54.5537C92.0248 54.2393 91.4472 54.4118 90.8071 54.4937C90.2845 54.561 90.1853 54.4252 89.7656 54.2307C89.44 54.079 89.2356 54.1916 88.4988 54.3102C88.0742 54.3788 87.8465 54.2307 87.6997 54.2001C87.3778 54.1365 86.9849 54.2797 87.0069 54.4509C87.0281 54.5353 87.0429 54.6212 87.051 54.7078C87.04 55.2131 87.7437 54.8999 87.8698 55.2608C87.893 55.3293 87.7914 55.9434 88.8489 55.9324C90.2184 55.9165 89.8855 55.9165 89.5428 55.6877C89.3739 55.5764 89.298 55.5801 89.336 55.136C89.336 55.1005 89.4021 55.0455 89.4584 55.0357C89.8598 54.9598 90.129 54.791 90.4375 54.654C90.6149 54.5733 91.1192 54.9843 90.6822 55.2865C90.5476 55.3794 90.927 55.6755 91.4349 55.6767C92.2451 55.6767 92.0187 55.9813 92.0371 56.3092C92.0469 56.4719 92.7481 56.5832 92.7714 56.456C92.8118 56.1795 93.2059 55.9948 93.4005 55.7599C93.5694 55.5556 93.8802 55.5703 94.7357 55.5532C95.2632 55.5434 95.4566 56.0425 95.0931 56.2982C94.7296 56.5539 94.6439 56.5991 94.9193 56.7288C95.4933 57.0016 96.0208 57.5766 96.388 55.9777C96.4247 55.8223 96.7845 55.4443 97.0954 55.5324C97.4062 55.6204 97.662 55.7073 97.7073 55.9079C97.7208 55.963 97.815 55.9911 97.8946 55.9569C97.9741 55.9226 98.5065 55.6877 98.4514 55.6339C98.165 55.3134 98.1393 55.3244 97.804 55.3317C97.6816 55.3317 97.5298 55.3317 97.4919 55.2608C97.3977 55.0858 96.4075 54.3751 95.9669 54.5341C94.7565 54.9684 94.7161 53.9224 95.6891 53.887C96.3011 53.8649 96.1542 53.635 96.891 53.597C97.23 53.5811 97.5029 53.575 97.4943 53.4747C97.4858 53.3744 97.3414 53.334 96.9277 53.279C95.8911 53.1444 96.7563 51.077 96.689 51.0023C96.2435 50.5472 97.1504 49.7912 96.6107 48.7722C96.5226 48.9263 96.4798 49.0866 96.4039 49.2432C96.2374 49.5869 95.3428 49.7423 94.8128 49.5209C94.5252 49.3985 94.229 49.2835 94.0907 49.0866C93.9983 49.0062 93.8949 48.9395 93.7836 48.8884C93.756 48.6924 93.756 48.4935 93.7836 48.2975C93.5547 47.5745 93.6073 47.8779 92.4067 47.3286C92.3382 47.2981 92.1068 47.3286 92.0909 47.3776C92.0469 47.5232 91.3566 48.1691 90.7569 47.9892C90.3775 47.8767 89.9748 47.8449 89.8757 47.6822C89.6676 47.3396 90.074 47.2626 89.3262 47.1672C87.9114 46.9861 88.0815 46.9103 87.4414 46.9311C86.5847 46.958 86.7218 46.4796 86.6275 46.2668C86.5051 45.9817 86.7499 45.8117 87.1991 45.6881C87.6482 45.5646 87.4732 46.1237 88.0558 45.9573C88.1256 45.9365 88.2333 45.9181 88.2504 45.8875C88.4328 45.5597 89.0068 45.5939 89.4559 45.5205C90.0348 45.4251 90.1229 45.8729 90.1535 45.9414C90.1937 45.9498 90.2349 45.9531 90.2759 45.9512C90.2759 45.5988 90.118 45.3615 90.3432 45.0532C90.3635 45.0261 90.3773 44.9947 90.3834 44.9613C90.3896 44.928 90.388 44.8937 90.3787 44.8612C90.2747 44.5284 90.6064 44.225 90.6039 43.8984C90.6039 43.7761 90.834 43.7259 90.9711 43.6537C90.9405 43.6464 90.2808 44.1577 91.0678 43.6182C92.4826 43.6892 92.0469 44.044 92.0469 44.3327C92.0383 44.7608 92.8852 44.7449 92.7885 45.1413C92.7518 45.2881 92.7996 45.4312 92.6821 45.5829C92.4373 45.9071 92.496 46.1567 92.6515 46.1946C92.7579 46.224 92.9831 45.9585 92.9709 45.8924C92.9452 45.7628 92.9782 45.5903 93.3026 45.211C93.4054 45.211 93.5045 45.145 93.3723 45.1046L93.7995 44.6813C95.4945 44.7511 95.5631 44.8795 95.5631 45.3664C95.5631 45.4826 95.7307 45.6111 95.3832 45.7811C94.9719 45.9866 95.814 45.8631 95.7736 46.4527C95.7491 46.8002 95.6279 47.1415 95.5778 47.4865C95.5594 47.6088 95.3403 47.7397 95.5398 47.8535C95.8115 48.0076 96.0967 47.9538 96.6291 48.2804C96.7821 48.1715 96.8494 48.0443 96.8249 47.9134C96.7808 47.6785 96.935 47.4351 96.7025 47.2075C96.2007 46.7072 96.9815 46.0992 97.7342 46.1285C97.8994 46.1347 98.0622 46.1481 98.2238 46.1493C98.7133 46.1493 99.1796 45.9181 99.1429 45.66C99.1294 45.5609 99.187 44.0978 99.8662 43.6452C99.9507 43.5901 99.9886 43.5228 99.9005 43.469C99.7903 43.4005 99.7108 43.4776 99.63 43.5106C98.6191 43.9326 98.1038 42.9931 97.5188 43.2794C96.9338 43.5656 95.694 43.5791 95.8641 43.1228C95.9339 42.9332 95.8641 42.6689 96.3757 42.5821C96.5618 42.5503 96.6119 42.4597 96.5948 42.3729C96.4345 41.574 96.4516 41.234 96.7086 40.5012C97.0697 39.476 96.1713 40.1807 96.4638 39.0625C97.0329 38.8411 97.2594 38.7983 97.17 38.6307C97.0305 38.3713 96.7502 38.3713 96.2619 38.3102C96.0171 38.041 96.1126 37.9432 96.2497 37.3535C96.3904 37.3535 96.4345 37.3205 96.3953 37.2446C96.6401 37.0293 96.6401 36.7786 96.6584 36.5486C96.6756 36.195 97.4123 36.0959 97.4992 35.784C97.536 35.6519 98.0671 35.5552 98.3168 35.5393C98.8259 35.5063 98.9349 35.2371 99.0511 34.9986C99.1674 34.76 99.4452 34.7662 99.6937 34.623C99.761 34.5851 99.7793 34.4909 99.6459 34.4799C99.2445 34.4432 98.7256 34.497 98.7109 34.1129C98.6888 33.5575 99.9127 33.6236 99.7169 32.7807C99.6361 32.4381 99.9874 32.3305 100.842 31.9035C101.331 31.8497 101.285 31.5365 101.627 31.4313C102.091 31.2845 102.216 31.0203 102.501 30.8123C102.638 30.7132 102.572 30.6044 102.501 30.5016C102.36 30.2569 102.128 30.427 101.522 30.5358ZM41.0699 13.0824C41.7173 13.0971 41.7749 13.6733 40.8937 13.5718C40.4237 13.5277 40.5583 13.0702 41.0699 13.0824ZM21.7853 56.9196C21.773 56.9013 21.7608 56.8829 21.7461 56.8646C21.7596 56.8854 21.7718 56.9013 21.7853 56.9196ZM21.7228 56.8377C21.7094 56.8218 21.6971 56.8059 21.6824 56.7912C21.6959 56.8059 21.7081 56.8218 21.7216 56.8377H21.7228ZM21.8954 57.2475C21.8966 57.2255 21.8966 57.2034 21.8954 57.1814C21.8948 57.2019 21.8932 57.2223 21.8905 57.2426L21.8954 57.2475ZM21.8954 57.1716C21.892 57.1476 21.8867 57.1239 21.8795 57.1007C21.8835 57.1225 21.886 57.1446 21.8868 57.1667L21.8954 57.1716ZM21.8758 57.0897C21.8673 57.0664 21.8599 57.0432 21.8501 57.0212C21.8513 57.0383 21.8587 57.0615 21.8673 57.0848L21.8758 57.0897ZM21.8416 57.0077C21.8311 56.9857 21.8193 56.9645 21.8061 56.9441C21.8164 56.9647 21.8253 56.986 21.833 57.0077H21.8416ZM20.1795 19.6065C20.8722 19.5576 21.3642 19.6934 21.5588 19.8512C21.5523 19.9257 21.5305 19.9981 21.495 20.064C21.4594 20.1298 21.4108 20.1877 21.352 20.2341C20.6838 20.1949 20.8123 20.3858 20.7009 20.5057C20.5283 20.6892 20.2885 20.4151 20.0106 20.2109C19.6618 19.9601 19.9005 19.6261 20.1795 19.6065ZM16.4259 29.6612C16.4259 29.7908 16.4173 29.9205 16.4124 30.0514C16.1848 30.0795 15.9645 30.1407 15.7173 30.0844C15.2657 29.978 15.322 29.6367 15.6891 29.5193C15.7501 29.4958 15.8083 29.4658 15.8629 29.4299C15.8629 29.4299 15.8739 29.5254 16.1615 29.5156C16.29 29.5694 16.1481 29.633 16.4259 29.6612ZM12.8228 26.7643C12.7471 26.7706 12.6708 26.766 12.5964 26.7508C11.7066 26.664 12.1435 26.122 12.7567 26.2994C12.9978 26.3691 12.928 26.7239 12.8228 26.7643ZM13.0088 23.5041C12.8791 23.5041 12.7102 23.4686 12.7432 23.3524C12.7139 23.4564 12.7518 23.4649 13.0088 23.5041ZM13.1214 23.5041C12.9795 23.5114 13.0517 23.5445 12.7604 23.3083C12.8164 23.2769 12.864 23.2323 12.8989 23.1784C12.9339 23.1244 12.9552 23.0628 12.9611 22.9988C13.3038 22.978 13.5853 22.8863 13.8288 23.1212L13.7994 23.3891C13.6367 23.4662 13.2781 23.5836 13.1214 23.498V23.5041ZM15.202 23.1163C14.9303 23.1322 14.6562 23.1334 14.3808 23.1334C14.6537 23.1273 14.9315 23.1212 15.1996 23.1102L15.202 23.1163ZM12.272 19.7411C12.0848 19.4854 11.6687 19.5613 11.8461 19.1294C12.0481 18.6303 12.8509 18.8554 13.0186 18.941C14.2682 19.5723 13.447 18.267 14.4775 18.3979C14.6565 18.4219 14.8295 18.4787 14.9878 18.5655C15.1212 18.6352 15.3048 18.5655 15.4492 18.6071C15.4492 18.875 15.9388 19.0621 15.8911 19.3411C15.0821 19.6567 15.8605 19.7203 14.9009 20.1118C14.748 20.0844 14.5909 20.0932 14.442 20.1375C13.8031 20.0298 13.6428 20.2072 13.1545 20.2329C12.3492 20.2586 12.452 19.9858 12.2696 19.735L12.272 19.7411ZM12.3443 22.0055C12.682 21.9566 12.9489 21.7168 13.3466 21.8587C13.6697 21.981 13.5265 22.1743 13.502 22.348C13.4776 22.5217 13.7603 22.4557 13.9647 22.611C13.9295 22.6404 13.9069 22.6821 13.9015 22.7276C13.896 22.773 13.9081 22.8189 13.9353 22.8557C13.2401 23.016 13.551 22.611 13.1141 22.6343C12.1448 22.6906 12.0371 22.0446 12.3418 21.9994L12.3443 22.0055ZM5.58845 23.2594C5.42198 23.2397 5.25325 23.2638 5.0989 23.3291C5.25192 23.262 5.4198 23.2359 5.586 23.2533L5.58845 23.2594ZM6.62263 24.095C5.82344 24.3861 5.90911 24.8522 5.11236 24.4852C4.99854 24.4326 5.04015 24.4191 5.10135 24.172C5.18212 24.0375 5.24332 24.172 4.91777 23.6497C5.00466 23.4515 4.95815 23.2031 5.95439 23.4307C6.13185 23.6864 6.06821 23.6252 6.28484 23.6387C6.50146 23.6521 6.46964 23.5873 6.78908 23.2655C6.44027 23.6166 6.44884 23.5604 7.00693 23.5359C6.97633 23.5799 6.98979 23.6203 7.04976 23.6582C6.89311 23.887 6.87475 23.9971 6.62018 24.0888L6.62263 24.095ZM7.7694 23.7842L7.8514 23.7524C7.83549 23.6864 7.8514 23.6949 7.8514 23.6949C8.05637 23.6879 8.26089 23.7186 8.45477 23.7855C7.97257 24.013 8.07782 24.0362 7.76695 23.7781L7.7694 23.7842ZM8.86233 24.4999C8.7704 24.4919 8.67918 24.4772 8.5894 24.4558C8.9737 23.9641 9.55994 24.5182 8.85988 24.4938L8.86233 24.4999ZM9.77289 25.1201C9.21847 24.7751 9.41552 24.7397 9.69089 24.7115C9.98829 24.6797 9.99197 24.6822 10.0152 24.5097C10.0421 24.3078 10.5366 24.6222 10.8817 24.6247L10.9209 24.9085C10.8548 24.9611 10.7985 25.0161 10.7238 25.0675C10.5133 25.2155 9.98585 25.2461 9.77044 25.114L9.77289 25.1201ZM11.8816 27.9668C12.2488 27.7576 12.7567 27.9362 12.7383 27.765C12.7383 27.7943 12.6931 27.8323 12.6306 27.8555C12.7653 28.1956 12.9697 28.3705 11.9979 28.3204L11.8816 27.9668ZM12.8277 28.9541C12.545 28.5186 12.9109 28.6898 12.9733 28.5088C13.1802 28.5271 13.633 28.5161 13.6636 28.7877C13.6942 29.0899 12.9795 29.1865 12.8252 28.9479L12.8277 28.9541ZM13.1728 23.783C13.2817 23.6166 12.906 23.6607 14.185 23.6142C14.65 23.9066 14.5521 24.4509 14.0234 24.413C13.2536 24.3531 13.0125 24.0191 13.1704 23.7769L13.1728 23.783ZM14.8091 25.021C15.016 25.3574 15.5214 25.6559 15.2877 26.0486C13.972 25.9422 14.196 25.9985 13.9414 25.3868C13.6783 24.7409 14.7382 24.9048 14.8091 25.021ZM17.4845 29.6636C17.2471 29.6538 17.1308 29.6245 16.995 29.7713C17.0487 29.7275 17.1046 29.6867 17.1627 29.6489C17.2324 29.4911 16.7294 29.1596 17.099 29.1596C17.6339 29.1559 17.2887 29.5168 17.4845 29.6636ZM18.0182 29.3627C18.0512 29.3455 18.1161 29.3321 18.1589 29.315C18.1589 29.315 18.039 29.3517 18.0182 29.3602V29.3627ZM17.5017 28.8378C16.2778 29.0324 16.432 28.5932 16.3831 28.5173C16.2913 28.3766 16.1383 28.2421 16.1003 28.0965C16.0624 27.9509 16.1689 27.7919 16.1003 27.6512C15.9608 27.3356 16.3329 26.7533 17.1896 26.7092C17.6314 26.686 17.6681 26.9196 17.8101 27.0505C18.2421 27.453 19.0682 27.5619 18.8406 28.2568C19.1857 29.2966 18.1063 28.7485 17.5017 28.8378ZM22.7435 19.2518C22.704 19.2711 22.6631 19.2874 22.6212 19.3007C22.6644 19.2876 22.7065 19.2713 22.7472 19.2518H22.7435ZM63.7643 22.9658C63.8101 22.9434 63.8581 22.9258 63.9075 22.9132C63.8582 22.9263 63.8103 22.9439 63.7643 22.9658ZM44.941 28.8501C44.941 28.8501 44.941 28.844 44.941 28.8427C44.941 28.8415 44.9435 28.8476 44.941 28.8501ZM53.0125 23.3206C53.0113 23.2986 53.0113 23.2765 53.0125 23.2545C53.011 23.2765 53.011 23.2986 53.0125 23.3206ZM52.5291 21.0293C52.4287 21.1907 52.4177 21.2103 52.5266 21.0329L52.5291 21.0293ZM46.5884 25.5361C46.6288 25.7881 46.4905 25.7171 46.8613 25.7403C46.4868 25.7208 46.63 25.7917 46.5859 25.5397L46.5884 25.5361ZM40.6538 24.1659C40.5077 24.1547 40.3619 24.1916 40.2389 24.2711C40.3626 24.1955 40.5067 24.16 40.6513 24.1696L40.6538 24.1659ZM44.3058 28.2029C44.2875 28.2029 43.3818 28.2139 43.372 28.2201C43.3794 28.2188 44.285 28.2091 44.3046 28.2078L44.3058 28.2029ZM48.899 28.4133C48.9468 28.428 48.9553 28.477 48.981 28.5112C48.9786 28.5161 48.9394 28.4317 48.8966 28.4182L48.899 28.4133ZM49.0618 27.3943C49.03 27.5387 49.0239 27.5705 49.0618 27.3943C49.0447 27.234 49.0447 27.2426 49.0594 27.4029L49.0618 27.3943ZM68.2926 16.3341C68.6218 16.7451 67.9769 16.6913 67.9144 16.5592C67.8031 16.3194 68.1923 16.2056 68.2926 16.3341ZM70.7171 19.8916C70.7171 19.8916 70.7171 19.8916 70.7245 19.8977C70.7318 19.9038 70.7196 19.894 70.7183 19.8916H70.7171ZM71.1308 19.6811C71.1508 19.6721 71.1725 19.6671 71.1944 19.6665C71.1729 19.6673 71.1517 19.6723 71.132 19.6811H71.1308ZM72.9519 17.9599C72.9807 17.9754 73.0111 17.9877 73.0425 17.9966C73.0115 17.9876 72.9815 17.9753 72.9531 17.9599H72.9519ZM66.2867 13.3944C67.021 13.2048 66.6147 12.4732 67.3808 12.5564C68.2375 12.6494 68.6047 12.0267 69.1334 12.4341C70.4797 13.4531 69.8347 14.0403 69.011 13.7455C67.9548 13.3712 68.5362 14.2801 67.2621 14.0452L66.332 13.8776C65.9746 13.8054 65.9354 13.4849 66.2879 13.3944H66.2867ZM60.0229 14.7915C60.0229 14.778 60.0975 14.7584 60.1073 14.7621C60.2982 14.8355 60.2958 14.7388 60.2297 15.4729C60.2297 15.4851 60.1807 15.501 60.1489 15.5083C59.854 15.5805 60.0743 15.2637 60.018 15.1952C59.8381 14.9774 59.477 14.9896 59.3999 15.1621C58.9716 14.9248 59.8748 15.1805 60.0241 14.7915H60.0229ZM55.8568 10.3128C55.9486 10.166 56.6548 10.1464 56.7135 10.4743C56.7466 10.6394 56.7918 10.7667 56.6021 10.8291C56.339 10.9171 55.4896 10.9025 55.8568 10.3128ZM50.0434 11.771C50.0164 11.6181 50.3542 11.5484 50.5023 11.404C50.7704 11.1398 50.4852 11.1594 50.364 11.0945C50.1523 10.9722 50.3983 10.8498 50.5403 10.8914C50.8768 10.9783 50.6443 11.1165 50.785 11.2022C51.6638 11.7294 51.8033 11.6108 52.1692 11.667C52.6515 11.7404 52.5976 12.1564 52.0787 12.1735C50.7189 12.2237 50.9686 12.4047 50.3775 12.2873C49.2564 12.3741 50.1046 12.1111 50.0434 11.771ZM38.0322 15.0227C38.1387 14.9542 38.4692 15.2319 38.135 15.3493C37.9992 15.3958 37.7177 15.2245 38.0322 15.0227ZM34.8 16.4907C34.9884 16.5543 35.3568 17.0962 34.9627 17.0791L34.7241 17.0669C34.3471 16.9702 34.1721 17.2051 33.9579 17.0669C33.1012 16.4968 34.3447 16.3353 34.8 16.487V16.4907ZM31.6668 16.7757C31.6779 16.6607 31.9263 16.531 32.1625 16.5164C33.0804 16.4968 32.8589 16.925 33.6973 17.347C33.8515 17.4241 33.9188 17.555 33.8196 17.648C33.5687 17.8779 33.6973 18.1153 33.7107 18.3501C33.7315 18.6217 33.4121 19.0475 32.6325 18.9679C31.8529 18.8884 32.0205 18.4884 31.9545 18.3563C31.87 18.185 31.5873 18.1434 31.7097 17.6064C31.8651 16.947 31.6387 17.0656 31.6668 16.772V16.7757ZM32.4979 19.768C33.0792 19.6359 33.3546 19.916 33.1967 20.135C33.067 20.3136 32.6019 20.3063 32.3987 20.206C32.1956 20.1056 32.1882 19.8353 32.4979 19.7643V19.768ZM30.0648 20.5852C30.1358 20.321 29.9204 20.3613 28.978 20.08C28.393 19.905 27.9585 19.3154 28.5839 19.1808C28.8079 19.1319 29.0453 19.1037 29.2778 19.0683C29.5079 19.138 29.7551 19.0829 29.9926 19.0939C30.5788 19.1184 30.5397 19.4218 30.4552 19.5099C30.1798 19.7961 31.0537 19.9821 31.039 20.6378C31.1687 20.6464 31.3731 20.6696 31.3854 20.7406C31.4098 20.8727 31.0463 20.8629 31.0463 20.8629C30.4882 20.5901 30.9643 20.8617 30.0648 20.5815V20.5852ZM31.0439 20.9008C31.0394 20.9366 31.0454 20.9729 31.0613 21.0053C31.0771 21.0377 31.1022 21.0647 31.1332 21.0831C31.1013 21.0647 31.0756 21.0371 31.0595 21.004C31.0433 20.9708 31.0375 20.9336 31.0427 20.8971L31.0439 20.9008ZM31.9177 48.9618C31.6265 48.9019 31.5347 48.2718 31.9851 48.3085C32.7806 48.3734 33.7058 48.196 33.7499 48.4871C33.9971 50.0946 32.8675 49.1563 31.9165 48.9581L31.9177 48.9618ZM43.0073 56.8071C42.5973 56.0731 44.1088 56.0731 44.2862 56.4548C44.6828 57.2928 43.2362 57.2034 43.011 56.8034L43.0073 56.8071ZM50.752 52.3321C50.752 51.9516 51.6283 52.0409 51.7727 52.2587C52.1093 52.759 50.7642 52.8484 50.7557 52.3284L50.752 52.3321ZM67.3502 54.7519C67.1409 54.7176 67.0908 54.5965 67.1055 54.4913C67.1483 54.1928 67.9475 54.2148 67.9095 54.55C67.8545 54.6173 67.781 54.8204 67.3539 54.7482L67.3502 54.7519ZM79.5388 50.6745C79.8056 50.7136 79.9623 50.9253 79.824 51.0488C79.6025 51.2387 79.3672 51.4121 79.1203 51.5675C78.862 51.7351 78.0983 51.4623 78.4606 51.2103C78.9514 50.869 78.7054 50.5485 79.5425 50.6708L79.5388 50.6745ZM78.9563 53.5824C78.2146 53.4784 78.233 53.6484 77.7703 53.4918C77.2037 53.2998 76.9222 53.2362 77.0629 53.0367C77.1767 52.8753 77.4974 52.8826 77.9355 52.8398C78.4532 52.9413 78.5291 53.0429 79.1741 52.9266C79.9782 52.786 80.2964 53.7732 78.9563 53.5824ZM79.6098 52.5511C78.8486 52.3162 78.8951 51.7779 79.5866 51.8171C80.6758 51.8893 80.3454 52.7798 79.6098 52.5535V52.5511ZM82.6255 50.7234C81.7846 50.6953 82.0001 50.0934 82.6365 49.9967C83.2729 49.9001 83.4075 50.568 82.6255 50.7259V50.7234ZM87.3986 54.6002C87.3986 54.5194 87.5026 54.4522 87.5516 54.4864C87.8208 54.6748 87.4145 54.8351 87.4022 54.6026L87.3986 54.6002ZM89.38 24.1255C89.3923 24.4375 88.5808 24.4289 88.456 24.1781C88.292 23.8552 89.2699 23.6105 89.38 24.1255ZM87.3141 42.6861C86.8491 42.9797 86.0168 42.7497 86.3057 42.3191C86.4134 42.1564 86.5357 41.9961 86.6642 41.8383C86.745 41.7392 87.1966 41.7001 87.3129 41.7857C87.4965 41.9215 87.5577 42.0964 87.8294 42.2065C87.9726 42.2591 87.4218 42.6176 87.3141 42.6861ZM89.0985 38.3628C88.3312 38.3322 87.8685 38.3701 87.8404 38.0472C87.7792 37.3658 88.5747 37.7083 89.3715 37.7866C90.0287 37.8526 89.7864 38.4007 89.0985 38.3628ZM98.8467 44.0183C98.985 44.5235 97.9117 44.5578 97.8676 44.3449C97.7232 43.7124 98.7782 43.7956 98.8406 44.0183H98.8467ZM94.3184 43.2512C94.0862 43.1824 93.8467 43.1413 93.6049 43.1289C93.8434 43.1423 94.0795 43.1834 94.3086 43.2512H94.3184ZM93.3393 40.5097C92.4202 40.9917 94.6195 40.5097 93.3319 40.5097H93.3393ZM93.3393 25.3831C93.2751 25.3796 93.2117 25.3991 93.1606 25.4382C93.209 25.4013 93.2686 25.3819 93.3295 25.3831H93.3393ZM92.7702 38.6576C92.9893 38.2612 93.7297 38.4594 93.8031 38.2233C94.0724 37.3425 95.7809 38.468 93.8484 38.3628C93.7554 38.3628 93.611 38.4423 93.6355 38.4851C93.8227 38.8191 93.8203 39.1677 93.9378 39.5078C94.0712 39.8907 93.7334 40.0326 93.5498 40.2271L92.8301 40.2565C92.0089 39.5213 92.5254 39.1249 92.7702 38.6576ZM90.5672 38.1462L90.4803 38.1279L90.3861 38.1352C90.3041 37.8575 90.1572 37.8453 91.0237 37.9346C90.5807 37.8893 90.6896 37.8355 90.5672 38.1462ZM91.9747 42.4071C91.7776 42.3252 91.4998 42.324 91.2819 42.2628C91.4961 42.3276 91.7739 42.3276 91.971 42.4071H91.9747ZM92.9121 44.8049C92.9073 44.8009 92.902 44.7976 92.8962 44.7951C92.9007 44.7979 92.9048 44.8012 92.9085 44.8049H92.9121Z" fill="#D7E6EA"/>
<path fill-rule="evenodd" clip-rule="evenodd" d="M40.3428 15.0153C40.207 14.9945 40.0418 14.9737 39.9598 15.0348C39.8447 15.1205 40.2168 15.1278 40.3428 15.0153Z" fill="#D7E6EA"/>
<path fill-rule="evenodd" clip-rule="evenodd" d="M35.7749 13.6357C35.7648 13.6205 35.7279 13.6192 35.7749 13.6357Z" fill="#D7E6EA"/>
<path fill-rule="evenodd" clip-rule="evenodd" d="M96.6473 48.7734C96.7697 48.5556 96.9778 48.4883 96.7208 48.3244C96.6363 48.2706 96.6706 48.2804 96.5714 48.3366C96.3744 48.4443 96.5408 48.5666 96.6473 48.7734Z" fill="#D7E6EA"/>
<path fill-rule="evenodd" clip-rule="evenodd" d="M52.2964 58.0365L52.2793 58.0463C52.3197 58.0524 52.3319 58.0585 52.2964 58.0365Z" fill="#D7E6EA"/>
<path fill-rule="evenodd" clip-rule="evenodd" d="M52.9108 58.5185C52.9874 58.5504 53.0485 58.611 53.0809 58.6873C53.2975 59.3198 52.7137 59.4739 52.6281 59.666C52.5142 59.918 52.8068 60.2092 52.3111 60.3046C51.5009 60.4599 51.7297 59.7578 51.1288 59.8152C50.6331 59.8605 50.4765 59.8471 50.3945 60.1553C50.3272 60.4 50.2562 60.4991 50.5046 60.6447C51.3051 61.1218 50.4104 61.2307 50.4031 61.4802C50.3957 61.6882 51.4323 61.1548 51.8007 61.8105C52.0345 62.224 52.0174 62.3255 52.1679 62.4944C52.3184 62.6632 52.6942 62.6999 52.8349 62.8699C52.8888 62.9348 53.2168 62.9923 53.3795 62.9397C53.5423 62.8871 53.2645 62.8173 53.1641 62.6754C53.0503 62.5103 53.4493 62.3243 53.6255 62.3989C54.0429 62.5727 54.5887 62.4882 55.0305 62.6057C55.1091 62.6234 55.1906 62.6234 55.2692 62.6057C57.4269 62.0038 55.503 62.3206 55.547 61.353C55.569 60.8502 55.4161 60.7217 55.104 60.6667C54.202 60.5089 54.0673 59.6183 55.3316 59.7296C56.0023 59.7883 55.219 59.3479 56.3303 59.2525C56.8125 59.2121 57.2653 59.091 57.772 59.1069C58.2249 59.1192 58.2016 58.5295 57.8467 58.6494C57.1515 58.888 57.3938 59.1938 56.3425 58.8133C56.0647 58.713 55.3916 58.6017 54.9865 58.5148C54.3403 58.3754 55.0085 57.7417 54.3843 57.9215C54.2558 57.9594 54.2277 58.2885 53.7161 58.1833C53.1507 58.061 52.8349 58.1417 52.3196 58.061C52.5363 58.2004 52.6268 58.3925 52.9108 58.5185Z" fill="#D7E6EA"/>
<path fill-rule="evenodd" clip-rule="evenodd" d="M81.6818 60.5406C81.1531 60.3975 81.0343 60.1736 80.5118 60.318C80.2596 60.3865 79.9781 60.4146 79.7285 60.4978C79.1165 60.7009 78.3822 60.1027 79.3992 59.9645C79.5057 59.9498 79.551 59.9277 79.5216 59.8923C79.4311 59.7761 78.5291 59.7614 78.8509 59.0934C78.9587 58.872 78.6992 58.8365 77.8437 58.505C77.4019 58.6114 77.0078 58.6824 77.0996 58.7766C77.4227 59.1106 77.222 59.7981 76.3995 59.7222C76.178 59.7014 75.4278 60.044 75.2442 59.6868C75.1943 59.5432 75.1058 59.4162 74.9884 59.3198C74.8844 59.2759 74.7682 59.2703 74.6604 59.3038C73.9946 59.6855 74.3471 60.0268 74.5992 60.3938C74.7938 60.6764 74.8562 60.6826 75.3849 60.5614C75.612 60.5025 75.8256 60.4003 76.014 60.2605C76.2747 60.0917 76.9564 60.0427 77.266 60.099C77.5047 60.1418 77.6246 60.0538 77.7752 59.9767C77.9092 59.9086 78.0571 59.8719 78.2075 59.8696C78.3578 59.8673 78.5068 59.8993 78.6429 59.9632C79.0284 60.1932 78.6625 60.8391 77.8767 60.7229C77.5879 60.6789 77.0678 60.5088 77.02 60.7095C76.9111 61.222 78.3406 60.5529 78.7335 61.0434C78.9782 61.3529 79.4678 61.2661 79.8631 61.5034C80.0344 61.6074 80.5558 61.4875 80.8238 61.8472C81.0148 62.1041 80.9291 62.0918 81.519 62.1273C81.5864 62.1331 81.6543 62.1239 81.7177 62.1004C81.7812 62.0769 81.8387 62.0398 81.8862 61.9915C82.2643 61.6098 82.2766 61.6086 81.8862 61.2306C81.4321 60.7878 82.2252 60.6887 81.6818 60.5406Z" fill="#D7E6EA"/>
<path fill-rule="evenodd" clip-rule="evenodd" d="M93.4102 60.1529C92.5376 60.4746 92.0101 60.2471 90.818 60.4795C90.6014 60.5211 90.3578 60.5957 89.6309 60.4697C89.3457 60.4208 89.3335 60.2459 89.1964 60.0954C89.0018 59.8825 88.6248 60.0673 88.3739 60.1468C87.762 60.3376 87.3238 59.9021 87.1501 60.2826C87.1195 60.3511 86.953 60.6496 87.2223 60.6973C88.2234 60.86 88.112 61.227 88.8366 61.2331C89.3261 61.2331 89.5513 61.5744 90.6589 61.5096C91.0444 61.4876 91.2243 61.6943 91.3565 61.8264C91.5389 62.0075 92.294 61.9365 92.5571 61.7897C92.9329 61.5781 93.5509 61.4655 93.4995 61.079C93.4653 60.8123 93.5754 60.5652 93.8496 60.3376C94.0001 60.2128 93.5473 60.1015 93.4102 60.1529Z" fill="#D7E6EA"/>
<path fill-rule="evenodd" clip-rule="evenodd" d="M82.465 8.12908C81.8457 8.23551 82.0648 7.97127 80.8629 8.52789C80.7332 8.58783 80.9792 8.75053 81.1457 8.92302C81.235 9.01722 81.1457 9.14445 81.3647 9.22764C81.6279 9.09674 81.8837 8.96339 82.1566 8.83861C82.4895 8.6857 83.1014 8.77011 83.2801 8.99153C83.3266 9.05148 83.3193 9.14445 83.4025 9.17014C83.8027 9.30226 83.8051 9.53714 83.9594 9.72921C84.1136 9.92127 84.4942 9.3622 84.2604 9.10163C84.1858 9.016 84.1919 9.02211 84.2678 7.60671C84.3033 6.90574 84.1527 7.18588 84.236 6.24146C84.2543 6.02738 84.1772 5.83776 83.81 5.74112C83.5298 5.66771 83.5751 5.95031 83.3951 6.20843C83.1161 6.61213 83.4869 6.75159 83.4686 7.23237C83.449 7.67522 82.9215 8.05078 82.465 8.12908Z" fill="#D7E6EA"/>
<path fill-rule="evenodd" clip-rule="evenodd" d="M105.621 41.574C105.621 41.3795 105.638 41.1972 105.021 41.1654C104.137 41.1201 104.059 40.3359 103.397 41.3195C103.022 41.8761 103.5 41.9923 103.708 42.1416C104.52 42.7251 103.972 42.8756 104.075 43.305C104.212 43.8714 103.249 43.7686 103.634 44.1736C104.136 44.7008 103.994 44.7987 104.476 44.8293C104.766 44.8476 104.987 44.4843 104.966 44.2947C104.869 43.2218 105.533 43.3649 105.19 42.9025C105.012 42.6578 105.039 42.434 105.35 42.2297C105.588 42.0731 105.558 41.9605 105.621 41.574Z" fill="#D7E6EA"/>
<path fill-rule="evenodd" clip-rule="evenodd" d="M65.6808 65.8084C65.4837 65.976 65.0897 66.4616 64.4104 66.1754C64.0432 66.0224 63.3726 66.1374 63.4509 66.3956C63.5047 66.5742 63.9233 66.3662 64.4214 66.4237C64.7311 66.4592 64.9036 66.5228 64.8987 66.6684C64.8792 67.1846 64.9905 67.7058 64.7152 68.2134C64.6833 68.2722 64.8375 68.359 65.0615 68.3199C65.2475 68.2881 65.2879 68.211 65.4678 68.0116C65.5302 67.9419 65.5596 67.9932 65.4678 67.8893C65.332 67.7376 64.8706 66.5338 66.2768 66.8678C66.3097 66.883 66.3442 66.8945 66.3796 66.902C66.4537 66.9114 66.5288 66.9069 66.6011 66.8886C67.557 66.19 66.8398 66.2035 67.6365 65.8977C67.8397 65.8206 68.1359 65.4279 68.1946 65.3288C69.0318 63.9367 68.317 64.5544 67.7797 64.5948C67.4615 64.6193 67.0919 65.0707 67.3857 65.3203C67.6011 65.505 67.3856 66.091 66.6831 66.1595C66.5852 66.1692 66.2817 66.4396 66.1703 66.5081C66.059 66.5766 65.6979 66.5228 65.6502 66.4384C65.5388 66.2414 65.5621 66.0543 65.7652 65.8744C65.7983 65.8463 65.7089 65.7851 65.6808 65.8084Z" fill="#D7E6EA"/>
<path fill-rule="evenodd" clip-rule="evenodd" d="M65.5327 67.9651L65.5682 68.0055C65.5609 67.9785 65.5486 67.9651 65.5327 67.9651Z" fill="#D7E6EA"/>
<path fill-rule="evenodd" clip-rule="evenodd" d="M7.09864 16.0625C7.10843 16.2166 7.5527 16.3549 7.81094 16.2913C9.48031 15.8778 9.19637 17.1757 9.72386 16.8454C9.87278 16.7736 9.9965 16.6585 10.0788 16.5151C10.1118 16.4332 10.2917 16.3585 10.2807 16.2864C10.2697 16.2142 10.0825 16.1726 9.96864 16.1188C9.91105 16.0931 9.86208 16.0515 9.82757 15.9988C9.79306 15.946 9.77447 15.8845 9.77404 15.8215C9.71774 15.5548 8.95404 15.5964 8.62115 15.4704C8.62849 15.6417 8.41798 15.6661 7.69222 15.6698C7.3422 15.6698 7.27121 15.5059 7.1427 15.441C6.99707 15.409 6.8447 15.4325 6.71557 15.5071C6.52342 15.6845 7.06927 15.5768 7.09864 16.0625Z" fill="#D7E6EA"/>
<path fill-rule="evenodd" clip-rule="evenodd" d="M8.42287 15.353C8.66765 15.5462 8.62481 15.4276 8.59666 15.3603C8.56852 15.293 8.30905 15.26 8.42287 15.353Z" fill="#D7E6EA"/>
<path fill-rule="evenodd" clip-rule="evenodd" d="M14.2131 16.257C14.2544 16.2559 14.2955 16.2501 14.3355 16.2399C14.2944 16.2427 14.2535 16.2484 14.2131 16.257Z" fill="#D7E6EA"/>
<path fill-rule="evenodd" clip-rule="evenodd" d="M14.5801 16.1346C14.3109 16.2423 14.2888 16.257 14.6193 16.2129C14.7135 16.1995 14.7294 16.0759 14.5801 16.1346Z" fill="#D7E6EA"/>
<path fill-rule="evenodd" clip-rule="evenodd" d="M36.2697 11.415C35.5464 11.2927 35.7374 11.7184 35.3751 11.6756C35.0581 11.6376 34.7203 11.7208 34.4131 11.6279C34.3519 11.6083 34.2295 11.6609 34.2907 11.6976C34.7325 11.9802 34.4878 12.3007 35.0165 12.4817C35.3726 12.6041 35.4595 12.0108 36.1816 12.034C36.9037 12.0572 36.6859 11.9985 37.5279 12.0915C37.6356 12.1025 37.6919 12.0829 37.6943 12.0242C37.6943 12.0034 37.709 11.9777 37.6943 11.9631C37.206 11.5226 37.0604 11.5557 36.2697 11.415Z" fill="#D7E6EA"/>
<path fill-rule="evenodd" clip-rule="evenodd" d="M69.2802 69.772C69.525 69.7598 69.5335 69.7488 69.6045 69.6277C69.7343 69.4038 70.5469 67.8306 70.1675 67.7083C69.9949 67.6508 69.8934 67.6789 68.9289 68.0569C68.4712 68.2355 68.8959 68.5316 69.104 68.7518C69.5788 69.2533 68.8421 69.7892 69.2802 69.772Z" fill="#D7E6EA"/>
<path fill-rule="evenodd" clip-rule="evenodd" d="M74.2369 65.4182C74.0031 65.5001 73.9652 65.7644 74.631 65.7277C74.4769 65.6572 74.3418 65.5511 74.2369 65.4182Z" fill="#D7E6EA"/>
<path fill-rule="evenodd" clip-rule="evenodd" d="M77.0592 65.6542C76.7617 65.4622 76.5194 65.872 75.4461 65.7252C75.2222 65.7106 74.9974 65.7197 74.7754 65.7521C75.1254 65.8744 76.1535 65.8928 76.4399 66.0384C77.1742 66.4054 77.3382 65.7594 78.048 66.1301C78.1594 66.1888 78.2867 66.1215 78.2647 66.0494C78.119 65.5882 77.6074 66.0078 77.0592 65.6542Z" fill="#D7E6EA"/>
<path fill-rule="evenodd" clip-rule="evenodd" d="M74.7791 65.7521L74.7338 65.735C74.6567 65.7032 74.5869 65.7496 74.7791 65.7521Z" fill="#D7E6EA"/>
<path fill-rule="evenodd" clip-rule="evenodd" d="M51.3725 57.2584C50.5635 57.2303 51.0432 56.982 49.7814 57.0333C49.5171 57.0431 49.7276 57.3208 49.9772 57.371C50.8242 57.541 50.3701 58.1429 51.1485 57.9508C52.0052 57.7404 52.0676 58.1295 52.1092 57.6059C52.1215 57.4089 51.7702 57.2719 51.3725 57.2584Z" fill="#D7E6EA"/>
<path fill-rule="evenodd" clip-rule="evenodd" d="M52.2965 58.0365C52.2243 57.8885 52.0591 57.8726 52.0517 57.9264C52.0358 58.0059 52.2598 58.061 52.2965 58.0365Z" fill="#D7E6EA"/>
<path fill-rule="evenodd" clip-rule="evenodd" d="M85.8173 12.9136C85.8956 13.0922 86.4292 13.0004 86.5124 12.9258C86.5956 12.8512 87.68 12.0144 87.0693 11.9043C86.2652 11.7587 85.7744 11.6474 85.7499 11.9251C85.7242 12.226 85.6508 12.3459 86.0449 12.4144C86.4133 12.4781 85.679 12.6004 85.8173 12.9136Z" fill="#D7E6EA"/>
<path fill-rule="evenodd" clip-rule="evenodd" d="M84.9373 56.4486C85.876 56.3825 86.1612 56.3764 86.0841 56.2541C85.9139 56.0021 85.4342 55.9091 85.0536 55.6693C85.0009 55.8761 84.5163 56.4779 84.9373 56.4486Z" fill="#D7E6EA"/>
<path fill-rule="evenodd" clip-rule="evenodd" d="M85.0597 55.5568C85.0326 55.5064 84.9988 55.4599 84.9593 55.4186C84.8259 55.5837 85.1588 55.7636 85.0597 55.5568Z" fill="#D7E6EA"/>
<path fill-rule="evenodd" clip-rule="evenodd" d="M18.3473 13.8409C17.9067 13.8494 17.5371 13.8115 17.4294 13.5375C17.3572 13.3515 17.1736 13.5228 16.4736 13.5693C16.2019 13.5864 16.1407 13.7516 15.9057 13.7944C14.65 14.0195 16.6841 14.0268 17.4967 14.1993C17.6448 14.2311 18.3069 14.0978 18.526 13.9155C18.4648 13.8886 18.4049 13.8397 18.3473 13.8409Z" fill="#D7E6EA"/>
<path fill-rule="evenodd" clip-rule="evenodd" d="M59.4195 66.9093C59.9335 67.006 59.8172 67.1344 60.3839 67.2592C60.9358 67.0207 60.8514 66.7699 61.5857 66.1582C61.6408 66.1117 61.4413 66.0359 61.3728 66.0432C60.6274 66.1252 60.7143 66.4714 60.0265 66.546C59.4292 66.6145 59.2359 66.8739 59.4195 66.9093Z" fill="#D7E6EA"/>
<path fill-rule="evenodd" clip-rule="evenodd" d="M45.8613 60.4844C46.1329 60.5228 46.3904 60.6288 46.6103 60.7927C47.1084 61.1903 48.0251 61.2208 47.7412 60.6508C47.6188 60.4147 47.5747 60.3792 46.8392 60.1749C46.7168 60.1394 46.6115 60.126 45.8026 60.2703C45.7034 60.2887 45.7316 60.4599 45.8613 60.4844Z" fill="#D7E6EA"/>
<path fill-rule="evenodd" clip-rule="evenodd" d="M87.1402 64.2254C87.1537 64.1716 87.0729 64.103 87.0068 64.0553C86.8232 63.9171 86.4255 64.0798 86.483 64.2229C86.6653 64.6658 85.8196 64.9753 86.2933 64.9753C86.9444 64.9753 87.0068 65.182 87.5637 64.9826C88.1205 64.7832 87.0093 64.7502 87.1402 64.2254Z" fill="#D7E6EA"/>
<path fill-rule="evenodd" clip-rule="evenodd" d="M70.9851 64.3477C71.1626 64.426 71.3792 64.3734 71.6191 64.3856C72.1784 64.437 72.4305 64.541 72.3387 63.8621C72.3167 63.692 72.537 63.5844 72.6581 63.451C72.6961 63.4082 72.5455 63.3287 72.4305 63.3287C71.9985 63.3287 71.985 63.451 71.8797 63.7507C71.799 63.9832 71.4502 63.9355 71.2348 63.9868C71.0194 64.0382 70.7403 64.2352 70.9851 64.3477Z" fill="#D7E6EA"/>
<path fill-rule="evenodd" clip-rule="evenodd" d="M15.2056 54.9537C14.8262 54.8521 14.7002 55.0222 14.016 55.5776C13.7933 55.7574 14.1861 56.029 14.3147 55.996C15.1934 55.7623 15.3011 55.6999 15.3623 55.5861C15.574 55.1849 15.5361 55.043 15.2056 54.9537Z" fill="#D7E6EA"/>
<path fill-rule="evenodd" clip-rule="evenodd" d="M32.3448 9.47843C32.302 9.45274 31.1589 9.48577 30.7036 9.63502C30.4588 9.71576 31.1846 10.0705 31.9715 9.94085C32.6789 9.81852 32.8809 10.0901 33.2419 9.94085C33.3716 9.88702 33.7731 9.66437 33.3753 9.61911C33.0302 9.57507 32.6349 9.64236 32.3448 9.47843Z" fill="#D7E6EA"/>
<path fill-rule="evenodd" clip-rule="evenodd" d="M40.9865 65.845C41.361 65.8854 41.5923 66.0481 41.9142 66.1301C42.0476 66.1643 42.2557 66.0616 42.1945 65.9943C42.0274 65.8263 41.9119 65.6141 41.8616 65.3826C41.8102 65.0792 40.9253 65.1869 40.9106 65.4805C40.9057 65.571 40.8482 65.8316 40.9865 65.845Z" fill="#D7E6EA"/>
<path fill-rule="evenodd" clip-rule="evenodd" d="M60.2994 62.8516C59.7119 63.3018 61.6077 64.0871 61.1989 62.5873C61.1549 62.4271 60.5674 62.6461 60.2994 62.8516Z" fill="#D7E6EA"/>
<path fill-rule="evenodd" clip-rule="evenodd" d="M72.6863 62.0723C72.7536 62.1347 73.1391 62.06 73.1893 61.8545C73.1342 61.8178 73.0804 61.7395 72.991 61.7322C72.6863 61.6857 72.3791 61.6099 72.0462 61.6894C71.6264 61.7909 71.2262 61.452 71.2127 61.6649C71.1944 61.9438 72.1625 61.6001 72.6863 62.0723Z" fill="#D7E6EA"/>
<path fill-rule="evenodd" clip-rule="evenodd" d="M67.8091 60.8978C67.9144 60.904 68.0392 60.8171 68.0062 60.7608C67.5533 59.9913 67.628 60.8526 66.6697 60.6091C66.513 60.57 66.5351 60.5088 66.2328 60.5529C66.1471 60.5651 66.1336 60.6752 66.2095 60.7254C66.5596 60.9725 66.5987 60.8257 67.8091 60.8978Z" fill="#D7E6EA"/>
<path fill-rule="evenodd" clip-rule="evenodd" d="M100.248 21.0207C99.9885 21.2861 99.6862 21.9039 99.8147 21.9565C100.304 22.1559 100.473 21.5773 100.78 21.1516C100.884 21.0072 100.413 20.8518 100.248 21.0207Z" fill="#D7E6EA"/>
<path fill-rule="evenodd" clip-rule="evenodd" d="M68.421 62.1017C69.7746 61.7921 68.9448 61.7518 68.8004 61.5328C68.7894 61.5169 68.7392 61.5071 68.7062 61.4937C67.754 61.6453 68.011 62.1958 68.421 62.1017Z" fill="#D7E6EA"/>
<path fill-rule="evenodd" clip-rule="evenodd" d="M33.204 58.5026C33.5907 58.0744 32.7315 57.9472 32.5186 57.8909C32.2555 57.8249 32.2089 58.2334 32.6875 58.4903C32.8074 58.5552 33.1195 58.598 33.204 58.5026Z" fill="#D7E6EA"/>
<path fill-rule="evenodd" clip-rule="evenodd" d="M102.281 39.3084C102.291 39.2656 102.3 39.224 102.308 39.186C102.368 38.8337 101.624 38.8178 102.281 39.3084Z" fill="#D7E6EA"/>
<path fill-rule="evenodd" clip-rule="evenodd" d="M102.009 38.8851C102.03 38.8913 102.055 38.8975 102.075 38.9049C102.094 38.9123 102.107 38.9024 102.009 38.8851Z" fill="#D7E6EA"/>
<path fill-rule="evenodd" clip-rule="evenodd" d="M102.178 39.6864C102.226 39.8405 102.232 39.9727 102.393 39.9311C102.516 39.9017 102.715 39.7121 102.403 39.4038C102.261 39.2692 102.287 39.2692 102.178 39.6864Z" fill="#D7E6EA"/>
<path fill-rule="evenodd" clip-rule="evenodd" d="M75.8365 10.5207C75.8399 10.4327 75.8126 10.3462 75.7594 10.2761C75.7251 10.2406 75.6468 10.1806 75.6186 10.1855C75.5105 10.192 75.4054 10.2234 75.3114 10.2773C75.1682 10.4534 75.0923 10.8584 75.2563 10.8889C75.8218 10.9844 75.7716 10.9269 75.8365 10.5207Z" fill="#D7E6EA"/>
<path fill-rule="evenodd" clip-rule="evenodd" d="M1.1665 20.82C1.28422 20.9635 1.45145 21.0578 1.63525 21.0842C1.63892 20.9778 1.6377 20.8922 1.1665 20.82Z" fill="#D7E6EA"/>
<path fill-rule="evenodd" clip-rule="evenodd" d="M0.0882262 20.6561C0.0160174 20.6623 -0.0635346 20.7785 0.0796591 20.7858C0.446822 20.7968 0.807866 20.7638 1.16646 20.8201C0.920463 20.6182 0.512912 20.6121 0.0882262 20.6561Z" fill="#D7E6EA"/>
<path fill-rule="evenodd" clip-rule="evenodd" d="M46.1892 11.7771C46.2577 12.2542 46.6543 12.5759 46.8464 12.0939C46.6298 10.8302 46.1745 11.6829 46.1892 11.7771Z" fill="#D7E6EA"/>
<path fill-rule="evenodd" clip-rule="evenodd" d="M59.1379 8.00309C59.0094 8.00309 59.0608 8.12543 59.226 8.60498C59.2603 8.70896 60.3385 8.86188 59.8489 8.56094C59.3692 8.31138 59.4585 7.98964 59.1379 8.00309Z" fill="#D7E6EA"/>
<path fill-rule="evenodd" clip-rule="evenodd" d="M101.193 54.5267C100.826 54.643 100.188 54.7494 100.516 55.1323C100.593 55.2216 101.367 54.7494 101.193 54.5267Z" fill="#D7E6EA"/>
<path fill-rule="evenodd" clip-rule="evenodd" d="M52.5266 68.7138C52.4801 68.7101 52.4338 68.7226 52.3955 68.7491C52.3572 68.7757 52.3292 68.8147 52.3164 68.8595C52.3036 68.9043 52.3066 68.9522 52.3251 68.995C52.3436 69.0378 52.3763 69.0728 52.4177 69.0943C53.3625 69.3316 53.6085 69.7243 53.4494 68.7725C53.4359 68.693 52.671 68.7016 52.5266 68.7138Z" fill="#D7E6EA"/>
<path fill-rule="evenodd" clip-rule="evenodd" d="M89.156 53.3377C89.5929 53.1591 89.85 53.0722 89.0544 53.0172C87.4707 53.093 88.6163 53.5591 89.156 53.3377Z" fill="#D7E6EA"/>
<path fill-rule="evenodd" clip-rule="evenodd" d="M26.5583 8.84475C26.7908 9.13223 28.0061 8.75789 27.6267 8.73954C26.8373 8.70162 26.3992 8.65513 26.5583 8.84475Z" fill="#D7E6EA"/>
<path fill-rule="evenodd" clip-rule="evenodd" d="M43.5113 9.57505C44.2212 9.66191 44.1232 9.63377 43.8418 9.44048C43.7478 9.36934 43.6488 9.30515 43.5456 9.24842C43.3767 9.16156 43.0181 9.51633 43.5113 9.57505Z" fill="#D7E6EA"/>
<path fill-rule="evenodd" clip-rule="evenodd" d="M45.406 14.0794C45.0927 14.2103 45.3154 14.5333 45.7878 14.4953C46.1734 14.4648 45.6153 13.995 45.406 14.0794Z" fill="#D7E6EA"/>
<path fill-rule="evenodd" clip-rule="evenodd" d="M4.8112 26.3582C4.70228 26.1624 4.14664 26.0315 4.02914 26.2358C3.86759 26.5172 4.91768 26.5465 4.8112 26.3582Z" fill="#D7E6EA"/>
<path fill-rule="evenodd" clip-rule="evenodd" d="M66.8838 68.545C66.8483 68.7224 67.0698 68.967 67.3941 68.967C67.6695 68.9206 67.6585 68.7138 67.5863 68.6453C67.4162 68.4838 66.8997 68.4594 66.8838 68.545Z" fill="#D7E6EA"/>
<path fill-rule="evenodd" clip-rule="evenodd" d="M77.0787 63.6052C77.3957 63.6578 77.244 62.9592 77.0408 62.9739C76.6479 63.0021 76.8193 63.5611 77.0787 63.6052Z" fill="#D7E6EA"/>
<path fill-rule="evenodd" clip-rule="evenodd" d="M87.1733 62.2008C87.139 62.3598 87.4854 62.4283 87.7461 62.2999C87.8195 62.0993 87.3018 61.5928 87.1733 62.2008Z" fill="#D7E6EA"/>
<path fill-rule="evenodd" clip-rule="evenodd" d="M7.52449 14.8183C7.13163 14.5565 6.49154 14.5847 6.53804 14.7156C6.68124 15.1205 7.38374 14.8575 7.52449 14.8183Z" fill="#D7E6EA"/>
<path fill-rule="evenodd" clip-rule="evenodd" d="M61.3617 58.4255C61.3872 58.3949 61.4058 58.3591 61.4161 58.3206C61.4264 58.2822 61.4281 58.2419 61.4213 58.2026C61.4144 58.1634 61.399 58.1261 61.3763 58.0934C61.3535 58.0607 61.3239 58.0333 61.2895 58.0132C61.1671 58.0707 61.0765 58.0255 61.0985 58.3986C61.101 58.4341 61.3066 58.4928 61.3617 58.4255Z" fill="#D7E6EA"/>
<path fill-rule="evenodd" clip-rule="evenodd" d="M49.6186 58.4537C49.7495 58.4757 50.0029 58.3044 49.9405 58.1711C49.4595 58.0341 49.293 58.3986 49.6186 58.4537Z" fill="#D7E6EA"/>
<path fill-rule="evenodd" clip-rule="evenodd" d="M88.6836 17.0986C88.4106 17.2124 88.7105 17.5244 89.0042 17.3873C89.26 17.2699 88.8537 17.0301 88.6836 17.0986Z" fill="#D7E6EA"/>
<path fill-rule="evenodd" clip-rule="evenodd" d="M88.4865 19.0229C88.38 19.3899 89.2551 19.1746 88.9663 18.9813C88.708 18.8101 88.5183 18.7954 88.4865 19.0229Z" fill="#D7E6EA"/>
<path fill-rule="evenodd" clip-rule="evenodd" d="M89.2134 64.8297C89.2612 64.8297 89.3114 64.8419 89.3358 64.8468C90.1754 64.8468 89.5414 64.4774 89.2134 64.8297Z" fill="#D7E6EA"/>
<path fill-rule="evenodd" clip-rule="evenodd" d="M45.6973 64.9398C46.0143 64.8664 45.9996 64.6853 45.7598 64.7098C45.4195 64.7465 45.493 64.9875 45.6973 64.9398Z" fill="#D7E6EA"/>
<path fill-rule="evenodd" clip-rule="evenodd" d="M101.911 47.1916C101.829 47.1721 101.767 47.1916 101.747 47.2491C101.669 47.4571 101.617 47.5097 101.737 47.5476C101.952 47.6149 101.938 47.4485 101.949 47.38C101.949 47.3666 101.934 47.1965 101.911 47.1916Z" fill="#D7E6EA"/>
<path fill-rule="evenodd" clip-rule="evenodd" d="M3.38057 29.3748C3.37507 29.3775 3.37018 29.3813 3.36623 29.386C3.36228 29.3907 3.35935 29.3961 3.35763 29.402C3.3559 29.4078 3.35541 29.414 3.3562 29.4201C3.35699 29.4261 3.35904 29.432 3.36221 29.4372C3.49928 29.5595 3.78812 29.5351 3.98516 29.6036C4.00159 29.5969 4.01754 29.5892 4.03289 29.5803C3.85788 29.491 3.73549 29.195 3.38057 29.3748Z" fill="#D7E6EA"/>
<path fill-rule="evenodd" clip-rule="evenodd" d="M40.8373 9.64973C40.7149 9.7794 41.0527 9.96902 41.2669 9.7427C41.3378 9.67052 41.0001 9.47601 40.8373 9.64973Z" fill="#D7E6EA"/>
<path fill-rule="evenodd" clip-rule="evenodd" d="M105.754 39.3096C105.877 39.3561 106.08 39.2374 105.967 39.1762C105.649 39.005 105.303 39.1383 105.754 39.3096Z" fill="#D7E6EA"/>
<path fill-rule="evenodd" clip-rule="evenodd" d="M75.3298 14.3131C75.3995 14.5003 75.8193 14.3376 75.5231 14.181C75.3616 14.0917 75.3053 14.2397 75.3298 14.3131Z" fill="#D7E6EA"/>
<path fill-rule="evenodd" clip-rule="evenodd" d="M68.6013 61.0585L68.6322 61.0227C68.5371 61.0252 68.5457 61.0165 68.6013 61.0585Z" fill="#D7E6EA"/>
<path fill-rule="evenodd" clip-rule="evenodd" d="M2.58607 45.7627C2.6852 45.8166 2.66072 45.819 2.75496 45.7163C2.73293 45.5927 2.40493 45.6661 2.58607 45.7627Z" fill="#D7E6EA"/>
<path fill-rule="evenodd" clip-rule="evenodd" d="M9.11564 20.2121C9.18907 20.2121 9.26495 20.2121 9.33838 20.2182C9.33838 20.1827 9.35674 20.1325 9.3188 20.1117C9.21722 20.0543 9.08626 20.0102 9.18295 19.9172C8.88065 20.0738 8.97734 20.1998 9.11564 20.2121Z" fill="#D7E6EA"/>
<path fill-rule="evenodd" clip-rule="evenodd" d="M24.9672 56.374C25.0381 56.3678 24.9965 56.3813 24.9672 56.374Z" fill="#D7E6EA"/>
<path fill-rule="evenodd" clip-rule="evenodd" d="M99.3793 56.1107C99.4201 56.0909 99.4744 56.0675 99.4238 56.0304C99.3731 55.9934 99.3076 56.0181 99.3793 56.1107Z" fill="#D7E6EA"/>
<path fill-rule="evenodd" clip-rule="evenodd" d="M78.1489 66.6812L78.1365 66.6231C78.0834 66.6824 78.0834 66.6725 78.1489 66.6812Z" fill="#D7E6EA"/>
<path fill-rule="evenodd" clip-rule="evenodd" d="M31.0401 20.6426C31.0401 20.5276 30.6008 20.8616 31.0401 20.6426Z" fill="#D7E6EA"/>
<path fill-rule="evenodd" clip-rule="evenodd" d="M41.3488 42.5918C41.3488 42.5845 41.339 42.571 41.3329 42.5624C41.3268 42.5539 41.3451 42.5869 41.3488 42.5918Z" fill="#AED4EC"/>
<path fill-rule="evenodd" clip-rule="evenodd" d="M40.3513 36.8471C40.53 36.8201 40.7503 36.8776 40.8409 36.8324C40.8502 36.8285 40.8604 36.827 40.8704 36.828C40.8805 36.8291 40.8901 36.8327 40.8984 36.8385C40.9461 36.8825 40.9828 36.8483 41.0269 36.8287C41.1872 36.7541 41.115 36.9388 41.339 36.9364C41.7123 36.9364 41.7833 36.989 41.7735 36.8997C41.749 36.6807 40.5068 36.7051 40.3195 36.7883C40.2877 36.8018 40.333 36.8507 40.3513 36.8471Z" fill="#AED4EC"/>
<path fill-rule="evenodd" clip-rule="evenodd" d="M42.3173 46.047C42.3108 46.047 42.3082 46.0275 42.3173 46.047Z" fill="#AED4EC"/>
<path d="M35.3629 16.5739C34.5551 17.0938 33.7388 17.599 32.9262 18.1079C32.1135 18.6168 31.2947 19.1196 30.4784 19.6224L28.0196 21.1198L25.5535 22.6037L25.6539 22.4288C25.6539 23.98 25.6673 25.5312 25.6612 27.0775V29.4018L25.6429 31.7261L25.6159 34.0505C25.6074 34.8261 25.5927 35.6017 25.578 36.3748C25.5633 37.148 25.5437 37.9273 25.5241 38.6992C25.5046 39.4711 25.4862 40.2504 25.4568 41.0235C25.4275 40.2479 25.4079 39.4723 25.3883 38.6992C25.3687 37.926 25.3467 37.1468 25.3344 36.3748C25.3222 35.6029 25.3063 34.8236 25.2977 34.0505L25.2708 31.7261L25.2524 29.4018L25.2463 27.0775C25.239 25.5263 25.2463 23.9751 25.2537 22.4288V22.3064L25.3528 22.2489L27.8434 20.8054L30.3413 19.3753C31.176 18.9031 32.0095 18.4272 32.8491 17.9623C33.6886 17.4975 34.5135 17.0314 35.3629 16.5739Z" fill="url(#paint0_linear_169_2149)"/>
<mask id="mask0_169_2149" style="mask-type:luminance" maskUnits="userSpaceOnUse" x="23" y="40" width="5" height="6">
<path d="M25.4421 45.5829C26.769 45.5829 27.8446 44.5077 27.8446 43.1814C27.8446 41.8552 26.769 40.78 25.4421 40.78C24.1153 40.78 23.0397 41.8552 23.0397 43.1814C23.0397 44.5077 24.1153 45.5829 25.4421 45.5829Z" fill="white"/>
</mask>
<g mask="url(#mask0_169_2149)">
<path d="M23.0923 40.7783H23.0397V45.5824H23.0923V40.7783Z" fill="#FF5B00"/>
<path d="M23.1449 40.7789H23.0923V45.5829H23.1449V40.7789Z" fill="#FF5A00"/>
<path d="M23.1975 40.7789H23.1449V45.5829H23.1975V40.7789Z" fill="#FF5901"/>
<path d="M23.2501 40.7789H23.1975V45.5829H23.2501V40.7789Z" fill="#FF5801"/>
<path d="M23.3027 40.7789H23.2501V45.5829H23.3027V40.7789Z" fill="#FF5701"/>
<path d="M23.3554 40.7789H23.3027V45.5829H23.3554V40.7789Z" fill="#FF5601"/>
<path d="M23.4092 40.7789H23.3566V45.5829H23.4092V40.7789Z" fill="#FF5502"/>
<path d="M23.4619 40.7789H23.4093V45.5829H23.4619V40.7789Z" fill="#FF5402"/>
<path d="M23.5145 40.7789H23.4619V45.5829H23.5145V40.7789Z" fill="#FF5302"/>
<path d="M23.5672 40.7789H23.5145V45.5829H23.5672V40.7789Z" fill="#FF5203"/>
<path d="M23.6198 40.7789H23.5671V45.5829H23.6198V40.7789Z" fill="#FF5103"/>
<path d="M23.6724 40.7789H23.6198V45.5829H23.6724V40.7789Z" fill="#FF5003"/>
<path d="M23.7262 40.7789H23.6736V45.5829H23.7262V40.7789Z" fill="#FF4F03"/>
<path d="M23.7788 40.7789H23.7262V45.5829H23.7788V40.7789Z" fill="#FF4E04"/>
<path d="M23.8314 40.7789H23.7788V45.5829H23.8314V40.7789Z" fill="#FF4D04"/>
<path d="M23.8842 40.7789H23.8315V45.5829H23.8842V40.7789Z" fill="#FF4C04"/>
<path d="M23.9368 40.7789H23.8842V45.5829H23.9368V40.7789Z" fill="#FF4B05"/>
<path d="M23.9894 40.7789H23.9368V45.5829H23.9894V40.7789Z" fill="#FF4A05"/>
<path d="M24.042 40.7789H23.9894V45.5829H24.042V40.7789Z" fill="#FF4905"/>
<path d="M24.0958 40.7789H24.0432V45.5829H24.0958V40.7789Z" fill="#FF4805"/>
<path d="M24.1485 40.7789H24.0958V45.5829H24.1485V40.7789Z" fill="#FF4706"/>
<path d="M24.2011 40.7789H24.1484V45.5829H24.2011V40.7789Z" fill="#FF4606"/>
<path d="M24.2537 40.7789H24.201V45.5829H24.2537V40.7789Z" fill="#FF4506"/>
<path d="M24.3064 40.7789H24.2538V45.5829H24.3064V40.7789Z" fill="#FF4407"/>
<path d="M24.359 40.7789H24.3064V45.5829H24.359V40.7789Z" fill="#FF4307"/>
<path d="M24.4129 40.7789H24.3602V45.5829H24.4129V40.7789Z" fill="#FF4207"/>
<path d="M24.4655 40.7789H24.4128V45.5829H24.4655V40.7789Z" fill="#FF4108"/>
<path d="M24.5181 40.7789H24.4655V45.5829H24.5181V40.7789Z" fill="#FF4008"/>
<path d="M24.5707 40.7789H24.5181V45.5829H24.5707V40.7789Z" fill="#FF3F08"/>
<path d="M24.6233 40.7789H24.5707V45.5829H24.6233V40.7789Z" fill="#FF3E08"/>
<path d="M24.6759 40.7789H24.6233V45.5829H24.6759V40.7789Z" fill="#FF3D09"/>
<path d="M24.7287 40.7789H24.676V45.5829H24.7287V40.7789Z" fill="#FF3C09"/>
<path d="M24.7825 40.7789H24.7299V45.5829H24.7825V40.7789Z" fill="#FF3B09"/>
<path d="M24.8351 40.7789H24.7825V45.5829H24.8351V40.7789Z" fill="#FF3A0A"/>
<path d="M24.8877 40.7789H24.8351V45.5829H24.8877V40.7789Z" fill="#FF390A"/>
<path d="M24.9403 40.7789H24.8877V45.5829H24.9403V40.7789Z" fill="#FF380A"/>
<path d="M24.9929 40.7789H24.9403V45.5829H24.9929V40.7789Z" fill="#FF370A"/>
<path d="M25.0455 40.7789H24.9929V45.5829H25.0455V40.7789Z" fill="#FF360B"/>
<path d="M25.0982 40.7789H25.0455V45.5829H25.0982V40.7789Z" fill="#FF350B"/>
<path d="M25.152 40.7789H25.0994V45.5829H25.152V40.7789Z" fill="#FF340B"/>
<path d="M25.2047 40.7789H25.1521V45.5829H25.2047V40.7789Z" fill="#FF330C"/>
<path d="M25.2573 40.7789H25.2047V45.5829H25.2573V40.7789Z" fill="#FF320C"/>
<path d="M25.31 40.7789H25.2573V45.5829H25.31V40.7789Z" fill="#FF310C"/>
<path d="M25.3626 40.7789H25.3099V45.5829H25.3626V40.7789Z" fill="#FF300C"/>
<path d="M25.4152 40.7789H25.3625V45.5829H25.4152V40.7789Z" fill="#FF2F0D"/>
<path d="M25.469 40.7789H25.4164V45.5829H25.469V40.7789Z" fill="#FF2E0D"/>
<path d="M25.5216 40.7789H25.469V45.5829H25.5216V40.7789Z" fill="#FF2C0D"/>
<path d="M25.5742 40.7789H25.5216V45.5829H25.5742V40.7789Z" fill="#FF2B0E"/>
<path d="M25.627 40.7789H25.5743V45.5829H25.627V40.7789Z" fill="#FF2A0E"/>
<path d="M25.6796 40.7789H25.627V45.5829H25.6796V40.7789Z" fill="#FF290E"/>
<path d="M25.7322 40.7789H25.6796V45.5829H25.7322V40.7789Z" fill="#FF280E"/>
<path d="M25.7848 40.7789H25.7322V45.5829H25.7848V40.7789Z" fill="#FF270F"/>
<path d="M25.8386 40.7789H25.786V45.5829H25.8386V40.7789Z" fill="#FF260F"/>
<path d="M25.8913 40.7789H25.8386V45.5829H25.8913V40.7789Z" fill="#FF250F"/>
<path d="M25.9439 40.7789H25.8912V45.5829H25.9439V40.7789Z" fill="#FF2410"/>
<path d="M25.9965 40.7789H25.9438V45.5829H25.9965V40.7789Z" fill="#FF2310"/>
<path d="M26.0492 40.7789H25.9966V45.5829H26.0492V40.7789Z" fill="#FF2210"/>
<path d="M26.1018 40.7789H26.0492V45.5829H26.1018V40.7789Z" fill="#FF2110"/>
<path d="M26.1557 40.7789H26.103V45.5829H26.1557V40.7789Z" fill="#FF2011"/>
<path d="M26.2083 40.7789H26.1556V45.5829H26.2083V40.7789Z" fill="#FF1F11"/>
<path d="M26.2609 40.7789H26.2083V45.5829H26.2609V40.7789Z" fill="#FF1E11"/>
<path d="M26.3135 40.7789H26.2609V45.5829H26.3135V40.7789Z" fill="#FF1D12"/>
<path d="M26.3661 40.7789H26.3135V45.5829H26.3661V40.7789Z" fill="#FF1C12"/>
<path d="M26.4187 40.7789H26.3661V45.5829H26.4187V40.7789Z" fill="#FF1B12"/>
<path d="M26.4714 40.7789H26.4188V45.5829H26.4714V40.7789Z" fill="#FF1A12"/>
<path d="M26.5253 40.7789H26.4727V45.5829H26.5253V40.7789Z" fill="#FF1913"/>
<path d="M26.5779 40.7789H26.5253V45.5829H26.5779V40.7789Z" fill="#FF1813"/>
<path d="M26.6305 40.7789H26.5779V45.5829H26.6305V40.7789Z" fill="#FF1713"/>
<path d="M26.6831 40.7789H26.6305V45.5829H26.6831V40.7789Z" fill="#FF1614"/>
<path d="M26.7357 40.7789H26.6831V45.5829H26.7357V40.7789Z" fill="#FF1514"/>
<path d="M26.7883 40.7789H26.7357V45.5829H26.7883V40.7789Z" fill="#FF1414"/>
<path d="M26.8422 40.7789H26.7896V45.5829H26.8422V40.7789Z" fill="#FF1315"/>
<path d="M26.8949 40.7789H26.8423V45.5829H26.8949V40.7789Z" fill="#FF1215"/>
<path d="M26.9475 40.7789H26.8949V45.5829H26.9475V40.7789Z" fill="#FF1115"/>
<path d="M27.0001 40.7789H26.9475V45.5829H27.0001V40.7789Z" fill="#FF1015"/>
<path d="M27.0527 40.7789H27.0001V45.5829H27.0527V40.7789Z" fill="#FF0F16"/>
<path d="M27.1054 40.7789H27.0527V45.5829H27.1054V40.7789Z" fill="#FF0E16"/>
<path d="M27.158 40.7789H27.1053V45.5829H27.158V40.7789Z" fill="#FF0D16"/>
<path d="M27.2118 40.7789H27.1592V45.5829H27.2118V40.7789Z" fill="#FF0C17"/>
<path d="M27.2644 40.7789H27.2118V45.5829H27.2644V40.7789Z" fill="#FF0B17"/>
<path d="M27.3172 40.7789H27.2645V45.5829H27.3172V40.7789Z" fill="#FF0A17"/>
<path d="M27.3698 40.7789H27.3171V45.5829H27.3698V40.7789Z" fill="#FF0917"/>
<path d="M27.4224 40.7789H27.3698V45.5829H27.4224V40.7789Z" fill="#FF0818"/>
<path d="M27.475 40.7789H27.4224V45.5829H27.475V40.7789Z" fill="#FF0718"/>
<path d="M27.5276 40.7789H27.475V45.5829H27.5276V40.7789Z" fill="#FF0618"/>
<path d="M27.5814 40.7789H27.5288V45.5829H27.5814V40.7789Z" fill="#FF0519"/>
<path d="M27.634 40.7789H27.5814V45.5829H27.634V40.7789Z" fill="#FF0419"/>
<path d="M27.6867 40.7789H27.634V45.5829H27.6867V40.7789Z" fill="#FF0319"/>
<path d="M27.7394 40.7789H27.6868V45.5829H27.7394V40.7789Z" fill="#FF0219"/>
<path d="M27.792 40.7789H27.7394V45.5829H27.792V40.7789Z" fill="#FF011A"/>
<path d="M27.8446 40.7789H27.792V45.5829H27.8446V40.7789Z" fill="#FF001A"/>
</g>
<path d="M27.8457 43.1839C27.8432 43.7485 27.6461 44.295 27.2876 44.7313C26.9291 45.1676 26.4311 45.4671 25.8775 45.5793C25.3239 45.6915 24.7486 45.6095 24.2484 45.3472C23.7482 45.0849 23.3537 44.6584 23.1314 44.1393C23.0029 43.8361 22.9368 43.5101 22.9368 43.1808C22.9368 42.8515 23.0029 42.5256 23.1314 42.2223C23.3539 41.7028 23.7489 41.276 24.2497 41.0137C24.7506 40.7515 25.3265 40.67 25.8805 40.783C26.4345 40.896 26.9325 41.1966 27.2905 41.6339C27.6485 42.0713 27.8446 42.6188 27.8457 43.1839ZM27.8457 43.1839C27.8434 42.8688 27.7798 42.5572 27.6585 42.2664C27.4755 41.8329 27.1663 41.4646 26.7709 41.2093C26.3756 40.954 25.9125 40.8236 25.442 40.8351C24.8319 40.8548 24.2534 41.1108 23.8288 41.5492C23.4042 41.9875 23.1668 42.5737 23.1668 43.1839C23.1668 43.794 23.4042 44.3802 23.8288 44.8186C24.2534 45.2569 24.8319 45.513 25.442 45.5327C25.7532 45.5389 26.0625 45.4838 26.3523 45.3704C26.6421 45.2571 26.9067 45.0877 27.131 44.8721C27.3556 44.6521 27.5348 44.3903 27.6585 44.1014C27.7797 43.8105 27.8433 43.4989 27.8457 43.1839Z" fill="url(#paint1_linear_169_2149)"/>
<path d="M46.6287 36.031C47.1816 36.031 47.6298 35.583 47.6298 35.0304C47.6298 34.4777 47.1816 34.0297 46.6287 34.0297C46.0758 34.0297 45.6276 34.4777 45.6276 35.0304C45.6276 35.583 46.0758 36.031 46.6287 36.031Z" fill="white"/>
<path d="M34.4315 23.4991L53.1274 12.6224L71.7475 23.4551V27.6512L86.9346 19.1074L53.0001 0L19.0657 19.1074L34.4315 27.7662V23.4991Z" fill="url(#paint2_linear_169_2149)"/>
<path d="M53.0576 15.4141L36.6895 24.9402L36.6417 60.1113C36.6417 60.1113 47.8733 66.9375 51.9402 77.9647V47.6662C50.7568 47.3613 49.7127 46.6622 48.9804 45.6842C48.2481 44.7063 47.8714 43.5079 47.9123 42.2871C47.9532 41.0662 48.4094 39.8958 49.2056 38.969C50.0017 38.0422 51.0903 37.4145 52.2915 37.1895L52.5619 37.1381L52.3453 37.3119C51.8592 37.6906 51.4592 38.1683 51.1718 38.7133C50.8844 39.2583 50.7161 39.8581 50.6782 40.473C50.6402 41.0879 50.7334 41.7039 50.9517 42.2801C51.1699 42.8562 51.5081 43.3795 51.9439 43.8151C52.3797 44.2507 52.9032 44.5888 53.4796 44.8069C54.056 45.025 54.6723 45.1182 55.2874 45.0803C55.9026 45.0423 56.5027 44.8741 57.0479 44.5869C57.5931 44.2996 58.0711 43.8998 58.45 43.4139L58.6201 43.1961L58.5687 43.4677C58.3635 44.5491 57.8308 45.5413 57.0428 46.31C56.2547 47.0787 55.2493 47.5867 54.1628 47.7653V77.9647C54.1628 77.9647 58.9359 66.0041 69.307 60.1113L69.3535 24.9023L53.0576 15.4141Z" fill="url(#paint3_linear_169_2149)"/>
<path d="M50.5341 72.4217L50.3285 71.87C50.2942 71.7795 50.2624 71.6865 50.2245 71.596L50.1082 71.3256C50.0286 71.147 49.9601 70.9586 49.8744 70.7874L49.6211 70.2589C49.274 69.5591 48.8883 68.8791 48.4658 68.222C47.6142 66.9168 46.6498 65.6887 45.5835 64.552C44.519 63.4126 43.3799 62.3451 42.1738 61.3566C41.5716 60.8612 40.9499 60.3877 40.3245 59.9278C39.6991 59.4678 39.0468 59.0286 38.3908 58.6323L38.2623 58.554V58.4059C38.2537 56.5966 38.2623 54.7873 38.2684 52.978C38.2684 52.0739 38.2794 51.1699 38.2855 50.2646C38.2917 49.3593 38.2953 48.4553 38.3088 47.5512L38.3418 44.8379L38.3883 42.1233C38.4251 40.3152 38.4618 38.5059 38.5254 36.6965C38.5891 38.5059 38.6258 40.3152 38.6637 42.1233L38.709 44.8379L38.742 47.5512C38.7555 48.4553 38.7579 49.3606 38.7653 50.2646C38.7726 51.1687 38.7824 52.0739 38.7824 52.978C38.7824 54.7873 38.7971 56.5966 38.7885 58.4059L38.6588 58.1796C39.3442 58.598 39.9892 59.0445 40.6293 59.5131C41.2693 59.9816 41.885 60.4722 42.4871 60.9811C43.0893 61.49 43.6767 62.0209 44.2458 62.5714C44.8149 63.1219 45.3547 63.6957 45.8785 64.2841C46.4023 64.8725 46.9004 65.4903 47.3679 66.1191C47.8388 66.7529 48.2752 67.4116 48.675 68.0923L48.9712 68.6049L49.2454 69.1285C49.3408 69.301 49.4228 69.4808 49.5073 69.6582C49.5917 69.8356 49.6798 70.013 49.752 70.1965C50.0618 70.9201 50.3231 71.6635 50.5341 72.4217Z" fill="#D7E6EA"/>
<path d="M23.424 43.1962C23.4649 43.4564 23.5419 43.7096 23.6529 43.9485C23.7623 44.1793 23.9091 44.3906 24.0873 44.5736C24.2647 44.7565 24.4716 44.9082 24.6993 45.0226C24.9385 45.1398 25.1938 45.221 25.4569 45.2636C25.183 45.3054 24.903 45.2772 24.643 45.1816C24.3774 45.0856 24.1371 44.9304 23.9405 44.7278C23.7444 44.5255 23.5956 44.2824 23.5048 44.0158C23.4108 43.7534 23.3831 43.4719 23.424 43.1962Z" fill="#D7E6EA"/>
<path d="M33.571 25.5678C32.5919 25.0703 31.6177 24.5643 30.6484 24.0497C29.6779 23.5383 28.7122 23.0172 27.7454 22.4985C26.7785 21.9798 25.8153 21.4562 24.8558 20.9228C23.8963 20.3894 22.9319 19.8683 21.9772 19.3325L21.5782 19.1074L21.9772 18.8823L23.9746 17.7507L25.9781 16.6289C27.3121 15.8802 28.6547 15.145 29.9961 14.4073C31.3374 13.6696 32.6886 12.9393 34.0349 12.2273C35.3811 11.5153 36.7445 10.7899 38.1116 10.0987C36.8106 10.9085 35.4925 11.6952 34.1805 12.4781C32.8685 13.261 31.5418 14.0305 30.2188 14.8024C28.8958 15.5744 27.5667 16.3316 26.2327 17.0815L24.2328 18.2082L22.2306 19.3288V18.8786C23.1864 19.4169 24.1337 19.9698 25.0847 20.5154C26.0356 21.061 26.9804 21.6164 27.9289 22.1718C28.8775 22.7272 29.8198 23.2863 30.7586 23.8527C31.6973 24.4191 32.6384 24.9855 33.571 25.5678Z" fill="white"/>
<defs>
<linearGradient id="paint0_linear_169_2149" x1="25.2378" y1="28.8085" x2="35.4718" y2="28.8085" gradientUnits="userSpaceOnUse">
<stop stop-color="#0C2840"/>
<stop offset="0.46" stop-color="#07192C"/>
<stop offset="1" stop-color="#0C1220"/>
</linearGradient>
<linearGradient id="paint1_linear_169_2149" x1="22.9331" y1="43.1814" x2="27.9522" y2="43.1814" gradientUnits="userSpaceOnUse">
<stop stop-color="#0C2840"/>
<stop offset="0.46" stop-color="#07192C"/>
<stop offset="1" stop-color="#0C1220"/>
</linearGradient>
<linearGradient id="paint2_linear_169_2149" x1="19.0657" y1="13.8837" x2="86.9346" y2="13.8837" gradientUnits="userSpaceOnUse">
<stop stop-color="#0C2840"/>
<stop offset="0.46" stop-color="#07192C"/>
<stop offset="1" stop-color="#0C1220"/>
</linearGradient>
<linearGradient id="paint3_linear_169_2149" x1="36.6417" y1="46.6912" x2="69.3584" y2="46.6912" gradientUnits="userSpaceOnUse">
<stop stop-color="#0C2840"/>
<stop offset="0.46" stop-color="#07192C"/>
<stop offset="1" stop-color="#0C1220"/>
</linearGradient>
</defs>
</svg>
