<svg width="201" height="44" viewBox="0 0 201 44" fill="none" xmlns="http://www.w3.org/2000/svg">
<path fill-rule="evenodd" clip-rule="evenodd" d="M3 0C1.34315 0 0 1.34315 0 3V41C0 42.6569 1.34315 44 3 44C4.31133 44 5.42616 43.1586 5.8341 41.9863C5.88806 41.9953 5.94348 42 6 42H200C200.552 42 201 41.5523 201 41C201 40.4477 200.552 40 200 40H198V4H200C200.552 4 201 3.55228 201 3C201 2.44772 200.552 2 200 2H6C5.94348 2 5.88806 2.00469 5.8341 2.0137C5.42615 0.841356 4.31133 0 3 0Z" fill="#D7E6EA"/>
</svg>
